SplineFontDB: 3.0
FontName: Midway-Italic
FullName: Midway Italic
FamilyName: Midway
Weight: Book
Copyright: Copyright 2011 Canonical Ltd.\nCopyright 2015 Yuta Taniguchi\nLicensed under the Ubuntu Font Licence 1.0
Version: 0.1
ItalicAngle: -13
UnderlinePosition: -156
UnderlineWidth: 23
Ascent: 800
Descent: 200
InvalidEm: 0
sfntRevision: 0x0000199a
LayerCount: 2
Layer: 0 1 "Back" 1
Layer: 1 1 "Fore" 0
XUID: [1021 935 -1301570125 639830]
StyleMap: 0x0001
FSType: 0
OS2Version: 3
OS2_WeightWidthSlopeOnly: 0
OS2_UseTypoMetrics: 0
CreationTime: 1304432203
ModificationTime: 1558200034
PfmFamily: 49
TTFWeight: 400
TTFWidth: 5
LineGap: 0
VLineGap: 0
Panose: 2 11 5 9 3 6 2 10 2 4
OS2TypoAscent: 0
OS2TypoAOffset: 1
OS2TypoDescent: 0
OS2TypoDOffset: 1
OS2TypoLinegap: 0
OS2WinAscent: 0
OS2WinAOffset: 1
OS2WinDescent: 0
OS2WinDOffset: 1
HheadAscent: 0
HheadAOffset: 1
HheadDescent: 0
HheadDOffset: 1
OS2SubXSize: 824
OS2SubYSize: 766
OS2SubXOff: 0
OS2SubYOff: 165
OS2SupXSize: 824
OS2SupYSize: 766
OS2SupXOff: 0
OS2SupYOff: 562
OS2StrikeYSize: 59
OS2StrikeYPos: 294
OS2CapHeight: 729
OS2XHeight: 547
OS2Vendor: 'DAMA'
OS2CodePages: 2000009f.56010000
OS2UnicodeRanges: e00002ff.5000205b.00000000.00000000
Lookup: 1 0 0 "'locl' Localized Forms in Latin lookup 0" { "'locl' Localized Forms in Latin lookup 0 subtable"  } ['locl' ('latn' <'AZE ' > ) ]
Lookup: 1 0 0 "'locl' Localized Forms in Latin lookup 1" { "'locl' Localized Forms in Latin lookup 1 subtable"  } ['locl' ('latn' <'TRK ' > ) ]
Lookup: 1 0 0 "'locl' Localized Forms in Latin lookup 2" { "'locl' Localized Forms in Latin lookup 2 subtable"  } ['locl' ('latn' <'CRT ' > ) ]
Lookup: 1 0 0 "'locl' Localized Forms in Cyrillic lookup 3" { "'locl' Localized Forms in Cyrillic lookup 3 subtable"  } ['locl' ('cyrl' <'SRB ' > ) ]
Lookup: 1 0 0 "'locl' Localized Forms in Cyrillic lookup 4" { "'locl' Localized Forms in Cyrillic lookup 4 subtable"  } ['locl' ('cyrl' <'BGR ' > ) ]

StartChar: SF030000.001
Encoding: 65536 -1 0
Width: 588
VWidth: 1177
Flags: W
LayerCount: 2
Fore
SplineSet
49 0 m 1
 49 883 l 1
 49 893 l 1
 59 893 l 1
 530 893 l 1
 540 893 l 1
 540 883 l 1
 540 0 l 1
 540 -10 l 1
 530 -10 l 1
 59 -10 l 1
 49 -10 l 1
 49 0 l 1
461 69 m 1
 461 814 l 1
 128 814 l 1
 128 69 l 1
 461 69 l 1
EndSplineSet
EndChar

StartChar: exclam
Encoding: 33 33 4
Width: 588
VWidth: 1177
Flags: W
LayerCount: 2
Fore
SplineSet
450.715878339 528.632457102 m 2
 447.022899745 513.860542724 447.022899745 513.860542724 443.457620016 500.044243398 c 0
 439.892340287 486.227944073 439.892340287 486.227944073 436.440696151 473.312723972 c 0
 432.989052015 460.39750387 432.989052015 460.39750387 429.635179096 448.323561362 c 0
 426.286060777 436.266735414 426.286060777 436.266735414 422.880843388 424.543812396 c 0
 419.475625998 412.820889378 419.475625998 412.820889378 416.012330731 401.42550559 c 0
 412.549035465 390.030121803 412.549035465 390.030121803 409.0292578 378.967963427 c 0
 398.480904551 345.815996073 398.480904551 345.815996073 386.92722273 313.164213496 c 0
 375.486583038 280.831970888 375.486583038 280.831970888 364.539937169 246.001734033 c 2
 362.339392187 239 l 1
 355 239 l 1
 287 239 l 1
 275.469903126 239 l 1
 277.100505063 250.414213562 l 2
 282.087776063 285.325110558 282.087776063 285.325110558 286.074889891 317.721552013 c 0
 290.101519936 350.437921128 290.101519936 350.437921128 295.636060762 383.643989873 c 0
 301.158272234 416.777258707 301.158272234 416.777258707 308.178977208 453.383483823 c 0
 315.236406343 490.182935742 315.236406343 490.182935742 326.290432217 533.394127797 c 2
 373.270358375 731.309561396 l 1
 375.095866528 739 l 1
 383 739 l 1
 488 739 l 1
 500.651608219 739 l 1
 497.729641625 726.690438604 l 1
 450.715878339 528.632457102 l 2
273 -24 m 0
 238.096467025 -24 238.096467025 -24 216.225242452 -3.85545105159 c 0
 194 16.6151669967 194 16.6151669967 194 57 c 0
 194 79.6871426803 194 79.6871426803 200.716843451 98.0224457318 c 0
 207.433686901 116.357748783 207.433686901 116.357748783 221.003752074 129.645104265 c 0
 234.325738221 142.689549034 234.325738221 142.689549034 250.751047469 149.344774517 c 0
 267.176356718 156 267.176356718 156 286 156 c 0
 292.801510412 156 292.801510412 156 299.228743837 155.189840728 c 0
 305.655977262 154.379681457 305.655977262 154.379681457 311.722807312 152.742563752 c 0
 317.789637362 151.105446047 317.789637362 151.105446047 323.406163897 148.660282975 c 0
 329.022690432 146.215119903 329.022690432 146.215119903 334.22324088 142.91685784 c 0
 339.423791328 139.618595776 339.423791328 139.618595776 344.098011732 135.514402251 c 0
 356.161027289 124.922486152 356.161027289 124.922486152 362.080513644 109.328920167 c 0
 368 93.7353541822 368 93.7353541822 368 74 c 0
 367.170975776 28.4178046095 367.170975776 28.4178046095 338.134871703 2.01812339843 c 0
 308.795285743 -24 308.795285743 -24 273 -24 c 0
EndSplineSet
EndChar

StartChar: quotedbl
Encoding: 34 34 5
Width: 588
VWidth: 1177
Flags: W
LayerCount: 2
Fore
SplineSet
411.712108441 797.617784722 m 1
 398.706814655 744.596202365 l 2
 392.150082674 718.369274441 392.150082674 718.369274441 383.484328143 688.604245707 c 0
 374.818573611 658.839216974 374.818573611 658.839216974 364.015061252 625.423702001 c 0
 360.414083635 614.285794488 360.414083635 614.285794488 356.771076746 603.44046197 c 0
 353.128069858 592.595129451 353.128069858 592.595129451 349.441102991 582.036779192 c 0
 345.754136123 571.478428933 345.754136123 571.478428933 342.024051266 561.210330932 c 0
 338.293966409 550.94223293 338.293966409 550.94223293 334.52041559 540.96319726 c 0
 330.746864772 530.98416159 330.746864772 530.98416159 326.929001729 521.292761919 c 0
 323.111138686 511.601362248 323.111138686 511.601362248 319.250198184 502.20081146 c 2
 316.703436334 496 l 1
 310 496 l 1
 260 496 l 1
 248.849762768 496 l 1
 250.058978234 507.084475102 l 2
 253.071074028 534.695353217 253.071074028 534.695353217 257.083525909 565.290281315 c 0
 261.09597779 595.885209412 261.09597779 595.885209412 266.109556329 629.476185623 c 0
 276.177785606 696.933321776 276.177785606 696.933321776 289.271530962 750.315514383 c 2
 301.256088043 802.248595067 l 1
 303.044873797 810 l 1
 311 810 l 1
 402 810 l 1
 414.749255585 810 l 1
 411.712108441 797.617784722 l 1
604.75313299 797.791743474 m 1
 592.728490339 744.682905099 l 2
 579.627549817 692.279143012 579.627549817 692.279143012 558.535826651 625.488686321 c 0
 547.97627372 592.050102038 547.97627372 592.050102038 536.906383499 561.230511647 c 0
 525.836493279 530.410921257 525.836493279 530.410921257 514.250198184 502.20081146 c 2
 511.703436334 496 l 1
 505 496 l 1
 456 496 l 1
 445.049671803 496 l 1
 446.041067935 506.90535746 l 2
 447.715265197 525.32152734 447.715265197 525.32152734 449.834933847 545.067805646 c 0
 451.954602497 564.814083952 451.954602497 564.814083952 454.517535906 585.874219497 c 0
 457.080469315 606.934355042 457.080469315 606.934355042 460.089017651 629.331325987 c 0
 460.995328519 636.078306888 460.995328519 636.078306888 461.941368039 642.681358948 c 0
 462.887407559 649.284411008 462.887407559 649.284411008 463.874417702 655.751798229 c 0
 464.861427845 662.21918545 464.861427845 662.21918545 465.888730504 668.544864317 c 0
 466.916033163 674.870543185 466.916033163 674.870543185 467.984482885 681.060415446 c 0
 469.052932607 687.250287706 469.052932607 687.250287706 470.162264536 693.300829584 c 0
 471.271596465 699.351371462 471.271596465 699.351371462 472.422251898 705.265964965 c 0
 473.57290733 711.180558467 473.57290733 711.180558467 474.765034661 716.958199558 c 0
 475.957161992 722.735840648 475.957161992 722.735840648 477.190789266 728.377391596 c 0
 478.424416541 734.018942544 478.424416541 734.018942544 479.700105405 739.52591905 c 0
 480.975794269 745.032895556 480.975794269 745.032895556 482.293185345 750.403797635 c 2
 495.298574999 802.42535625 l 1
 497.192235936 810 l 1
 505 810 l 1
 595 810 l 1
 607.517266543 810 l 1
 604.75313299 797.791743474 l 1
EndSplineSet
EndChar

StartChar: numbersign
Encoding: 35 35 6
Width: 588
VWidth: 1177
Flags: W
LayerCount: 2
Fore
SplineSet
353 -10 m 1
 265 -10 l 1
 249.709844252 -10 l 1
 255.838426651 4.0081883402 l 1
 333.709844252 182 l 1
 224.540155748 182 l 1
 143.161573349 -4.0081883402 l 1
 140.540155748 -10 l 1
 134 -10 l 1
 47 -10 l 1
 31.7826990686 -10 l 1
 37.8209589849 3.96802293882 l 1
 114.782699069 182 l 1
 54 182 l 1
 41.3097857895 182 l 1
 44.2772452457 194.338384055 l 1
 63.2772452457 273.338384055 l 1
 65.1199123718 281 l 1
 73 281 l 1
 156.433737611 281 l 1
 228.770636007 448 l 1
 118 448 l 1
 105.271697776 448 l 1
 108.284097637 460.366694165 l 1
 127.284097637 538.366694165 l 1
 129.143492648 546 l 1
 137 546 l 1
 273.383554351 546 l 1
 352.796261706 732.910396581 l 1
 355.383554351 739 l 1
 362 739 l 1
 450 739 l 1
 465.041885229 739 l 1
 459.220844166 725.130112034 l 1
 384.041885229 546 l 1
 491.415002243 546 l 1
 571.813480868 732.950679212 l 1
 574.415002243 739 l 1
 581 739 l 1
 669 739 l 1
 684.113854976 739 l 1
 678.203738294 725.089603419 l 1
 602.113854976 546 l 1
 663 546 l 1
 675.728302224 546 l 1
 672.715902363 533.633305835 l 1
 653.715902363 455.633305835 l 1
 651.856507352 448 l 1
 644 448 l 1
 558.566262389 448 l 1
 486.229363993 281 l 1
 598 281 l 1
 610.534770582 281 l 1
 607.75011473 268.778454872 l 1
 589.75011473 189.778454872 l 1
 587.977808556 182 l 1
 580 182 l 1
 443.540155748 182 l 1
 362.161573349 -4.0081883402 l 1
 359.540155748 -10 l 1
 353 -10 l 1
447.770636007 448 m 1
 339.566262389 448 l 1
 267.229363993 281 l 1
 375.433737611 281 l 1
 447.770636007 448 l 1
EndSplineSet
EndChar

StartChar: dollar
Encoding: 36 36 7
Width: 628
VWidth: 1177
Flags: W
LayerCount: 2
Fore
SplineSet
205.065733537 133.859375 m 0,0,1
 243.904221486 118.948242188 243.904221486 118.948242188 306.420146582 118.948242188 c 0,2,3
 322.411004435 118.948242188 322.411004435 118.948242188 338.129743517 120.138671875 c 128,-1,4
 353.849517271 121.329101562 353.849517271 121.329101562 369.307518974 123.708984375 c 0,5,6
 399.211613033 128.313476562 399.211613033 128.313476562 422.455522556 140.6484375 c 0,7,8
 445.246245683 152.744140625 445.246245683 152.744140625 459.769938449 172.421875 c 0,9,10
 473.82182072 191.4609375 473.82182072 191.4609375 473.82182072 221.719726562 c 0,11,12
 473.82182072 232.34375 473.82182072 232.34375 471.625211777 240.9921875 c 128,-1,13
 469.429637505 249.641601562 469.429637505 249.641601562 465.169892324 256.4765625 c 0,14,15
 460.613196239 263.786132812 460.613196239 263.786132812 454.46517441 270.46875 c 128,-1,16
 448.316117909 277.151367188 448.316117909 277.151367188 440.50123927 283.2421875 c 128,-1,17
 432.600482844 289.401367188 432.600482844 289.401367188 422.834212557 295.069335938 c 128,-1,18
 413.066907599 300.737304688 413.066907599 300.737304688 401.442366157 305.873046875 c 0,19,20
 389.317043402 311.23046875 389.317043402 311.23046875 376.198435396 317.166015625 c 128,-1,21
 363.079827391 323.1015625 363.079827391 323.1015625 349.520449056 329.365234375 c 0,22,23
 323.67330444 340.30859375 323.67330444 340.30859375 299.818938358 353.83203125 c 0,24,25
 296.742858099 355.575195312 296.742858099 355.575195312 293.742308906 357.41796875 c 128,-1,26
 290.741759713 359.260742188 290.741759713 359.260742188 287.820880275 361.200195312 c 128,-1,27
 284.901035509 363.139648438 284.901035509 363.139648438 282.05775648 365.17578125 c 128,-1,28
 279.214477452 367.212890625 279.214477452 367.212890625 276.450868178 369.345703125 c 128,-1,29
 273.688293577 371.477539062 273.688293577 371.477539062 271.004354057 373.70703125 c 128,-1,30
 268.320414538 375.935546875 268.320414538 375.935546875 265.716144773 378.259765625 c 128,-1,31
 263.11290968 380.583984375 263.11290968 380.583984375 260.590379014 383.002929688 c 128,-1,32
 258.066813676 385.422851562 258.066813676 385.422851562 255.624987436 387.936523438 c 0,33,34
 235.909309895 408.23046875 235.909309895 408.23046875 223.036953858 436.151367188 c 0,35,36
 210.005258312 464.416015625 210.005258312 464.416015625 210.005258312 502.627929688 c 0,37,38
 210.005258312 541.125 210.005258312 541.125 224.496876241 573.879882812 c 128,-1,39
 238.989528842 606.633789062 238.989528842 606.633789062 267.708923306 632.908203125 c 0,40,41
 322.836254683 683.340820312 322.836254683 683.340820312 427.017392001 697.374023438 c 1,42,-1
 455.028036052 808.272460938 l 1,43,-1
 456.938040814 816 l 1,44,-1
 465.345786587 816 l 1,45,-1
 556.463153523 816 l 1,46,-1
 569.206054688 816 l 1,47,-1
 566.28515625 803.952148438 l 1,48,-1
 539.837006978 699.08984375 l 1,49,50
 554.755944499 697.17578125 554.755944499 697.17578125 567.122070312 694.764648438 c 128,-1,51
 579.299804688 692.353515625 579.299804688 692.353515625 590.368164062 689.303710938 c 128,-1,52
 601.436523438 686.252929688 601.436523438 686.252929688 612.494140625 682.290039062 c 0,53,54
 630.739257812 675.75 630.739257812 675.75 645.053710938 669.1875 c 128,-1,55
 659.3671875 662.625976562 659.3671875 662.625976562 670.004882812 655.857421875 c 2,56,-1
 678.110351562 650.701171875 l 1,57,-1
 673.120117188 642.598632812 l 1,58,-1
 629.120117188 571.147460938 l 1,59,-1
 623.509765625 562.038085938 l 1,60,-1
 614.700195312 568.265625 l 2,61,62
 606.559570312 574.020507812 606.559570312 574.020507812 594.17578125 579.616210938 c 128,-1,63
 581.791015625 585.212890625 581.791015625 585.212890625 565.477539062 590.37890625 c 0,64,65
 548.883145459 595.46875 548.883145459 595.46875 527.137441188 598.069335938 c 128,-1,66
 505.390702245 600.669921875 505.390702245 600.669921875 479.119342054 600.669921875 c 0,67,68
 463.243332807 600.669921875 463.243332807 600.669921875 448.45683332 599.256835938 c 128,-1,69
 433.670333832 597.84375 433.670333832 597.84375 419.966101398 595.030273438 c 0,70,71
 393.037724401 589.501953125 393.037724401 589.501953125 373.32204686 578.57421875 c 0,72,73
 363.80616723 573.299804688 363.80616723 573.299804688 356.429989576 566.485351562 c 128,-1,74
 349.054846595 559.671875 349.054846595 559.671875 343.622817884 551.163085938 c 0,75,76
 332.907753249 534.377929688 332.907753249 534.377929688 332.907753249 511.6015625 c 0,77,78
 332.907753249 473 332.907753249 473 357.334293023 453.415039062 c 0,79,80
 384.370275922 431.73828125 384.370275922 431.73828125 439.120986642 406.92578125 c 0,81,82
 470.030782016 394.125976562 470.030782016 394.125976562 497.916230738 380.254882812 c 0,83,84
 526.892223892 365.840820312 526.892223892 365.840820312 548.686557753 345.19140625 c 0,85,86
 570.022460938 324.303710938 570.022460938 324.303710938 582.255859375 296.19140625 c 0,87,88
 588.451171875 281.954101562 588.451171875 281.954101562 591.502929688 265.328125 c 128,-1,89
 594.555664062 248.703125 594.555664062 248.703125 594.555664062 229.71484375 c 0,90,91
 594.555664062 206.26171875 594.555664062 206.26171875 590.348632812 185.2890625 c 128,-1,92
 586.141601562 164.31640625 586.141601562 164.31640625 577.671875 145.922851562 c 0,93,94
 560.803710938 109.291015625 560.803710938 109.291015625 528.571496768 82.4619140625 c 0,95,96
 512.476137029 69.130859375 512.476137029 69.130859375 493.251928752 58.3984375 c 128,-1,97
 474.026685803 47.666015625 474.026685803 47.666015625 451.75640276 39.5380859375 c 0,98,99
 410.842362508 24.6064453125 410.842362508 24.6064453125 361.680950664 19.1240234375 c 1,100,-1
 330.519729961 -106.23828125 l 1,101,-1
 328.631453313 -114 l 1,102,-1
 320.193702049 -114 l 1,103,-1
 229.076335113 -114 l 1,104,-1
 215.602834565 -114 l 1,105,-1
 218.780312693 -101.904296875 l 1,106,-1
 250.734092252 19.75 l 1,107,108
 199.014648438 23.1513671875 199.014648438 23.1513671875 157.088867188 38.3173828125 c 0,109,110
 109.928710938 55.3759765625 109.928710938 55.3759765625 89.908203125 68.783203125 c 2,111,-1
 82 74.0791015625 l 1,112,-1
 87.0693359375 82.0390625 l 1,113,-1
 135.069335938 157.404296875 l 1,114,-1
 140.390625 165.759765625 l 1,115,-1
 148.895507812 160.501953125 l 2,116,117
 167.177734375 149.201171875 167.177734375 149.201171875 205.065733537 133.859375 c 0,0,1
EndSplineSet
EndChar

StartChar: percent
Encoding: 37 37 8
Width: 628
VWidth: 1177
Flags: W
LayerCount: 2
Fore
SplineSet
117.27734375 -10 m 1,0,-1
 112.655273438 -10 l 1,1,-1
 27.6552734375 -10 l 1,2,-1
 6 -10 l 1,3,-1
 20.04296875 6.484375 l 1,4,-1
 661.04296875 735.484375 l 1,5,-1
 664.037109375 739 l 1,6,-1
 668.655273438 739 l 1,7,-1
 752.655273438 739 l 1,8,-1
 774.287109375 739 l 1,9,-1
 760.272460938 722.521484375 l 1,10,-1
 120.272460938 -6.478515625 l 1,11,-1
 117.27734375 -10 l 1,0,-1
158.690737539 402.682617188 m 0,12,13
 128.759752713 436.541015625 128.759752713 436.541015625 128.759752713 499.44140625 c 0,14,15
 128.759752713 511.174804688 128.759752713 511.174804688 129.770680885 523.706054688 c 128,-1,16
 130.781609058 536.23828125 130.781609058 536.23828125 132.786210606 549.487304688 c 128,-1,17
 134.791827141 562.736328125 134.791827141 562.736328125 137.795177004 576.807617188 c 0,18,19
 146.948339918 619.677734375 146.948339918 619.677734375 168.522927509 656.057617188 c 0,20,21
 190.340097262 692.845703125 190.340097262 692.845703125 224.754284637 717.919921875 c 0,22,23
 242.539921557 730.87890625 242.539921557 730.87890625 264.397690835 737.3515625 c 128,-1,24
 286.254445124 744 286.254445124 744 311.684972603 744 c 0,25,26
 427.052582875 744 427.052582875 744 427.052582875 616.393554688 c 0,27,28
 427.052582875 606.620117188 427.052582875 606.620117188 426.65470753 597.21484375 c 128,-1,29
 426.256832185 587.810546875 426.256832185 587.810546875 425.460066507 578.741210938 c 128,-1,30
 424.66228584 569.671875 424.66228584 569.671875 423.4605399 560.958984375 c 128,-1,31
 422.25879396 552.247070312 422.25879396 552.247070312 420.653082745 543.884765625 c 128,-1,32
 419.048386519 535.522460938 419.048386519 535.522460938 417.031605114 527.50390625 c 128,-1,33
 415.014823709 519.486328125 415.014823709 519.486328125 412.592047054 511.830078125 c 0,34,35
 398.038132326 465.858398438 398.038132326 465.858398438 373.037959812 434.278320312 c 0,36,37
 347.805355018 402.404296875 347.805355018 402.404296875 315.198861493 385.311523438 c 0,38,39
 298.762143792 376.6953125 298.762143792 376.6953125 281.189654379 372.34765625 c 128,-1,40
 263.617164966 368 263.617164966 368 245.166710825 368 c 0,41,42
 231.530345362 368 231.530345362 368 219.234779212 370.15625 c 128,-1,43
 206.939213062 372.3125 206.939213062 372.3125 196.051435443 376.61328125 c 128,-1,44
 185.164672811 380.915039062 185.164672811 380.915039062 175.762837806 387.459960938 c 128,-1,45
 166.361002802 394.005859375 166.361002802 394.005859375 158.690737539 402.682617188 c 0,12,13
234.195704179 463.865234375 m 0,46,47
 241.196077279 451 241.196077279 451 256.599537068 451 c 0,48,49
 274.293825056 451 274.293825056 451 287.284658072 466.786132812 c 0,50,51
 302.451625628 485.216796875 302.451625628 485.216796875 312.310205288 510.127929688 c 0,52,53
 322.322048156 535.42578125 322.322048156 535.42578125 326.329221275 562.580078125 c 0,54,55
 328.363257478 576.357421875 328.363257478 576.357421875 329.378245603 587.436523438 c 128,-1,56
 330.393233728 598.514648438 330.393233728 598.514648438 330.393233728 606.657226562 c 0,57,58
 330.393233728 620.493164062 330.393233728 620.493164062 328.136915126 631.39453125 c 128,-1,59
 325.881611512 642.295898438 325.881611512 642.295898438 321.616631409 650.134765625 c 0,60,61
 317.821590809 657.108398438 317.821590809 657.108398438 312.843074054 660.053710938 c 128,-1,62
 307.8645573 663 307.8645573 663 300.25214636 663 c 0,63,64
 288.6498171 663 288.6498171 663 276.02437981 652.559570312 c 0,65,66
 261.93126969 640.90625 261.93126969 640.90625 250.863839172 620.126953125 c 0,67,68
 248.976976247 616.583007812 248.976976247 616.583007812 247.207851945 612.838867188 c 128,-1,69
 245.437712654 609.095703125 245.437712654 609.095703125 243.782267022 605.139648438 c 128,-1,70
 242.125806402 601.184570312 242.125806402 601.184570312 240.588099392 597.021484375 c 128,-1,71
 239.050392382 592.857421875 239.050392382 592.857421875 237.632453971 588.491210938 c 128,-1,72
 236.213500572 584.124023438 236.213500572 584.124023438 234.913300783 579.540039062 c 128,-1,73
 233.614115983 574.956054688 233.614115983 574.956054688 232.438759734 570.17578125 c 0,74,75
 228.934005737 555.916015625 228.934005737 555.916015625 227.176046304 540.688476562 c 128,-1,76
 225.419101859 525.459960938 225.419101859 525.459960938 225.419101859 509.251953125 c 0,77,78
 225.419101859 479.993164062 225.419101859 479.993164062 234.195704179 463.865234375 c 0,46,47
383.877018002 18.5380859375 m 0,79,80
 353.258886215 51.482421875 353.258886215 51.482421875 353.258886215 114.545898438 c 0,81,82
 353.258886215 149.64453125 353.258886215 149.64453125 362.833269201 192.514648438 c 0,83,84
 372.516255916 235.872070312 372.516255916 235.872070312 394.091858495 271.76171875 c 0,85,86
 415.857263853 307.967773438 415.857263853 307.967773438 449.628963746 333.491210938 c 0,87,88
 484.704923379 360 484.704923379 360 536.184106105 360 c 0,89,90
 592.975736679 360 592.975736679 360 622.510876137 327.165039062 c 128,-1,91
 652.045000606 294.331054688 652.045000606 294.331054688 652.591064218 232.48046875 c 0,92,93
 652.591064218 220.725585938 652.591064218 220.725585938 652.019625903 209.522460938 c 128,-1,94
 651.448187589 198.318359375 651.448187589 198.318359375 650.297191055 187.600585938 c 128,-1,95
 649.14619452 176.8828125 649.14619452 176.8828125 647.415639767 166.697265625 c 128,-1,96
 645.684070025 156.510742188 645.684070025 156.510742188 643.362792183 146.807617188 c 128,-1,97
 641.040499352 137.104492188 641.040499352 137.104492188 638.130528397 127.9140625 c 0,98,99
 623.587778538 81.99609375 623.587778538 81.99609375 598.624145596 49.9638671875 c 0,100,101
 572.574475361 17.4658203125 572.574475361 17.4658203125 540.498820626 1.3203125 c 0,102,103
 524.092552569 -6.755859375 524.092552569 -6.755859375 506.587052372 -10.8232421875 c 128,-1,104
 489.081552176 -15 489.081552176 -15 470.705192167 -15 c 0,105,106
 415.046288341 -15 415.046288341 -15 383.877018002 18.5380859375 c 0,79,80
458.741527135 79.2568359375 m 0,107,108
 465.769304914 66 465.769304914 66 481.09867057 66 c 0,109,110
 498.792958558 66 498.792958558 66 511.783791574 81.7900390625 c 0,111,112
 515.546352554 86.36328125 515.546352554 86.36328125 518.985132323 91.3701171875 c 128,-1,113
 522.422897103 96.3759765625 522.422897103 96.3759765625 525.553120481 101.841796875 c 128,-1,114
 528.68334386 107.30859375 528.68334386 107.30859375 531.495875955 113.24609375 c 128,-1,115
 534.30840805 119.184570312 534.30840805 119.184570312 536.789039028 125.56640625 c 0,116,117
 546.851631302 151.458007812 546.851631302 151.458007812 551.377463353 178.262695312 c 0,118,119
 553.657126682 191.764648438 553.657126682 191.764648438 554.793913382 202.684570312 c 128,-1,120
 555.931715071 213.604492188 555.931715071 213.604492188 555.931715071 221.690429688 c 0,121,122
 555.931715071 249.09765625 555.931715071 249.09765625 547.10740831 265.743164062 c 0,123,124
 540.07963053 279 540.07963053 279 525.790627703 279 c 0,125,126
 520.274167242 279 520.274167242 279 514.29791716 276.4375 c 128,-1,127
 508.321667078 273.875 508.321667078 273.875 501.701914525 268.196289062 c 0,128,129
 487.445391318 255.96875 487.445391318 255.96875 475.803477521 235.017578125 c 0,130,131
 469.895231643 224.3828125 469.895231643 224.3828125 465.169446932 211.92578125 c 128,-1,132
 460.443662221 199.469726562 460.443662221 199.469726562 456.937893236 185.201171875 c 0,133,134
 449.918235362 156.629882812 449.918235362 156.629882812 449.918235362 125.219726562 c 0,135,136
 449.918235362 95.90234375 449.918235362 95.90234375 458.741527135 79.2568359375 c 0,107,108
EndSplineSet
EndChar

StartChar: ampersand
Encoding: 38 38 9
Width: 588
VWidth: 1177
Flags: W
LayerCount: 2
Fore
SplineSet
387.590639432 337.119538101 m 2
 401.486763502 313.297611124 401.486763502 313.297611124 416.320502943 291.047001962 c 0
 421.276207735 283.613444775 421.276207735 283.613444775 426.881314252 274.744723596 c 0
 432.486420769 265.876002417 432.486420769 265.876002417 437.171925393 258.099708778 c 1
 442.89126258 270.332316038 442.89126258 270.332316038 448.215694622 282.953382868 c 0
 453.540126665 295.574449698 453.540126665 295.574449698 458.539374948 308.738478535 c 0
 463.538623232 321.902507371 463.538623232 321.902507371 468.27930213 335.812729705 c 0
 473.019981029 349.722952039 473.019981029 349.722952039 477.509005529 364.339471764 c 0
 481.998030029 378.955991488 481.998030029 378.955991488 486.364820904 394.676438638 c 2
 488.668093773 402.968220968 l 1
 497.210543753 401.926458776 l 1
 579.210543753 391.926458776 l 1
 590.876473767 390.503784384 l 1
 587.604663661 379.216039519 l 2
 582.56407623 361.826012881 582.56407623 361.826012881 577.238863562 345.251463317 c 0
 571.913650894 328.676913752 571.913650894 328.676913752 566.296881991 312.898172933 c 0
 560.680113088 297.119432114 560.680113088 297.119432114 554.770436438 282.140406389 c 0
 548.860759788 267.161380664 548.860759788 267.161380664 542.661573349 252.99181166 c 0
 519.207359822 199.382180741 519.207359822 199.382180741 493.352998135 157.323324757 c 1
 508.335109514 124.964866283 508.335109514 124.964866283 521.842928493 89.5650648198 c 0
 536.556279654 51.0059376397 536.556279654 51.0059376397 548.701425001 2.42535625036 c 2
 551.807764064 -10 l 1
 539 -10 l 1
 438 -10 l 1
 430 -10 l 1
 428.243902439 -2.19512195122 l 2
 421.229085532 28.9818420789 421.229085532 28.9818420789 412.147010924 59.695040478 c 1
 390.345283693 40.0065881544 390.345283693 40.0065881544 368.546111161 25.8324827438 c 0
 346.746938629 11.6583773331 346.746938629 11.6583773331 323.793532811 2.24748094792 c 0
 271.970408548 -19 271.970408548 -19 219 -19 c 0
 201.08710233 -19 201.08710233 -19 184.72274024 -15.9399730898 c 0
 168.35837815 -12.8799461797 168.35837815 -12.8799461797 153.641938696 -6.72579877145 c 0
 124.149253014 5.60750614994 124.149253014 5.60750614994 102.678132618 28.6889605752 c 0
 81.4402763573 51.5196560559 81.4402763573 51.5196560559 69.2498018162 81.2008114602 c 0
 57 111.026415882 57 111.026415882 57 145 c 0
 57 174.17406629 57 174.17406629 64.7719378531 206.816205273 c 0
 72.6068106832 239.722671159 72.6068106832 239.722671159 90.8263323144 271.476694574 c 0
 99.9098421097 287.307954503 99.9098421097 287.307954503 111.784396285 302.796467157 c 0
 123.65895046 318.284979811 123.65895046 318.284979811 138.308086099 333.448120209 c 0
 167.652762512 363.822434391 167.652762512 363.822434391 211.609421064 391.42312697 c 2
 226.871603076 401.376723934 l 1
 211.419570821 431.17023346 211.419570821 431.17023346 201.998425359 459.882295821 c 0
 191 493.40130644 191 493.40130644 191 527 c 0
 191 540.451807488 191 540.451807488 192.169459561 553.200198526 c 0
 193.338919121 565.948589565 193.338919121 565.948589565 195.685296936 578.029288643 c 0
 198.03167475 590.109987722 198.03167475 590.109987722 201.57881141 601.507757691 c 0
 205.125948069 612.90552766 205.125948069 612.90552766 209.861884514 623.561384661 c 0
 228.68864191 665.921588802 228.68864191 665.921588802 260.176817496 695.310552682 c 0
 275.882630846 709.969311809 275.882630846 709.969311809 294.103730411 721.242815884 c 0
 312.324829976 732.51631996 312.324829976 732.51631996 332.949890586 740.348621457 c 0
 346.667561772 745.55786368 346.667561772 745.55786368 360.704316515 749.036783529 c 0
 374.741071258 752.515703377 374.741071258 752.515703377 389.073347716 754.257851689 c 0
 403.405624174 756 403.405624174 756 418 756 c 0
 445.655478968 756 445.655478968 756 470.722637978 747.466499061 c 0
 495.896393719 738.896709872 495.896393719 738.896709872 515.273295379 723.287539091 c 0
 521.916697794 717.935909367 521.916697794 717.935909367 527.594587684 711.509669536 c 0
 533.272477575 705.083429706 533.272477575 705.083429706 537.908569436 697.705290564 c 0
 542.544661298 690.327151422 542.544661298 690.327151422 546.170700563 681.987261114 c 0
 557 657.079872408 557 657.079872408 557 624 c 0
 557 594.502120343 557 594.502120343 547.061118249 562.069979892 c 0
 542.071163093 545.786968332 542.071163093 545.786968332 533.986272572 529.486843656 c 0
 525.90138205 513.18671898 525.90138205 513.18671898 514.759498735 496.862564355 c 0
 492.536572115 464.303392795 492.536572115 464.303392795 456.56978281 432.960904973 c 0
 444.486736557 422.431393238 444.486736557 422.431393238 430.719993327 412.528288776 c 0
 416.953250096 402.625184314 416.953250096 402.625184314 401.417896927 393.278232024 c 0
 385.882543759 383.931279735 385.882543759 383.931279735 368.367893251 375.002242221 c 2
 365.372981915 373.619975451 l 1
 387.590639432 337.119538101 l 2
177 159 m 0
 177 150.194092912 177 150.194092912 178.129104588 142.292859887 c 0
 179.258209176 134.391626862 179.258209176 134.391626862 181.506639098 127.41056481 c 0
 183.75506902 120.429502759 183.75506902 120.429502759 187.051461917 114.320872607 c 0
 190.347854813 108.212242455 190.347854813 108.212242455 194.746612001 102.823764899 c 0
 211.745603756 82 211.745603756 82 250 82 c 0
 257.525956831 82 257.525956831 82 265.116196515 83.1109122088 c 0
 272.7064362 84.2218244176 272.7064362 84.2218244176 280.451355074 86.4683034093 c 0
 288.196273949 88.714782401 288.196273949 88.714782401 296.098212696 92.1434677462 c 0
 304.000151444 95.5721530913 304.000151444 95.5721530913 312.02487882 100.174570263 c 0
 342.315833846 117.547323881 342.315833846 117.547323881 373.135632848 153.441354496 c 1
 360.433645661 178.951558155 360.433645661 178.951558155 347.977042983 201.299126064 c 0
 335.520440306 223.646693974 335.520440306 223.646693974 322.025253063 245.191642028 c 0
 296.556542423 285.852215156 296.556542423 285.852215156 272.829169127 324.129103253 c 1
 270.297564929 322.5180824 l 2
 240.403160051 304.195705217 240.403160051 304.195705217 222.840994396 285.209580184 c 0
 214.036585816 275.691300639 214.036585816 275.691300639 207.194937595 266.018599804 c 0
 200.353289373 256.34589897 200.353289373 256.34589897 195.44427191 246.527864045 c 0
 185.552698137 226.744716499 185.552698137 226.744716499 181.313926549 205.079883936 c 0
 177 183.030926021 177 183.030926021 177 159 c 0
331.561096646 454.96251738 m 2
 338.40006467 458.499914635 338.40006467 458.499914635 344.974188114 462.451211547 c 0
 351.548311557 466.402508459 351.548311557 466.402508459 357.782000482 470.718429726 c 0
 364.015689406 475.034350993 364.015689406 475.034350993 369.906222353 479.7167427 c 0
 375.7967553 484.399134407 375.7967553 484.399134407 381.25730636 489.384854939 c 0
 403.375015093 509.579284653 403.375015093 509.579284653 418.207335724 531.588534621 c 0
 432.926091914 553.429269612 432.926091914 553.429269612 439.992701605 575.100205998 c 0
 443.519401565 585.915419208 443.519401565 585.915419208 445.259700782 595.893449983 c 0
 447 605.871480758 447 605.871480758 447 615 c 0
 447 626.507733472 447 626.507733472 443.433836002 634.31513101 c 0
 439.867672005 642.122528547 439.867672005 642.122528547 432.605309299 647.422090521 c 0
 428.58656413 650.354688348 428.58656413 650.354688348 424.402916267 652.525495703 c 0
 420.219268404 654.696303059 420.219268404 654.696303059 415.788915273 656.137780461 c 0
 411.358562143 657.579257863 411.358562143 657.579257863 406.68174068 658.289628931 c 0
 402.004919217 659 402.004919217 659 397 659 c 0
 380.01941016 659 380.01941016 659 362.880570001 651.783646249 c 0
 346.205219767 644.76244615 346.205219767 644.76244615 333.287539091 628.726704621 c 0
 328.869943026 623.242792265 328.869943026 623.242792265 324.988145976 616.862213395 c 0
 321.106348927 610.481634524 321.106348927 610.481634524 317.705373435 603.057512047 c 0
 314.304397944 595.633389569 314.304397944 595.633389569 311.468815887 587.284175736 c 0
 303 562.348217846 303 562.348217846 303 528 c 0
 303 505.318155049 303 505.318155049 308.158428372 486.091285661 c 0
 312.442668432 470.122754529 312.442668432 470.122754529 321.683902987 450.2838467 c 1
 331.561096646 454.96251738 l 2
EndSplineSet
EndChar

StartChar: quotesingle
Encoding: 39 39 10
Width: 588
VWidth: 1177
Flags: W
LayerCount: 2
Fore
SplineSet
518.712108441 797.617784722 m 1
 505.728469038 744.684485617 l 2
 503.723161691 735.994820449 503.723161691 735.994820449 501.312168725 726.408686325 c 0
 498.901175759 716.822552202 498.901175759 716.822552202 496.099128152 706.397723012 c 0
 493.297080545 695.972893823 493.297080545 695.972893823 490.120639325 684.771758997 c 0
 480.571985112 651.100188877 480.571985112 651.100188877 469.02577643 614.95704364 c 0
 457.494350868 578.858667969 457.494350868 578.858667969 445.459459459 543.756756757 c 0
 443.446579375 537.88585651 443.446579375 537.88585651 441.461876395 532.239133634 c 0
 439.477173415 526.592410757 439.477173415 526.592410757 437.517771188 521.161834876 c 0
 435.558368962 515.731258994 435.558368962 515.731258994 433.625704084 510.521562329 c 0
 431.693039206 505.311865664 431.693039206 505.311865664 429.786253609 500.320529332 c 0
 427.879468012 495.329192999 427.879468012 495.329192999 425.997845455 490.555070296 c 0
 424.116222899 485.780947593 424.116222899 485.780947593 422.260923598 481.227031127 c 2
 419.72398499 475 l 1
 413 475 l 1
 353 475 l 1
 342.231861948 475 l 1
 343.027322455 485.738716855 l 2
 345.04724711 513.007699696 345.04724711 513.007699696 349.581642247 548.275217425 c 0
 354.106219939 583.466377256 354.106219939 583.466377256 360.136060762 619.643989873 c 0
 366.154574516 655.755072401 366.154574516 655.755072401 372.677880849 689.877758073 c 0
 379.247481334 724.241822148 379.247481334 724.241822148 386.296787429 750.424959074 c 2
 398.256088043 802.248595067 l 1
 400.044873797 810 l 1
 408 810 l 1
 509 810 l 1
 521.749255585 810 l 1
 518.712108441 797.617784722 l 1
EndSplineSet
EndChar

StartChar: parenleft
Encoding: 40 40 11
Width: 588
VWidth: 1177
Flags: W
LayerCount: 2
Fore
SplineSet
621.290079268 741.513831174 m 2
 545.244719974 694.108931874 545.244719974 694.108931874 482.043283976 631.401257095 c 0
 418.806327018 568.658338863 418.806327018 568.658338863 372.391040717 497.060290846 c 0
 356.949057806 473.240210823 356.949057806 473.240210823 343.814226887 448.72204131 c 0
 330.679395968 424.203871797 330.679395968 424.203871797 319.854404733 398.998832625 c 0
 309.029413498 373.793793453 309.029413498 373.793793453 300.498788187 347.873816546 c 0
 275 270.396729364 275 270.396729364 275 191 c 0
 275 163.258974699 275 163.258974699 278.314179209 135.809070125 c 0
 281.628358417 108.35916555 281.628358417 108.35916555 288.268512649 81.1485785591 c 0
 294.90866688 53.937991568 294.90866688 53.937991568 304.879543105 26.9675886632 c 0
 334.657477344 -53.5792826374 334.657477344 -53.5792826374 404.215821523 -126.076711782 c 2
 410.997350934 -133.14478469 l 1
 404.071067812 -140.071067812 l 1
 340.071067812 -204.071067812 l 1
 333 -211.142135624 l 1
 325.928932188 -204.071067812 l 2
 239.438441437 -117.580577061 239.438441437 -117.580577061 200.67638691 -17.6152785449 c 0
 181.35491831 32.2137720568 181.35491831 32.2137720568 171.677459155 82.8931867751 c 0
 162 133.572601493 162 133.572601493 162 185 c 0
 162 200.763092715 162 200.763092715 162.834048705 216.488102002 c 0
 163.668097409 232.213111289 163.668097409 232.213111289 165.335340632 247.890995105 c 0
 167.002583854 263.568878922 167.002583854 263.568878922 169.50221925 279.20315413 c 0
 172.001854646 294.837429339 172.001854646 294.837429339 175.333416219 310.423291508 c 0
 178.664977793 326.009153678 178.664977793 326.009153678 182.827249129 341.545599553 c 0
 186.989520465 357.082045428 186.989520465 357.082045428 191.982423759 372.568508187 c 0
 221.880378659 465.302842877 221.880378659 465.302842877 276.08003409 549.894828457 c 0
 330.21008599 634.378180487 330.21008599 634.378180487 406.049779032 707.68988376 c 0
 443.971054735 744.34711694 443.971054735 744.34711694 485.696220234 776.083530846 c 0
 527.421385734 807.819944752 527.421385734 807.819944752 572.925615186 834.616879874 c 2
 582.154504704 840.051670368 l 1
 586.94427191 830.472135955 l 1
 624.94427191 754.472135955 l 1
 629.015500728 746.329678318 l 1
 621.290079268 741.513831174 l 2
EndSplineSet
Substitution2: "'case' Case-Sensitive Forms lookup 17 subtable" Parenleft
EndChar

StartChar: parenright
Encoding: 41 41 12
Width: 588
VWidth: 1177
Flags: W
LayerCount: 2
Fore
SplineSet
60.709920732 -112.513831174 m 2
 98.7469444923 -88.8024397393 98.7469444923 -88.8024397393 133.685544306 -61.2713171373 c 0
 168.62414412 -33.7401945353 168.62414412 -33.7401945353 200.484389002 -2.37390693864 c 0
 264.186811177 60.3408807844 264.186811177 60.3408807844 310.082561421 131.89877095 c 0
 355.913381091 203.355425274 355.913381091 203.355425274 382.019184615 281.180273515 c 0
 395.019338039 319.935447874 395.019338039 319.935447874 401.509669019 359.122304747 c 0
 408 398.30916162 408 398.30916162 408 438 c 0
 408 479.599975035 408 479.599975035 400.417144234 520.571780561 c 0
 392.834288468 561.543586087 392.834288468 561.543586087 377.639041785 601.982549034 c 0
 347.348756112 682.593793163 347.348756112 682.593793163 278.73531583 755.128001461 c 2
 272.104002112 762.138247392 l 1
 278.873475408 769.015172645 l 1
 341.873475408 833.015172645 l 1
 348.944103101 840.198032523 l 1
 356.071067812 833.071067812 l 2
 442.545216898 746.596918726 442.545216898 746.596918726 481.807514934 646.656523724 c 0
 501.386132862 596.820041727 501.386132862 596.820041727 511.193066431 546.129562715 c 0
 521 495.439083704 521 495.439083704 521 444 c 0
 521 412.476654968 521 412.476654968 517.664576533 381.110500067 c 0
 514.329153067 349.744345165 514.329153067 349.744345165 507.666718374 318.575778334 c 0
 501.004283682 287.407211503 501.004283682 287.407211503 491.017576241 256.431491813 c 0
 461.119621341 163.697157123 461.119621341 163.697157123 406.91996591 79.1051715429 c 0
 352.799052485 -5.36391763442 352.799052485 -5.36391763442 277.474217346 -78.6666095482 c 0
 202.076816028 -152.039919556 202.076816028 -152.039919556 108.991787809 -205.66499016 c 2
 99.799836748 -210.960353271 l 1
 95.05572809 -201.472135955 l 1
 57.05572809 -125.472135955 l 1
 52.9844992717 -117.329678318 l 1
 60.709920732 -112.513831174 l 2
EndSplineSet
Substitution2: "'case' Case-Sensitive Forms lookup 17 subtable" Parenright
EndChar

StartChar: asterisk
Encoding: 42 42 13
Width: 588
VWidth: 1177
Flags: W
LayerCount: 2
Fore
SplineSet
455.250152521 483.687897514 m 1
 480.39464293 460.997556596 480.39464293 460.997556596 505.463131209 436.6773814 c 0
 539.010954232 404.13098593 539.010954232 404.13098593 563.815309827 366.326825797 c 1
 568.071067812 362.071067812 l 1
 576.304484717 353.837650906 l 1
 566.922050999 346.94212733 l 1
 483.922050999 285.94212733 l 1
 475.234301727 279.557154973 l 1
 469.52001696 288.7000106 l 1
 464.734556002 296.356748132 l 2
 438.151158497 332.31777752 438.151158497 332.31777752 418.449343248 374.247281767 c 0
 414.849945168 381.907539221 414.849945168 381.907539221 411.11250895 389.888631623 c 0
 407.375072732 397.869724025 407.375072732 397.869724025 403.764142899 405.60539329 c 0
 400.153213065 413.341062555 400.153213065 413.341062555 396.672243163 420.821429075 c 0
 393.191273261 428.301795596 393.191273261 428.301795596 389.969250688 435.249966723 c 1
 375.710536115 404.932476894 375.710536115 404.932476894 360.465771812 374.071124768 c 0
 339.525297649 331.679433171 339.525297649 331.679433171 311.802784464 295.742842005 c 2
 306.682212796 289.598156003 l 1
 300.684780076 282.401236739 l 1
 293.112351108 287.916956605 l 1
 212.112351108 346.916956605 l 1
 204.103976259 352.750217297 l 1
 209.862665288 360.812381937 l 1
 214.892169005 367.85368714 l 2
 242.403190387 405.553975702 242.403190387 405.553975702 274.984827355 437.626524592 c 0
 286.920848116 449.376045029 286.920848116 449.376045029 299.531024155 461.270279733 c 0
 312.141200193 473.164514437 312.141200193 473.164514437 324.162854113 484.039063975 c 1
 307.182414207 486.382220095 307.182414207 486.382220095 290.282158372 488.755925715 c 0
 273.381902537 491.129631335 273.381902537 491.129631335 256.085786438 493.600505063 c 0
 209.656714732 500.233229593 209.656714732 500.233229593 167.62791891 514.584525727 c 2
 159.488765584 517.636708224 l 1
 150.634653452 520.957000274 l 1
 153.45520022 529.982749931 l 1
 183.45520022 625.982749931 l 1
 186.609481246 636.076449215 l 1
 196.511234416 632.363291776 l 1
 204.573487593 629.339946834 l 2
 246.017636065 613.166620601 246.017636065 613.166620601 288.386344006 592.486656011 c 0
 304.156675279 584.789232413 304.156675279 584.789232413 319.587127647 576.902183291 c 0
 335.017580014 569.015134169 335.017580014 569.015134169 349.792360088 561.112393745 c 1
 348.362326177 568.152277906 348.362326177 568.152277906 347.038751557 574.858307125 c 0
 345.715176937 581.564336345 345.715176937 581.564336345 344.462192351 588.114015057 c 0
 343.209207766 594.663693769 343.209207766 594.663693769 341.986543834 601.277195083 c 0
 340.763879903 607.890696397 340.763879903 607.890696397 339.57382008 614.535493634 c 0
 338.383760257 621.180290871 338.383760257 621.180290871 337.147882452 628.286588252 c 0
 329 675.13691235 329 675.13691235 329 721 c 2
 329 729 l 1
 329 739 l 1
 339 739 l 1
 441 739 l 1
 451 739 l 1
 451 729 l 1
 451 721 l 2
 451 698.06313665 451 698.06313665 448.962114931 674.882185354 c 0
 446.924229862 651.701234058 446.924229862 651.701234058 442.852117548 628.286588252 c 0
 436.909585282 594.117027722 436.909585282 594.117027722 430.80829248 561.296871215 c 1
 460.567116906 577.721187596 460.567116906 577.721187596 491.704939585 592.530639846 c 0
 532.619211557 611.98986676 532.619211557 611.98986676 572.997014701 627.178847238 c 1
 580.527864045 630.94427191 l 1
 590.971034959 636.165857367 l 1
 594.525381006 625.04419393 l 1
 625.525381006 528.04419393 l 1
 628.665530164 518.218565919 l 1
 618.747211279 515.384760524 l 1
 611.885420984 513.424249011 l 2
 591.209616236 506.868506042 591.209616236 506.868506042 568.992775505 501.761817569 c 0
 546.775934774 496.655129097 546.775934774 496.655129097 523.50441997 493.113811627 c 0
 489.122410234 487.881766667 489.122410234 487.881766667 455.250152521 483.687897514 c 1
EndSplineSet
EndChar

StartChar: plus
Encoding: 43 43 14
Width: 588
VWidth: 1177
Flags: W
LayerCount: 2
Fore
SplineSet
466.714448819 565.627346602 m 1
 416.736341123 361 l 1
 594 361 l 1
 606.732169681 361 l 1
 603.715203388 348.630438198 l 1
 583.715203388 266.630438198 l 1
 581.8541209 259 l 1
 574 259 l 1
 391.860099666 259 l 1
 340.716952626 48.6376216092 l 1
 338.860099666 41 l 1
 331 41 l 1
 243 41 l 1
 230.390544414 41 l 1
 233.262907386 53.2779436849 l 1
 281.390544414 259 l 1
 101 259 l 1
 88.267830319 259 l 1
 91.2847966122 271.369561802 l 1
 111.284796612 353.369561802 l 1
 113.1458791 361 l 1
 121 361 l 1
 306.148451503 361 l 1
 357.285551181 570.372653398 l 1
 359.148451503 578 l 1
 367 578 l 1
 457 578 l 1
 469.736341123 578 l 1
 466.714448819 565.627346602 l 1
EndSplineSet
EndChar

StartChar: comma
Encoding: 44 44 15
Width: 588
VWidth: 1177
Flags: W
LayerCount: 2
Fore
SplineSet
257.140805462 -16.3130315383 m 1
 228.972133938 -8.59934194926 228.972133938 -8.59934194926 213.435950041 12.5863633637 c 0
 195 37.7262952384 195 37.7262952384 195 69 c 0
 195 112.922875759 195 112.922875759 223.167318432 143.299395636 c 0
 251.635151569 174 251.635151569 174 300 174 c 0
 344.072251928 174 344.072251928 174 367.568628202 141.907388505 c 0
 390 111.269417268 390 111.269417268 390 67 c 0
 390 31.1942034862 390 31.1942034862 375.368415147 -7.99754165498 c 0
 360.734796357 -47.1947348439 360.734796357 -47.1947348439 329.546055222 -83.0617871492 c 0
 298.330981569 -118.95912185 298.330981569 -118.95912185 249.69612973 -144.828723892 c 0
 233.435267398 -153.47811875 233.435267398 -153.47811875 215.143766126 -160.263333377 c 0
 196.852264855 -167.048548005 196.852264855 -167.048548005 176.696572661 -171.942222191 c 0
 156.540880466 -176.835896376 156.540880466 -176.835896376 134.371530585 -179.905498668 c 2
 124.253457992 -181.306462565 l 1
 123.067616285 -171.160927967 l 1
 114.067616285 -94.1609279667 l 1
 112.826929277 -83.5461613389 l 1
 123.500623831 -83.0124766112 l 2
 128.20812394 -82.7771016058 128.20812394 -82.7771016058 133.113186185 -82.2447372409 c 0
 138.018248431 -81.7123728761 138.018248431 -81.7123728761 143.139582281 -80.8798280732 c 0
 148.260916131 -80.0472832702 148.260916131 -80.0472832702 153.603095646 -78.9069256037 c 0
 158.945275161 -77.7665679372 158.945275161 -77.7665679372 164.475781029 -76.323827276 c 0
 186.511465402 -70.5753878743 186.511465402 -70.5753878743 206.11576368 -61.0123155436 c 0
 225.330997336 -51.6390308331 225.330997336 -51.6390308331 240.77327206 -37.600599266 c 0
 251.046729407 -28.2610925865 251.046729407 -28.2610925865 257.140805462 -16.3130315383 c 1
EndSplineSet
EndChar

StartChar: hyphen
Encoding: 45 45 16
Width: 588
VWidth: 1177
Flags: W
LayerCount: 2
Fore
SplineSet
183 355 m 1
 535 355 l 1
 547.539816038 355 l 1
 544.749242329 342.774629468 l 1
 523.749242329 250.774629468 l 1
 521.974598646 243 l 1
 514 243 l 1
 160 243 l 1
 147.192235936 243 l 1
 150.298574999 255.42535625 l 1
 173.298574999 347.42535625 l 1
 175.192235936 355 l 1
 183 355 l 1
EndSplineSet
Substitution2: "'case' Case-Sensitive Forms lookup 17 subtable" Hyphen
EndChar

StartChar: period
Encoding: 46 46 17
Width: 588
VWidth: 1177
Flags: W
LayerCount: 2
Fore
SplineSet
283 -24 m 0
 270.938893862 -24 270.938893862 -24 259.957557504 -21.5071385121 c 0
 248.976221146 -19.0142770243 248.976221146 -19.0142770243 239.124811894 -13.9850922298 c 0
 229.273402641 -8.95590743535 229.273402641 -8.95590743535 220.856361612 -1.47409318684 c 0
 207.838699185 10.0971623038 207.838699185 10.0971623038 201.419349592 26.9305410334 c 0
 195 43.7639197629 195 43.7639197629 195 65 c 0
 195 118.307301433 195 118.307301433 225.629886176 147.266466545 c 0
 256.021123484 176 256.021123484 176 298 176 c 0
 334.748747443 176 334.748747443 176 361.07368752 153.035690572 c 0
 388 129.546779685 388 129.546779685 388 84 c 0
 388 59.8778554955 388 59.8778554955 379.138115486 39.9386153395 c 0
 374.763580088 30.0959106933 374.763580088 30.0959106933 368.825094011 21.5334833094 c 0
 362.886607933 12.9710559254 362.886607933 12.9710559254 355.436416871 5.79679786509 c 0
 350.501263977 1.0444284121 350.501263977 1.0444284121 345.110244734 -2.99730449478 c 0
 339.719225492 -7.03903740165 339.719225492 -7.03903740165 333.883672702 -10.358075281 c 0
 328.048119912 -13.6771131603 328.048119912 -13.6771131603 321.807498053 -16.2467809847 c 0
 302.978251873 -24 302.978251873 -24 283 -24 c 0
EndSplineSet
EndChar

StartChar: slash
Encoding: 47 47 18
Width: 588
VWidth: 1177
Flags: W
LayerCount: 2
Fore
SplineSet
79 -204 m 1
 -20 -204 l 1
 -37.1268780112 -204 l 1
 -28.7086569397 -189.084789495 l 1
 545.29134306 827.915210505 l 1
 548.16122425 833 l 1
 554 833 l 1
 651 833 l 1
 668.097559013 833 l 1
 659.715984242 818.097794507 l 1
 87.7159842419 -198.902205493 l 1
 84.848788118 -204 l 1
 79 -204 l 1
EndSplineSet
Substitution2: "'case' Case-Sensitive Forms lookup 17 subtable" Slash
Substitution2: "'ss02' Style Set 2 lookup 14 subtable" fraction
Substitution2: "'frac' Diagonal Fractions lookup 12 subtable" fraction
EndChar

StartChar: zero
Encoding: 48 48 19
Width: 628
VWidth: 1177
Flags: W
LayerCount: 2
Fore
SplineSet
612.920898438 689.099609375 m 0,0,1
 657 633.366210938 657 633.366210938 657 522.864257812 c 0,2,3
 657 509.981445312 657 509.981445312 656.397460938 496.6171875 c 128,-1,4
 655.793945312 483.252929688 655.793945312 483.252929688 654.58984375 469.420898438 c 128,-1,5
 653.384765625 455.588867188 653.384765625 455.588867188 651.58203125 441.291015625 c 128,-1,6
 649.779296875 426.994140625 649.779296875 426.994140625 647.376953125 412.208984375 c 0,7,8
 642.572265625 382.638671875 642.572265625 382.638671875 635.494140625 352.8359375 c 128,-1,9
 628.416992188 323.034179688 628.416992188 323.034179688 619.069335938 293.002929688 c 0,10,11
 600.307617188 232.723632812 600.307617188 232.723632812 571.395507812 177.86328125 c 0,12,13
 542.309570312 122.672851562 542.309570312 122.672851562 501.203741086 80.3291015625 c 0,14,15
 487.290615824 66.12109375 487.290615824 66.12109375 472.070692638 53.7314453125 c 128,-1,16
 456.850769453 41.341796875 456.850769453 41.341796875 440.318837825 30.7734375 c 128,-1,17
 423.786906198 20.2041015625 423.786906198 20.2041015625 405.984650273 11.490234375 c 0,18,19
 351.868209941 -15 351.868209941 -15 287.295302013 -15 c 0,20,21
 188.081054688 -15 188.081054688 -15 143.079101562 41.900390625 c 0,22,23
 99 97.6337890625 99 97.6337890625 99 207.161132812 c 0,24,25
 99 258.58984375 99 258.58984375 108.62109375 318.291992188 c 0,26,27
 113.426757812 348.115234375 113.426757812 348.115234375 120.508789062 377.810546875 c 128,-1,28
 127.58984375 407.504882812 127.58984375 407.504882812 136.944335938 437.065429688 c 0,29,30
 155.697265625 496.330078125 155.697265625 496.330078125 184.587890625 551.643554688 c 0,31,32
 213.6796875 607.342773438 213.6796875 607.342773438 255.335026479 650.188476562 c 0,33,34
 297.640264524 693.33203125 297.640264524 693.33203125 349.933023542 719.46875 c 0,35,36
 403.015697095 746 403.015697095 746 468.704697987 746 c 0,37,38
 567.918945312 746 567.918945312 746 612.920898438 689.099609375 c 0,0,1
519.647932833 367.599609375 m 128,-1,40
 538 442.302734375 538 442.302734375 538 509.745117188 c 0,41,42
 538 546.643554688 538 546.643554688 533.285942743 572.756835938 c 128,-1,43
 528.504771393 598.87109375 528.504771393 598.87109375 519.688574874 613.08984375 c 0,44,45
 511.383009123 626.484375 511.383009123 626.484375 495.872339031 633.2421875 c 128,-1,46
 480.360626835 640 480.360626835 640 455.899328859 640 c 0,47,48
 408.067815384 640 408.067815384 640 365.848029834 601.376953125 c 0,49,50
 351.197095218 587.974609375 351.197095218 587.974609375 337.724779782 572.151367188 c 128,-1,51
 324.251422242 556.328125 324.251422242 556.328125 311.885820837 537.959960938 c 128,-1,52
 299.520219432 519.591796875 299.520219432 519.591796875 288.3603319 498.782226562 c 0,53,54
 271.565790164 467.462890625 271.565790164 467.462890625 258.561379247 433.2578125 c 128,-1,55
 245.556968331 399.051757812 245.556968331 399.051757812 236.348940856 361.940429688 c 0,56,57
 218 287.725585938 218 287.725585938 218 221.254882812 c 0,58,59
 218 184.384765625 218 184.384765625 222.959993708 158.3359375 c 128,-1,60
 227.986059406 132.286132812 227.986059406 132.286132812 237.257655201 118.099609375 c 0,61,62
 254.968206009 91 254.968206009 91 300.100671141 91 c 0,63,64
 347.968658242 91 347.968658242 91 390.729295564 129.662109375 c 0,65,66
 412.984460203 149.78515625 412.984460203 149.78515625 432.35299785 175.171875 c 128,-1,67
 451.721535497 200.55859375 451.721535497 200.55859375 468.172183043 231.251953125 c 0,68,39
 501.244383127 292.956054688 501.244383127 292.956054688 519.647932833 367.599609375 c 128,-1,40
407.843763108 298.38671875 m 128,-1,70
 391.183652737 292 391.183652737 292 372.66442953 292 c 0,71,72
 339.701650325 292 339.701650325 292 317.433980443 311.12890625 c 0,73,74
 294.765100671 330.600585938 294.765100671 330.600585938 294.765100671 369 c 0,75,76
 294.765100671 380.001953125 294.765100671 380.001953125 296.456434826 389.959960938 c 128,-1,77
 298.147768981 399.916992188 298.147768981 399.916992188 301.55336357 408.866210938 c 128,-1,78
 304.958958159 417.815429688 304.958958159 417.815429688 310.1996972 425.666015625 c 128,-1,79
 315.441478345 433.517578125 315.441478345 433.517578125 322.433993551 440.071289062 c 0,80,81
 336.043866663 452.825195312 336.043866663 452.825195312 352.24336724 459.412109375 c 128,-1,82
 368.442867817 466 368.442867817 466 386.536912752 466 c 0,83,84
 419.605986525 466 419.605986525 466 443.502464346 444.754882812 c 0,85,86
 467.637583893 423.296875 467.637583893 423.296875 467.637583893 385 c 0,87,88
 467.637583893 379.102539062 467.637583893 379.102539062 467.052963769 373.486328125 c 128,-1,89
 466.468343645 367.870117188 466.468343645 367.870117188 465.290766569 362.524414062 c 128,-1,90
 464.112147389 357.1796875 464.112147389 357.1796875 462.350992292 352.153320312 c 128,-1,91
 460.589837196 347.127929688 460.589837196 347.127929688 458.220093593 342.401367188 c 128,-1,92
 455.851392093 337.674804688 455.851392093 337.674804688 452.901196781 333.3046875 c 128,-1,93
 449.951001468 328.934570312 449.951001468 328.934570312 446.378670302 324.893554688 c 128,-1,94
 442.806339136 320.852539062 442.806339136 320.852539062 438.654598364 317.205078125 c 0,95,69
 424.504915583 304.7734375 424.504915583 304.7734375 407.843763108 298.38671875 c 128,-1,70
EndSplineSet
Substitution2: "'ss02' Style Set 2 lookup 15 subtable" zerosuperior
Substitution2: "'sinf' Scientific Inferiors lookup 11 subtable" zero.sinf
Substitution2: "'subs' Subscript lookup 10 subtable" zero.sinf
Substitution2: "'sups' Superscript lookup 9 subtable" zero.sups
Substitution2: "'dnom' Denominators lookup 8 subtable" zeroinferior
Substitution2: "'numr' Numerators lookup 6 subtable" zerosuperior
EndChar

StartChar: one
Encoding: 49 49 20
Width: 628
VWidth: 1177
Flags: W
LayerCount: 2
Fore
SplineSet
214.1640625 574.43359375 m 1,0,-1
 222.314453125 577.397460938 l 2,1,2
 293.106496739 601.12890625 293.106496739 601.12890625 363.38906936 636.748046875 c 0,3,4
 398.318510091 654.44921875 398.318510091 654.44921875 431.944860378 676.850585938 c 128,-1,5
 465.388671875 699.250976562 465.388671875 699.250976562 494.974609375 726.37109375 c 2,6,-1
 497.842773438 729 l 1,7,-1
 501.732421875 729 l 1,8,-1
 570.732421875 729 l 1,9,-1
 583.411132812 729 l 1,10,-1
 580.45703125 716.669921875 l 1,11,-1
 425.161532892 82 l 1,12,-1
 551.732421875 82 l 1,13,-1
 564.463867188 82 l 1,14,-1
 561.447265625 72.251953125 l 1,15,-1
 541.447265625 7.630859375 l 1,16,-1
 539.5859375 0 l 1,17,-1
 531.732421875 0 l 1,18,-1
 120.732421875 0 l 1,19,-1
 108 0 l 1,20,-1
 111.016601562 9.9443359375 l 1,21,-1
 131.016601562 75.8662109375 l 1,22,-1
 132.877929688 82 l 1,23,-1
 140.732421875 82 l 1,24,-1
 296.675321017 82 l 1,25,-1
 419.107124958 550.66015625 l 1,26,27
 412.08793917 546.563476562 412.08793917 546.563476562 404.258724186 542.370117188 c 0,28,29
 381.584310126 530.224609375 381.584310126 530.224609375 355.622821073 518.09375 c 128,-1,30
 329.543936485 505.908203125 329.543936485 505.908203125 301.264419222 495.252929688 c 0,31,32
 287.103315948 489.91796875 287.103315948 489.91796875 273.610299994 485.462890625 c 128,-1,33
 260.118351272 481.0078125 260.118351272 481.0078125 247.281683085 477.43359375 c 2,34,-1
 235.856963019 474.251953125 l 1,35,-1
 233.40446356 484.946289062 l 1,36,-1
 215.9453125 565.946289062 l 1,37,-1
 214.1640625 574.43359375 l 1,0,-1
EndSplineSet
Substitution2: "'ss02' Style Set 2 lookup 15 subtable" onesuperior
Substitution2: "'sinf' Scientific Inferiors lookup 11 subtable" one.sinf
Substitution2: "'subs' Subscript lookup 10 subtable" one.sinf
Substitution2: "'sups' Superscript lookup 9 subtable" one.sups
Substitution2: "'dnom' Denominators lookup 8 subtable" oneinferior
Substitution2: "'numr' Numerators lookup 6 subtable" onesuperior
EndChar

StartChar: two
Encoding: 50 50 21
Width: 628
VWidth: 1177
Flags: W
LayerCount: 2
Fore
SplineSet
647.422851562 634.853515625 m 0,0,1
 658.501953125 603.7265625 658.501953125 603.7265625 658.501953125 571 c 0,2,3
 658.501953125 552.09765625 658.501953125 552.09765625 656.493164062 534.580078125 c 128,-1,4
 654.485351562 517.063476562 654.485351562 517.063476562 650.422851562 500.797851562 c 128,-1,5
 646.359375 484.533203125 646.359375 484.533203125 640.248046875 469.692382812 c 0,6,7
 631.205078125 447.729492188 631.205078125 447.729492188 618.91796875 427.553710938 c 128,-1,8
 606.631835938 407.377929688 606.631835938 407.377929688 591.139648438 389.044921875 c 0,9,10
 560.465820312 352.748046875 560.465820312 352.748046875 517.921021282 320.606445312 c 0,11,12
 496.34561084 304.819335938 496.34561084 304.819335938 473.553573135 288.64453125 c 128,-1,13
 450.761535429 272.469726562 450.761535429 272.469726562 426.816193211 255.950195312 c 0,14,15
 422.071139269 252.643554688 422.071139269 252.643554688 417.258610265 249.248046875 c 128,-1,16
 412.446081262 245.852539062 412.446081262 245.852539062 407.56919143 242.370117188 c 128,-1,17
 402.693339677 238.888671875 402.693339677 238.888671875 397.753127095 235.3203125 c 128,-1,18
 392.812914514 231.750976562 392.812914514 231.750976562 387.81560765 228.100585938 c 128,-1,19
 382.817262707 224.450195312 382.817262707 224.450195312 377.757671171 220.713867188 c 128,-1,20
 372.699117712 216.978515625 372.699117712 216.978515625 367.587622282 213.165039062 c 0,21,22
 337.067094838 190.39453125 337.067094838 190.39453125 309.201970584 166.157226562 c 0,23,24
 281.693945117 142.231445312 281.693945117 142.231445312 260.982215462 116.903320312 c 0,25,26
 246.697225898 99.4326171875 246.697225898 99.4326171875 238.258690896 82 c 1,27,-1
 558.501953125 82 l 1,28,-1
 571.384765625 82 l 1,29,-1
 568.188476562 72.1611328125 l 1,30,-1
 547.188476562 7.51953125 l 1,31,-1
 545.263671875 -0 l 1,32,-1
 537.438961387 0 l 1,33,-1
 92.501953125 0 l 1,34,-1
 81 0 l 1,35,-1
 82.5986328125 11.044921875 l 2,36,37
 90.81640625 67.82421875 90.81640625 67.82421875 112.997070312 112.344726562 c 0,38,39
 134.98828125 156.483398438 134.98828125 156.483398438 165.692382812 193.703125 c 0,40,41
 180.967773438 212.219726562 180.967773438 212.219726562 197.899414062 229.379882812 c 0,42,43
 215.702296867 246.5390625 215.702296867 246.5390625 235.450690259 262.333984375 c 0,44,45
 274.571692853 293.623046875 274.571692853 293.623046875 316.336679781 321.955078125 c 0,46,47
 323.581425233 326.952148438 323.581425233 326.952148438 330.764924091 331.904296875 c 128,-1,48
 337.948422949 336.85546875 337.948422949 336.85546875 345.062370589 341.7578125 c 128,-1,49
 352.177356308 346.659179688 352.177356308 346.659179688 359.224866965 351.51171875 c 128,-1,50
 366.272377621 356.36328125 366.272377621 356.36328125 373.244108594 361.16015625 c 128,-1,51
 380.214801488 365.95703125 380.214801488 365.95703125 387.112828932 370.701171875 c 128,-1,52
 394.011894453 375.444335938 394.011894453 375.444335938 400.826875667 380.126953125 c 0,53,54
 441.120906254 407.81640625 441.120906254 407.81640625 471.925867035 436.395507812 c 0,55,56
 502.22216966 464.501953125 502.22216966 464.501953125 520.107213275 494.802734375 c 0,57,58
 524.443264537 502.149414062 524.443264537 502.149414062 527.687257879 509.833984375 c 128,-1,59
 530.931251222 517.518554688 530.931251222 517.518554688 533.101872047 525.599609375 c 128,-1,60
 535.272492873 533.6796875 535.272492873 533.6796875 536.355208091 542.16015625 c 128,-1,61
 537.438961387 550.639648438 537.438961387 550.639648438 537.438961387 559.541992188 c 0,62,63
 537.438961387 598.368164062 537.438961387 598.368164062 515.342435854 619.811523438 c 0,64,65
 493.510620178 641 493.510620178 641 441.769704923 641 c 0,66,67
 412.484490143 641 412.484490143 641 385.26193609 633.412109375 c 0,68,69
 375.962834534 630.8203125 375.962834534 630.8203125 367.359245151 627.959960938 c 128,-1,70
 358.756693845 625.099609375 358.756693845 625.099609375 350.926472475 622.002929688 c 128,-1,71
 343.096251104 618.90625 343.096251104 618.90625 335.971922685 615.555664062 c 0,72,73
 331.640023735 613.518554688 331.640023735 613.518554688 327.516778437 611.442382812 c 128,-1,74
 323.392495061 609.366210938 323.392495061 609.366210938 319.49970305 607.265625 c 128,-1,75
 315.606911039 605.1640625 315.606911039 605.1640625 311.923810758 603.028320312 c 128,-1,76
 308.241748554 600.891601562 308.241748554 600.891601562 304.787025404 598.731445312 c 128,-1,77
 301.333340332 596.572265625 301.333340332 596.572265625 298.091423145 594.379882812 c 128,-1,78
 294.836010946 592.178710938 294.836010946 592.178710938 291.854651304 590.024414062 c 128,-1,79
 288.872253585 587.870117188 288.872253585 587.870117188 286.240726186 585.82421875 c 128,-1,80
 283.609198786 583.77734375 283.609198786 583.77734375 281.266257034 581.797851562 c 128,-1,81
 278.922277205 579.818359375 278.922277205 579.818359375 276.918786916 577.953125 c 128,-1,82
 274.915296628 576.088867188 274.915296628 576.088867188 273.213887 574.310546875 c 2,83,-1
 262.282927033 562.883789062 l 1,84,-1
 255.609124409 576.916015625 l 1,85,-1
 219.4674053 652.916015625 l 1,86,-1
 216.478779114 659.202148438 l 1,87,-1
 221.654635372 664.071289062 l 2,88,89
 229.61254032 671.557617188 229.61254032 671.557617188 239.656981787 678.775390625 c 128,-1,90
 249.701423253 685.993164062 249.701423253 685.993164062 261.879114741 693.0234375 c 0,91,92
 285.99470173 706.944335938 285.99470173 706.944335938 316.549485745 718.75 c 128,-1,93
 347.081432046 730.546875 347.081432046 730.546875 381.374334469 738.228515625 c 0,94,95
 416.07208726 746 416.07208726 746 454.525605785 746 c 0,96,97
 465.693247506 746 465.693247506 746 476.212090559 745.404296875 c 128,-1,98
 486.729895534 744.80859375 486.729895534 744.80859375 496.701671549 743.6015625 c 128,-1,99
 506.674485643 742.393554688 506.674485643 742.393554688 516.000577223 740.576171875 c 128,-1,100
 525.326668804 738.758789062 525.326668804 738.758789062 534.091160257 736.306640625 c 0,101,102
 542.596679688 733.853515625 542.596679688 733.853515625 550.237304688 730.775390625 c 0,103,104
 588.18359375 715.4921875 588.18359375 715.4921875 612.149414062 690.993164062 c 0,105,106
 624.126953125 678.749023438 624.126953125 678.749023438 632.970703125 664.680664062 c 128,-1,107
 641.813476562 650.612304688 641.813476562 650.612304688 647.422851562 634.853515625 c 0,0,1
EndSplineSet
Substitution2: "'ss02' Style Set 2 lookup 15 subtable" twosuperior
Substitution2: "'sinf' Scientific Inferiors lookup 11 subtable" two.sinf
Substitution2: "'subs' Subscript lookup 10 subtable" two.sinf
Substitution2: "'sups' Superscript lookup 9 subtable" two.sups
Substitution2: "'dnom' Denominators lookup 8 subtable" twoinferior
Substitution2: "'numr' Numerators lookup 6 subtable" twosuperior
EndChar

StartChar: three
Encoding: 51 51 22
Width: 628
VWidth: 1177
Flags: W
LayerCount: 2
Fore
SplineSet
175.904296875 105.759765625 m 0,0,1
 213.422031255 91 213.422031255 91 277.259508405 91 c 0,2,3
 320.486867079 91 320.486867079 91 357.917143206 100.270507812 c 0,4,5
 394.758677473 109.395507812 394.758677473 109.395507812 421.307093475 127.509765625 c 0,6,7
 434.415166206 136.453125 434.415166206 136.453125 444.48607855 147.556640625 c 128,-1,8
 454.555952548 158.659179688 454.555952548 158.659179688 461.732996173 172.08203125 c 0,9,10
 476.090198459 198.9375 476.090198459 198.9375 476.090198459 235.186523438 c 0,11,12
 476.090198459 249.123046875 476.090198459 249.123046875 473.386346954 260.872070312 c 128,-1,13
 470.68249545 272.62109375 470.68249545 272.62109375 465.229105242 282.314453125 c 128,-1,14
 459.776753379 292.0078125 459.776753379 292.0078125 451.71192441 299.734375 c 128,-1,15
 443.646057095 307.4609375 443.646057095 307.4609375 432.772503733 313.510742188 c 0,16,17
 410.100231229 326.124023438 410.100231229 326.124023438 379.204262904 332.5625 c 128,-1,18
 348.308294579 339 348.308294579 339 309.157480072 339 c 2,19,-1
 286.828899905 339 l 1,20,-1
 273.501736287 339 l 1,21,-1
 276.462059114 351.221679688 l 1,22,-1
 295.600842113 430.221679688 l 1,23,-1
 297.485439072 438 l 1,24,-1
 305.967682905 438 l 1,25,-1
 339.992186016 438 l 2,26,27
 374.740415893 438 374.740415893 438 409.003738453 446.252929688 c 0,28,29
 425.967187773 450.338867188 425.967187773 450.338867188 441.062653661 456.541992188 c 128,-1,30
 456.158119549 462.744140625 456.158119549 462.744140625 469.472823022 471.078125 c 0,31,32
 495.823953391 487.571289062 495.823953391 487.571289062 512.206967615 511.606445312 c 0,33,34
 517.529526298 519.415039062 517.529526298 519.415039062 521.069245876 527.951171875 c 128,-1,35
 524.607927107 536.487304688 524.607927107 536.487304688 526.399072977 545.94140625 c 128,-1,36
 528.126953125 555.395507812 528.126953125 555.395507812 528.126953125 565.73828125 c 0,37,38
 528.126953125 578.9609375 528.126953125 578.9609375 525.310886965 589.706054688 c 128,-1,39
 522.431555082 600.451171875 522.431555082 600.451171875 516.963628038 608.547851562 c 128,-1,40
 511.495700994 616.64453125 511.495700994 616.64453125 503.308347264 622.760742188 c 0,41,42
 490.637417959 632.227539062 490.637417959 632.227539062 472.230668489 637.11328125 c 128,-1,43
 453.823919018 642 453.823919018 642 429.306506682 642 c 0,44,45
 417.789179151 642 417.789179151 642 406.849171682 641.131835938 c 128,-1,46
 395.910202557 640.262695312 395.910202557 640.262695312 385.576588819 638.530273438 c 128,-1,47
 375.242975082 636.798828125 375.242975082 636.798828125 365.505371622 634.219726562 c 128,-1,48
 355.767768162 631.640625 355.767768162 631.640625 346.576334399 628.206054688 c 0,49,50
 327.627568613 621.126953125 327.627568613 621.126953125 311.476105421 613.470703125 c 128,-1,51
 295.324642229 605.814453125 295.324642229 605.814453125 282.015130483 597.629882812 c 2,52,-1
 270.087656508 590.294921875 l 1,53,-1
 266.009035651 603.137695312 l 1,54,-1
 241.55392404 680.137695312 l 1,55,-1
 239.264372363 687.344726562 l 1,56,-1
 245.991812416 691.412109375 l 2,57,58
 253.776288119 696.118164062 253.776288119 696.118164062 263.095438369 700.887695312 c 128,-1,59
 272.415626966 705.65625 272.415626966 705.65625 283.330714145 710.533203125 c 0,60,61
 305.271991466 720.334960938 305.271991466 720.334960938 331.504750456 728.044921875 c 0,62,63
 344.570251025 731.884765625 344.570251025 731.884765625 358.294062598 735.080078125 c 128,-1,64
 372.01787417 738.274414062 372.01787417 738.274414062 386.399996747 740.826171875 c 128,-1,65
 400.973174883 743.413085938 400.973174883 743.413085938 415.690683034 744.706054688 c 128,-1,66
 430.40922953 746 430.40922953 746 445.255492515 746 c 0,67,68
 499.172617409 746 499.172617409 746 537.948242188 733.268554688 c 0,69,70
 575.537109375 720.374023438 575.537109375 720.374023438 600.120117188 696.9453125 c 128,-1,71
 624.7734375 673.44921875 624.7734375 673.44921875 636.047851562 642.586914062 c 0,72,73
 647.126953125 612.26171875 647.126953125 612.26171875 647.126953125 577.456054688 c 0,74,75
 647.126953125 567.171875 647.126953125 567.171875 646.268554688 557.322265625 c 128,-1,76
 645.409179688 547.471679688 645.409179688 547.471679688 643.685546875 538.044921875 c 128,-1,77
 641.961914062 528.6171875 641.961914062 528.6171875 639.379882812 519.6484375 c 128,-1,78
 636.797851562 510.6796875 636.797851562 510.6796875 633.341796875 502.151367188 c 128,-1,79
 629.884765625 493.623046875 629.884765625 493.623046875 625.571289062 485.578125 c 128,-1,80
 621.2578125 477.533203125 621.2578125 477.533203125 616.060546875 469.947265625 c 128,-1,81
 610.86328125 462.361328125 610.86328125 462.361328125 604.809570312 455.284179688 c 0,82,83
 569.609375 414.131835938 569.609375 414.131835938 511.261034926 387.883789062 c 1,84,85
 514.732223705 386.030273438 514.732223705 386.030273438 517.896062236 384.184570312 c 128,-1,86
 521.059900767 382.338867188 521.059900767 382.338867188 524.065910792 380.420898438 c 128,-1,87
 527.072959163 378.50390625 527.072959163 378.50390625 530.126953125 376.274414062 c 0,88,89
 539.75 369.243164062 539.75 369.243164062 548.288085938 360.665039062 c 128,-1,90
 556.826171875 352.086914062 556.826171875 352.086914062 564.250976562 342.01171875 c 0,91,92
 579.100585938 321.861328125 579.100585938 321.861328125 588.577148438 295.189453125 c 0,93,94
 593.370117188 281.698242188 593.370117188 281.698242188 595.749023438 266.765625 c 128,-1,95
 598.126953125 251.83203125 598.126953125 251.83203125 598.126953125 235.49609375 c 0,96,97
 598.126953125 224.427734375 598.126953125 224.427734375 597.319335938 213.701171875 c 128,-1,98
 596.51171875 202.973632812 596.51171875 202.973632812 594.889648438 192.569335938 c 128,-1,99
 593.268554688 182.165039062 593.268554688 182.165039062 590.836914062 172.1171875 c 128,-1,100
 588.405273438 162.069335938 588.405273438 162.069335938 585.15234375 152.353515625 c 128,-1,101
 581.899414062 142.638671875 581.899414062 142.638671875 577.833984375 133.294921875 c 0,102,103
 567.65234375 109.895507812 567.65234375 109.895507812 552.709960938 89.84765625 c 128,-1,104
 537.768554688 69.798828125 537.768554688 69.798828125 517.610517242 53.2568359375 c 0,105,106
 476.062163132 20.263671875 476.062163132 20.263671875 414.403134698 2.6083984375 c 0,107,108
 383.764676041 -6.1650390625 383.764676041 -6.1650390625 348.688329007 -10.5244140625 c 128,-1,109
 313.611981974 -15 313.611981974 -15 274.069711239 -15 c 0,110,111
 264.064214657 -15 264.064214657 -15 254.458481067 -14.7138671875 c 128,-1,112
 244.853785823 -14.427734375 244.853785823 -14.427734375 235.624971624 -13.853515625 c 128,-1,113
 226.395119081 -13.2802734375 226.395119081 -13.2802734375 217.546339311 -12.4150390625 c 128,-1,114
 208.69755954 -11.55078125 208.69755954 -11.55078125 200.240235998 -10.396484375 c 0,115,116
 167.999023438 -5.7958984375 167.999023438 -5.7958984375 143.327148438 1.400390625 c 128,-1,117
 118.762695312 8.564453125 118.762695312 8.564453125 101.721679688 15.7939453125 c 0,118,119
 83.861328125 23.37109375 83.861328125 23.37109375 76.7255859375 29.3173828125 c 2,120,-1
 71 34.0888671875 l 1,121,-1
 73.935546875 40.939453125 l 1,122,-1
 109.935546875 124.939453125 l 1,123,-1
 114.448242188 135.46875 l 1,124,-1
 124.272460938 129.575195312 l 2,125,126
 138.614257812 120.969726562 138.614257812 120.969726562 175.904296875 105.759765625 c 0,0,1
EndSplineSet
Substitution2: "'ss02' Style Set 2 lookup 15 subtable" threesuperior
Substitution2: "'sinf' Scientific Inferiors lookup 11 subtable" three.sinf
Substitution2: "'subs' Subscript lookup 10 subtable" three.sinf
Substitution2: "'sups' Superscript lookup 9 subtable" three.sups
Substitution2: "'dnom' Denominators lookup 8 subtable" threeinferior
Substitution2: "'numr' Numerators lookup 6 subtable" threesuperior
EndChar

StartChar: four
Encoding: 52 52 23
Width: 628
VWidth: 1177
Flags: W
LayerCount: 2
Fore
SplineSet
588.713867188 176 m 1,0,-1
 510.712390543 176 l 1,1,-1
 467.00907336 7.748046875 l 1,2,-1
 465.109649603 -0 l 1,3,-1
 456.676166693 0 l 1,4,-1
 354.865396221 0 l 1,5,-1
 341.388187194 0 l 1,6,-1
 344.557345699 11.6875 l 1,7,-1
 389.111985853 176 l 1,8,-1
 69.7138671875 176 l 1,9,-1
 57 176 l 1,10,-1
 59.9951171875 188.135742188 l 1,11,-1
 75.9951171875 252.958984375 l 1,12,-1
 76.34765625 254.384765625 l 1,13,-1
 77.1083984375 255.647460938 l 2,14,15
 106.38671875 304.235351562 106.38671875 304.235351562 154.713867188 367.5234375 c 0,16,17
 178.959492775 399.127929688 178.959492775 399.127929688 207.205394702 430.963867188 c 128,-1,18
 235.452332303 462.799804688 235.452332303 462.799804688 266.352663396 494.870117188 c 0,19,20
 328.168860673 559.029296875 328.168860673 559.029296875 397.421188037 619.7109375 c 128,-1,21
 466.776046999 680.483398438 466.776046999 680.483398438 532.672851562 726.96875 c 2,22,-1
 535.3515625 729 l 1,23,-1
 538.713867188 729 l 1,24,-1
 634.713867188 729 l 1,25,-1
 647.420898438 729 l 1,26,-1
 644.43359375 716.916015625 l 1,27,-1
 535.420898438 276 l 1,28,-1
 607.713867188 276 l 1,29,-1
 620.3671875 276 l 1,30,-1
 617.443359375 263.689453125 l 1,31,-1
 598.443359375 183.689453125 l 1,32,-1
 596.6171875 176 l 1,33,-1
 588.713867188 176 l 1,0,-1
415.418072787 276 m 1,34,-1
 491.802042459 579.2109375 l 1,35,36
 463.252688427 555.375976562 463.252688427 555.375976562 433.856154114 528.340820312 c 0,37,38
 391.132583318 489.05078125 391.132583318 489.05078125 348.925813206 445.2734375 c 128,-1,39
 306.779112112 401.557617188 306.779112112 401.557617188 267.783963087 354.354492188 c 0,40,41
 235.319766195 315.056640625 235.319766195 315.056640625 208.644979775 276 c 1,42,-1
 415.418072787 276 l 1,34,-1
EndSplineSet
Substitution2: "'ss02' Style Set 2 lookup 15 subtable" foursuperior
Substitution2: "'sinf' Scientific Inferiors lookup 11 subtable" four.sinf
Substitution2: "'subs' Subscript lookup 10 subtable" four.sinf
Substitution2: "'sups' Superscript lookup 9 subtable" four.sups
Substitution2: "'dnom' Denominators lookup 8 subtable" fourinferior
Substitution2: "'numr' Numerators lookup 6 subtable" foursuperior
EndChar

StartChar: five
Encoding: 53 53 24
Width: 628
VWidth: 1177
Flags: W
LayerCount: 2
Fore
SplineSet
662.370117188 647 m 1,0,-1
 408.028195222 647 l 1,1,2
 401.382876389 628.016601562 401.382876389 628.016601562 393.575090099 605.389648438 c 0,3,4
 384.059125324 577.811523438 384.059125324 577.811523438 374.014953459 550.234375 c 128,-1,5
 364.016085905 522.782226562 364.016085905 522.782226562 355.073632532 497.337890625 c 0,6,7
 348.997706527 480.05078125 348.997706527 480.05078125 344.516698228 466.353515625 c 1,8,9
 374.673925267 462.25390625 374.673925267 462.25390625 400.991611878 456.198242188 c 128,-1,10
 427.309298488 450.142578125 427.309298488 450.142578125 450.217835631 441.9921875 c 128,-1,11
 473.125343132 433.842773438 473.125343132 433.842773438 492.508381099 423.536132812 c 128,-1,12
 511.891419066 413.228515625 511.891419066 413.228515625 527.864277923 400.708007812 c 0,13,14
 550.390817346 383.051757812 550.390817346 383.051757812 565.4678864 360.284179688 c 0,15,16
 580.205078125 337.516601562 580.205078125 337.516601562 587.288085938 310.1875 c 128,-1,17
 594.370117188 282.858398438 594.370117188 282.858398438 594.370117188 251 c 0,18,19
 594.370117188 243.044921875 594.370117188 243.044921875 593.990234375 235.239257812 c 128,-1,20
 593.610351562 227.432617188 593.610351562 227.432617188 592.849609375 219.767578125 c 128,-1,21
 592.088867188 212.102539062 592.088867188 212.102539062 590.948242188 204.58984375 c 128,-1,22
 589.806640625 197.077148438 589.806640625 197.077148438 588.282226562 189.708984375 c 128,-1,23
 586.7578125 182.340820312 586.7578125 182.340820312 584.852539062 175.129882812 c 128,-1,24
 582.948242188 167.918945312 582.948242188 167.918945312 580.657226562 160.85546875 c 128,-1,25
 578.3671875 153.791992188 578.3671875 153.791992188 575.696289062 146.889648438 c 0,26,27
 570.831299137 134.739257812 570.831299137 134.739257812 564.510317991 123.345703125 c 128,-1,28
 558.189336845 111.951171875 558.189336845 111.951171875 550.529819212 101.3515625 c 128,-1,29
 542.871331222 90.7509765625 542.871331222 90.7509765625 533.879454964 80.9423828125 c 128,-1,30
 524.886549062 71.1337890625 524.886549062 71.1337890625 514.579818116 62.140625 c 0,31,32
 493.927229774 44.119140625 493.927229774 44.119140625 467.666173554 29.9794921875 c 128,-1,33
 441.405117333 15.83984375 441.405117333 15.83984375 409.634439006 5.5380859375 c 0,34,35
 388.417606053 -1.341796875 388.417606053 -1.341796875 364.679176287 -5.912109375 c 128,-1,36
 340.941776166 -10.4814453125 340.941776166 -10.4814453125 314.874292914 -12.7412109375 c 128,-1,37
 288.805780019 -15 288.805780019 -15 260.195077443 -15 c 0,38,39
 223.459458395 -15 223.459458395 -15 191.481821734 -9.859375 c 0,40,41
 161.248046875 -4.783203125 161.248046875 -4.783203125 136.305664062 1.833984375 c 0,42,43
 123.745117188 5.1669921875 123.745117188 5.1669921875 113.45703125 8.5107421875 c 128,-1,44
 103.168945312 11.853515625 103.168945312 11.853515625 95.0029296875 15.2783203125 c 0,45,46
 86.330078125 18.9150390625 86.330078125 18.9150390625 80.9970703125 21.63671875 c 128,-1,47
 75.6640625 24.3583984375 75.6640625 24.3583984375 72.123046875 27.19140625 c 2,48,-1
 66 32.08984375 l 1,49,-1
 69.296875 39.205078125 l 1,50,-1
 107.296875 121.205078125 l 1,51,-1
 111.974609375 131.298828125 l 1,52,-1
 121.514648438 125.575195312 l 2,53,54
 128.34375 121.477539062 128.34375 121.477539062 140.8671875 115.950195312 c 128,-1,55
 153.389648438 110.422851562 153.389648438 110.422851562 170.881835938 103.86328125 c 0,56,57
 206.226315953 91 206.226315953 91 266.521206807 91 c 0,58,59
 309.289506835 91 309.289506835 91 347.374988448 101.26953125 c 0,60,61
 385.097005923 111.442382812 385.097005923 111.442382812 412.574071059 130.271484375 c 0,62,63
 419.364569619 134.924804688 419.364569619 134.924804688 425.386954165 140.08984375 c 128,-1,64
 431.40933871 145.254882812 431.40933871 145.254882812 436.686261397 150.952148438 c 128,-1,65
 441.96215444 156.649414062 441.96215444 156.649414062 446.495674556 162.877929688 c 128,-1,66
 451.029194671 169.106445312 451.029194671 169.106445312 454.846082944 175.897460938 c 0,67,68
 459.886187637 184.866210938 459.886187637 184.866210938 463.246943862 194.616210938 c 128,-1,69
 466.607700086 204.366210938 466.607700086 204.366210938 468.309700711 215.067382812 c 128,-1,70
 470.011701335 225.768554688 470.011701335 225.768554688 470.011701335 237.357421875 c 0,71,72
 470.011701335 280.991210938 470.011701335 280.991210938 444.95738724 305.328125 c 0,73,74
 418.72927961 330.803710938 418.72927961 330.803710938 380.479055045 343.58984375 c 0,75,76
 360.863317658 350.147460938 360.863317658 350.147460938 339.398340632 354.375976562 c 128,-1,77
 317.933363607 358.604492188 317.933363607 358.604492188 294.592376214 360.490234375 c 0,78,79
 246.658354991 364.364257812 246.658354991 364.364257812 206.647440125 367.267578125 c 2,80,-1
 192.688563858 368.28125 l 1,81,-1
 197.605111337 380.333984375 l 2,82,83
 216.549521194 426.775390625 216.549521194 426.775390625 232.853925243 469.322265625 c 128,-1,84
 249.161418221 511.879882812 249.161418221 511.879882812 263.887378859 552.974609375 c 128,-1,85
 278.608191279 594.0546875 278.608191279 594.0546875 292.276708093 635.619140625 c 0,86,87
 299.100155243 656.366210938 299.100155243 656.366210938 305.662072957 677.842773438 c 128,-1,88
 312.225020314 699.319335938 312.225020314 699.319335938 318.526438235 721.524414062 c 2,89,-1
 320.582636207 729 l 1,90,-1
 328.728145549 729 l 1,91,-1
 681.370117188 729 l 1,92,-1
 693.952148438 729 l 1,93,-1
 691.112304688 719.146484375 l 1,94,-1
 672.112304688 653.224609375 l 1,95,-1
 670.318359375 647 l 1,96,-1
 662.370117188 647 l 1,0,-1
EndSplineSet
Substitution2: "'ss02' Style Set 2 lookup 15 subtable" fivesuperior
Substitution2: "'sinf' Scientific Inferiors lookup 11 subtable" five.sinf
Substitution2: "'subs' Subscript lookup 10 subtable" five.sinf
Substitution2: "'sups' Superscript lookup 9 subtable" five.sups
Substitution2: "'dnom' Denominators lookup 8 subtable" fiveinferior
Substitution2: "'numr' Numerators lookup 6 subtable" fivesuperior
EndChar

StartChar: six
Encoding: 54 54 25
Width: 628
VWidth: 1177
Flags: W
LayerCount: 2
Fore
SplineSet
321.928581853 350.34375 m 0,0,1
 287.123805249 345.081054688 287.123805249 345.081054688 250.26429883 328.904296875 c 1,2,3
 239.841139343 298.447265625 239.841139343 298.447265625 235.019428748 267.827148438 c 0,4,5
 233.713289229 259.534179688 233.713289229 259.534179688 232.75 251.65625 c 128,-1,6
 231.829101562 243.779296875 231.829101562 243.779296875 231.219726562 236.353515625 c 128,-1,7
 230.609375 228.928710938 230.609375 228.928710938 230.3046875 221.950195312 c 128,-1,8
 230 214.970703125 230 214.970703125 230 208.42578125 c 0,9,10
 230 147.602539062 230 147.602539062 253.102920011 114.78125 c 0,11,12
 274.948051558 84 274.948051558 84 332.939400297 84 c 0,13,14
 373.812845812 84 373.812845812 84 405.450908954 99.6962890625 c 0,15,16
 437.451327178 115.573242188 437.451327178 115.573242188 458.395243223 140.908203125 c 0,17,18
 479.617414745 166.578125 479.617414745 166.578125 490.767360928 199.223632812 c 0,19,20
 501.985832714 232.0703125 501.985832714 232.0703125 501.985832714 266.297851562 c 0,21,22
 501.985832714 311.661132812 501.985832714 311.661132812 478.831446847 333.952148438 c 0,23,24
 455.931436323 356 455.931436323 356 398.856877088 356 c 0,25,26
 359.335254828 356 359.335254828 356 321.928581853 350.34375 c 0,0,1
164.50390625 42.3486328125 m 0,27,28
 113 99.1650390625 113 99.1650390625 113 198.296875 c 0,29,30
 113 308.18359375 113 308.18359375 150.64453125 405.293945312 c 0,31,32
 169.4765625 453.874023438 169.4765625 453.874023438 196.379882812 496.344726562 c 128,-1,33
 223.283203125 538.81640625 223.283203125 538.81640625 259.800778547 575.065429688 c 0,34,35
 334.088761543 647.58984375 334.088761543 647.58984375 438.101282138 690.268554688 c 128,-1,36
 542.24047127 733 542.24047127 733 664 733 c 2,37,-1
 678 733 l 1,38,-1
 689.530273438 733 l 1,39,-1
 687.899414062 721.5859375 l 1,40,-1
 675.899414062 637.5859375 l 1,41,-1
 674.672851562 629 l 1,42,-1
 666 629 l 1,43,-1
 661 629 l 2,44,45
 588.571289062 629 588.571289062 629 527.042323191 611.033203125 c 0,46,47
 506.056876478 605.022460938 506.056876478 605.022460938 486.657901296 597.685546875 c 128,-1,48
 467.257887847 590.34765625 467.257887847 590.34765625 449.49729753 581.71484375 c 128,-1,49
 431.736707214 573.08203125 431.736707214 573.08203125 415.535593494 563.126953125 c 128,-1,50
 399.292949106 553.146484375 399.292949106 553.146484375 384.566174112 542.10546875 c 128,-1,51
 369.839399118 531.064453125 369.839399118 531.064453125 356.634723119 518.971679688 c 128,-1,52
 343.429008853 506.87890625 343.429008853 506.87890625 331.710092514 493.708984375 c 0,53,54
 305.674516531 463.739257812 305.674516531 463.739257812 288.419562102 431.15625 c 1,55,56
 302.365560531 436.317382812 302.365560531 436.317382812 315.236952916 440.240234375 c 128,-1,57
 328.107307035 444.1640625 328.107307035 444.1640625 342.493530549 447.678710938 c 0,58,59
 384.740602919 458 384.740602919 458 424.373319717 458 c 0,60,61
 441.63658028 458 441.63658028 458 457.35178518 456.364257812 c 128,-1,62
 473.066990081 454.729492188 473.066990081 454.729492188 487.454251861 451.390625 c 128,-1,63
 501.840475375 448.051757812 501.840475375 448.051757812 514.662030958 443.015625 c 0,64,65
 552.867131032 428.0078125 552.867131032 428.0078125 577.794921875 403.001953125 c 0,66,67
 601.829101562 377.897460938 601.829101562 377.897460938 612.516601562 345.44921875 c 0,68,69
 617.766601562 329.51171875 617.766601562 329.51171875 620.383789062 312.34375 c 128,-1,70
 623 295.176757812 623 295.176757812 623 276.830078125 c 0,71,72
 623 250.141601562 623 250.141601562 618.8828125 223.931640625 c 128,-1,73
 614.764648438 197.721679688 614.764648438 197.721679688 606.541015625 172.051757812 c 0,74,75
 589.961914062 120.299804688 589.961914062 120.299804688 553.800532803 78.1923828125 c 0,76,77
 516.132216618 35.8427734375 516.132216618 35.8427734375 457.615504924 10.41796875 c 128,-1,78
 399.112290699 -15 399.112290699 -15 318.054808763 -15 c 0,79,80
 216.489257812 -15 216.489257812 -15 164.50390625 42.3486328125 c 0,27,28
EndSplineSet
Substitution2: "'ss02' Style Set 2 lookup 15 subtable" sixsuperior
Substitution2: "'sinf' Scientific Inferiors lookup 11 subtable" six.sinf
Substitution2: "'subs' Subscript lookup 10 subtable" six.sinf
Substitution2: "'sups' Superscript lookup 9 subtable" six.sups
Substitution2: "'dnom' Denominators lookup 8 subtable" sixinferior
Substitution2: "'numr' Numerators lookup 6 subtable" sixsuperior
EndChar

StartChar: seven
Encoding: 55 55 26
Width: 628
VWidth: 1177
Flags: W
LayerCount: 2
Fore
SplineSet
164 0 m 1,0,-1
 167.641601562 12.7470703125 l 2,1,2
 191.879882812 97.578125 191.879882812 97.578125 237.255859375 191.35546875 c 0,3,4
 282.508789062 284.87890625 282.508789062 284.87890625 342.280275704 373.369140625 c 128,-1,5
 402.116810016 461.814453125 402.116810016 461.814453125 466.785117222 538.228515625 c 0,6,7
 520.486940314 601.682617188 520.486940314 601.682617188 569.995482203 647 c 1,8,-1
 232.256835938 647 l 1,9,-1
 219.67578125 647 l 1,10,-1
 222.515625 656.65625 l 1,11,-1
 241.515625 721.256835938 l 1,12,-1
 243.309570312 729 l 1,13,-1
 251.256835938 729 l 1,14,-1
 728.256835938 729 l 1,15,-1
 740.883789062 729 l 1,16,-1
 737.991210938 719.172851562 l 1,17,-1
 717.991210938 651.2109375 l 1,18,-1
 717.250976562 648.693359375 l 1,19,-1
 714.806640625 647 l 2,20,21
 703.751953125 637.411132812 703.751953125 637.411132812 691.7890625 625.959960938 c 128,-1,22
 679.826171875 614.508789062 679.826171875 614.508789062 666.952148438 601.192382812 c 128,-1,23
 654.078125 587.875976562 654.078125 587.875976562 640.282226562 572.669921875 c 128,-1,24
 626.486328125 557.463867188 626.486328125 557.463867188 611.262809389 540.438476562 c 0,25,26
 580.132446218 506.411132812 580.132446218 506.411132812 549.230486579 467.745117188 c 128,-1,27
 518.328526939 429.079101562 518.328526939 429.079101562 487.669505601 385.782226562 c 0,28,29
 426.368074092 299.21484375 426.368074092 299.21484375 373.477083539 201.625 c 0,30,31
 320.766739414 104.362304688 320.766739414 104.362304688 290.215690656 7.162109375 c 2,32,-1
 287.961763077 0 l 1,33,-1
 280.256835938 0 l 1,34,-1
 177.256835938 0 l 1,35,-1
 164 0 l 1,0,-1
EndSplineSet
Substitution2: "'ss02' Style Set 2 lookup 15 subtable" sevensuperior
Substitution2: "'sinf' Scientific Inferiors lookup 11 subtable" seven.sinf
Substitution2: "'subs' Subscript lookup 10 subtable" seven.sinf
Substitution2: "'sups' Superscript lookup 9 subtable" seven.sups
Substitution2: "'dnom' Denominators lookup 8 subtable" seveninferior
Substitution2: "'numr' Numerators lookup 6 subtable" sevensuperior
EndChar

StartChar: eight
Encoding: 56 56 27
Width: 628
VWidth: 1177
Flags: W
LayerCount: 2
Fore
SplineSet
567.03125 389.206054688 m 0,0,1
 548.222677546 376.342773438 548.222677546 376.342773438 526.105149314 365.452148438 c 1,2,3
 556.078125 343.188476562 556.078125 343.188476562 577.541992188 314.900390625 c 0,4,5
 591.368164062 296.678710938 591.368164062 296.678710938 598.18359375 273.114257812 c 128,-1,6
 605 249.549804688 605 249.549804688 605 220.953125 c 0,7,8
 605 174.217773438 605 174.217773438 586.747070312 131.036132812 c 128,-1,9
 568.41015625 87.658203125 568.41015625 87.658203125 530.948805004 55.03125 c 0,10,11
 492.682991384 22.4853515625 492.682991384 22.4853515625 434.834036093 3.79296875 c 0,12,13
 415.581827419 -2.427734375 415.581827419 -2.427734375 394.252728899 -6.5615234375 c 128,-1,14
 372.923630379 -10.8046875 372.923630379 -10.8046875 349.699188327 -12.90234375 c 128,-1,15
 326.475783684 -15 326.475783684 -15 301.171339564 -15 c 0,16,17
 242.836877555 -15 242.836877555 -15 202.807617188 -0.1826171875 c 0,18,19
 164.388671875 14.6884765625 164.388671875 14.6884765625 139.928710938 38.5224609375 c 0,20,21
 127.6796875 50.4580078125 127.6796875 50.4580078125 118.689453125 64.1865234375 c 128,-1,22
 109.69921875 77.9150390625 109.69921875 77.9150390625 104.079101562 93.30078125 c 0,23,24
 100.400390625 103.370117188 100.400390625 103.370117188 97.9404296875 113.415039062 c 128,-1,25
 95.48046875 123.459960938 95.48046875 123.459960938 94.240234375 133.517578125 c 128,-1,26
 93 143.57421875 93 143.57421875 93 153.569335938 c 0,27,28
 93 231.831054688 93 231.831054688 138.983398438 291.912109375 c 0,29,30
 180.521484375 346.184570312 180.521484375 346.184570312 254.397746909 381.87109375 c 1,31,32
 196.040039062 432.477539062 196.040039062 432.477539062 197 507.334960938 c 0,33,34
 197 554.947265625 197 554.947265625 214.821687597 598.100585938 c 0,35,36
 221.108377142 612.515625 221.108377142 612.515625 229.388963931 625.831054688 c 128,-1,37
 237.66955072 639.146484375 237.66955072 639.146484375 247.913949937 651.3203125 c 128,-1,38
 258.158349153 663.494140625 258.158349153 663.494140625 270.346850054 674.50390625 c 0,39,40
 288.631157516 691.021484375 288.631157516 691.021484375 310.632496106 704.094726562 c 128,-1,41
 332.634872104 717.16796875 332.634872104 717.16796875 358.236014773 726.762695312 c 0,42,43
 409.564863829 746 409.564863829 746 474.327102804 746 c 0,44,45
 528.493261415 746 528.493261415 746 566.827148438 731.133789062 c 0,46,47
 585.146484375 723.740234375 585.146484375 723.740234375 600.225585938 714.334960938 c 128,-1,48
 615.303710938 704.9296875 615.303710938 704.9296875 627.071289062 693.466796875 c 0,49,50
 650.609375 670.538085938 650.609375 670.538085938 662.370117188 639.815429688 c 0,51,52
 674 609.43359375 674 609.43359375 674 578.453125 c 0,53,54
 674 563.6640625 674 563.6640625 672.2578125 549.560546875 c 128,-1,55
 670.515625 535.45703125 670.515625 535.45703125 667.028320312 522.053710938 c 128,-1,56
 663.540039062 508.649414062 663.540039062 508.649414062 658.319335938 495.989257812 c 128,-1,57
 653.098632812 483.329101562 653.098632812 483.329101562 646.125 471.40234375 c 128,-1,58
 639.15234375 459.4765625 639.15234375 459.4765625 630.456054688 448.3515625 c 0,59,60
 617.622070312 431.934570312 617.622070312 431.934570312 601.561523438 417.001953125 c 128,-1,61
 585.500976562 402.0703125 585.500976562 402.0703125 567.03125 389.206054688 c 0,0,1
449.748843945 293.020507812 m 0,62,63
 414.908549942 322.12109375 414.908549942 322.12109375 351.70657187 343.211914062 c 1,64,65
 337.416283343 336.709960938 337.416283343 336.709960938 324.921747225 329.689453125 c 128,-1,66
 312.428248515 322.669921875 312.428248515 322.669921875 299.39426049 313.873046875 c 0,67,68
 295.512281566 311.252929688 295.512281566 311.252929688 291.780726733 308.556640625 c 128,-1,69
 288.048134492 305.860351562 288.048134492 305.860351562 284.471153378 303.091796875 c 128,-1,70
 280.894172264 300.323242188 280.894172264 300.323242188 277.464503018 297.478515625 c 128,-1,71
 274.035871179 294.6328125 274.035871179 294.6328125 270.759738245 291.715820312 c 128,-1,72
 267.483605311 288.798828125 267.483605311 288.798828125 264.354784244 285.803710938 c 128,-1,73
 261.225963177 282.809570312 261.225963177 282.809570312 258.249641014 279.743164062 c 128,-1,74
 255.272281445 276.676757812 255.272281445 276.676757812 252.441196335 273.533203125 c 0,75,76
 245.868182316 266.235351562 245.868182316 266.235351562 240.207049504 258.533203125 c 128,-1,77
 234.545916691 250.830078125 234.545916691 250.830078125 229.79459027 242.724609375 c 128,-1,78
 225.043263848 234.619140625 225.043263848 234.619140625 221.17995826 226.081054688 c 0,79,80
 210 200.958984375 210 200.958984375 210 175 c 0,81,82
 210 170.315429688 210 170.315429688 210.291992188 165.73046875 c 128,-1,83
 210.583007812 161.145507812 210.583007812 161.145507812 211.166015625 156.662109375 c 128,-1,84
 211.749023438 152.177734375 211.749023438 152.177734375 212.620117188 147.79296875 c 128,-1,85
 213.52181598 143.409179688 213.52181598 143.409179688 214.756330924 139.109375 c 0,86,87
 219.412215854 122.89453125 219.412215854 122.89453125 231.015618915 110.66015625 c 0,88,89
 234.816680053 106.653320312 234.816680053 106.653320312 239.49020091 103.203125 c 128,-1,90
 244.163721768 99.7529296875 244.163721768 99.7529296875 249.934819777 96.759765625 c 128,-1,91
 255.705917786 93.767578125 255.705917786 93.767578125 262.46047812 91.3447265625 c 0,92,93
 282.9420147 84 282.9420147 84 314.981308411 84 c 0,94,95
 350.411887291 84 350.411887291 84 381.685574255 93.9716796875 c 128,-1,96
 412.83373491 103.903320312 412.83373491 103.903320312 435.79986249 121.291992188 c 0,97,98
 458.361401139 138.375 458.361401139 138.375 471.129812841 163.337890625 c 128,-1,99
 483.887850467 188.282226562 483.887850467 188.282226562 483.887850467 217 c 0,100,101
 483.887850467 264.50390625 483.887850467 264.50390625 449.748843945 293.020507812 c 0,62,63
376.457040377 421.501953125 m 128,-1,103
 397.128422532 410.15625 397.128422532 410.15625 424.696489851 400.849609375 c 1,104,105
 449.673113196 413.037109375 449.673113196 413.037109375 472.317644446 428.580078125 c 0,106,107
 484.637896101 437.036132812 484.637896101 437.036132812 495.647902064 446.31640625 c 128,-1,108
 506.658945434 455.596679688 506.658945434 455.596679688 516.378416448 465.708984375 c 0,109,110
 535.295542494 485.391601562 535.295542494 485.391601562 545.743273584 509.745117188 c 0,111,112
 549.187466535 517.771484375 549.187466535 517.771484375 551.488436405 526.424804688 c 128,-1,113
 553.789406274 535.078125 553.789406274 535.078125 554.900390625 544.4921875 c 128,-1,114
 556 553.907226562 556 553.907226562 556 564 c 0,115,116
 556 570.8671875 556 570.8671875 555.075195312 578.15234375 c 128,-1,117
 554.149414062 585.436523438 554.149414062 585.436523438 552.174162773 593.143554688 c 0,118,119
 550.341063693 600.260742188 550.341063693 600.260742188 546.814915547 606.686523438 c 128,-1,120
 543.288767402 613.111328125 543.288767402 613.111328125 537.946118696 619.015625 c 0,121,122
 527.399833893 630.668945312 527.399833893 630.668945312 509.068843093 637.748046875 c 0,123,124
 490.291767061 645 490.291767061 645 461.579439252 645 c 0,125,126
 430.676106771 645 430.676106771 645 404.409985884 635.203125 c 128,-1,127
 378.302588347 625.465820312 378.302588347 625.465820312 359.142708942 607.428710938 c 128,-1,128
 339.918510271 589.333007812 339.918510271 589.333007812 329.042329877 564.666015625 c 0,129,130
 323.609426718 552.345703125 323.609426718 552.345703125 320.888306805 538.958984375 c 128,-1,131
 318.168224299 525.572265625 318.168224299 525.572265625 318.168224299 511 c 0,132,133
 318.168224299 470.930664062 318.168224299 470.930664062 343.475780642 445.309570312 c 0,134,102
 355.784620814 432.848632812 355.784620814 432.848632812 376.457040377 421.501953125 c 128,-1,103
EndSplineSet
Substitution2: "'ss02' Style Set 2 lookup 15 subtable" eightsuperior
Substitution2: "'sinf' Scientific Inferiors lookup 11 subtable" eight.sinf
Substitution2: "'subs' Subscript lookup 10 subtable" eight.sinf
Substitution2: "'sups' Superscript lookup 9 subtable" eight.sups
Substitution2: "'dnom' Denominators lookup 8 subtable" eightinferior
Substitution2: "'numr' Numerators lookup 6 subtable" eightsuperior
EndChar

StartChar: nine
Encoding: 57 57 28
Width: 628
VWidth: 1177
Flags: W
LayerCount: 2
Fore
SplineSet
443.531386096 284.735351562 m 0,0,1
 401.53243307 276 401.53243307 276 361.098787192 276 c 0,2,3
 352.516550191 276 352.516550191 276 344.319938527 276.37890625 c 128,-1,4
 336.123326862 276.7578125 336.123326862 276.7578125 328.2615458 277.51953125 c 128,-1,5
 320.399764737 278.282226562 320.399764737 278.282226562 312.908059603 279.435546875 c 128,-1,6
 305.416354469 280.588867188 305.416354469 280.588867188 298.285395617 282.130859375 c 128,-1,7
 291.154436766 283.673828125 291.154436766 283.673828125 284.374894552 285.620117188 c 128,-1,8
 277.595352339 287.56640625 277.595352339 287.56640625 271.199362207 289.908203125 c 0,9,10
 258.52244757 294.55078125 258.52244757 294.55078125 247.277115164 300.37109375 c 128,-1,11
 236.031782758 306.190429688 236.031782758 306.190429688 226.154798322 313.250976562 c 128,-1,12
 216.277813886 320.3125 216.277813886 320.3125 207.92363488 328.54296875 c 0,13,14
 184.375 353.115234375 184.375 353.115234375 173.18359375 385.987304688 c 0,15,16
 162.169921875 418.3359375 162.169921875 418.3359375 162.169921875 454.192382812 c 0,17,18
 162.169921875 507.614257812 162.169921875 507.614257812 179.146484375 559.493164062 c 0,19,20
 187.677734375 585.5625 187.677734375 585.5625 200.643554688 608.921875 c 0,21,22
 214.016929854 632.280273438 214.016929854 632.280273438 232.43883271 652.822265625 c 128,-1,23
 250.982020955 673.499023438 250.982020955 673.499023438 274.625415268 690.078125 c 128,-1,24
 298.268809581 706.657226562 298.268809581 706.657226562 326.852769367 719.079101562 c 0,25,26
 384.200025454 744 384.200025454 744 459.818873445 744 c 0,27,28
 567.704101562 744 567.704101562 744 620.19140625 685.654296875 c 0,29,30
 672.169921875 627.874023438 672.169921875 627.874023438 672.169921875 530.717773438 c 0,31,32
 672.169921875 418.958984375 672.169921875 418.958984375 636.072265625 321.91015625 c 0,33,34
 599.891601562 224.637695312 599.891601562 224.637695312 530.801924375 152.595703125 c 0,35,36
 494.75424839 116.540039062 494.75424839 116.540039062 450.967113359 88.1826171875 c 128,-1,37
 407.181014954 59.8251953125 407.181014954 59.8251953125 355.794365555 39.23046875 c 0,38,39
 252.919477284 -2 252.919477284 -2 126.169921875 -2 c 2,40,-1
 115.169921875 -2 l 2,41,42
 113.990234375 -2 113.990234375 -2 112.607421875 -1.95703125 c 128,-1,43
 111.224609375 -1.9130859375 111.224609375 -1.9130859375 109.671875 -1.830078125 c 128,-1,44
 108.118164062 -1.7470703125 108.118164062 -1.7470703125 106.307617188 -1.619140625 c 128,-1,45
 104.497070312 -1.4912109375 104.497070312 -1.4912109375 102.5234375 -1.3291015625 c 128,-1,46
 100.549804688 -1.1669921875 100.549804688 -1.1669921875 98.2646484375 -0.958984375 c 2,47,-1
 87 0.0654296875 l 1,48,-1
 89.3974609375 11.119140625 l 1,49,-1
 107.397460938 94.119140625 l 1,50,-1
 109.583984375 104.204101562 l 1,51,-1
 119.595703125 101.701171875 l 2,52,53
 122.401367188 101 122.401367188 101 127.169921875 101 c 2,54,-1
 136.169921875 101 l 2,55,56
 172.46484375 101 172.46484375 101 204.706054688 105.274414062 c 0,57,58
 238.789211242 109.548828125 238.789211242 109.548828125 268.706273672 118.052734375 c 0,59,60
 328.631621728 135.0859375 328.631621728 135.0859375 374.47646185 164.922851562 c 0,61,62
 397.441901943 179.869140625 397.441901943 179.869140625 417.012387792 197.309570312 c 128,-1,63
 436.582873641 214.749023438 436.582873641 214.749023438 452.813346491 234.723632812 c 0,64,65
 477.335800712 265.504882812 477.335800712 265.504882812 496.503038561 299.50390625 c 1,66,67
 470.613272997 290.368164062 470.613272997 290.368164062 443.531386096 284.735351562 c 0,0,1
307.111240022 400.299804688 m 128,-1,69
 330.527612968 377 330.527612968 377 386.574938483 377 c 0,70,71
 425.98750652 377 425.98750652 377 464.351007781 383.120117188 c 0,72,73
 499.809879488 388.776367188 499.809879488 388.776367188 536.989552429 404.147460938 c 1,74,75
 546.811595621 434.768554688 546.811595621 434.768554688 551.613253042 466 c 0,76,77
 556.169921875 497.232421875 556.169921875 497.232421875 556.169921875 530.259765625 c 0,78,79
 556.169921875 583.02734375 556.169921875 583.02734375 531.383472262 614.2265625 c 0,80,81
 507.49439729 644 507.49439729 644 452.388329318 644 c 0,82,83
 438.655091513 644 438.655091513 644 426.068363446 662 c 0,84,85
 413.481635379 660.16015625 413.481635379 660.16015625 402.13575013 656.53515625 c 128,-1,86
 390.788828253 652.91015625 390.788828253 652.91015625 380.471277236 647.478515625 c 0,87,88
 348.986834405 630.903320312 348.986834405 630.903320312 327.531760216 604.131835938 c 0,89,90
 323.20695133 598.736328125 323.20695133 598.736328125 319.309232871 593.052734375 c 128,-1,91
 315.410477784 587.369140625 315.410477784 587.369140625 311.926373598 581.37890625 c 128,-1,92
 308.442269411 575.388671875 308.442269411 575.388671875 305.380072515 569.099609375 c 128,-1,93
 302.318912246 562.809570312 302.318912246 562.809570312 299.67136625 556.205078125 c 128,-1,94
 297.024856882 549.600585938 297.024856882 549.600585938 294.797144922 542.685546875 c 0,95,96
 283.608827015 507.958007812 283.608827015 507.958007812 283.608827015 472.267578125 c 0,97,68
 283.608827015 423.685546875 283.608827015 423.685546875 307.111240022 400.299804688 c 128,-1,69
EndSplineSet
Substitution2: "'ss02' Style Set 2 lookup 15 subtable" ninesuperior
Substitution2: "'sinf' Scientific Inferiors lookup 11 subtable" nine.sinf
Substitution2: "'subs' Subscript lookup 10 subtable" nine.sinf
Substitution2: "'sups' Superscript lookup 9 subtable" nine.sups
Substitution2: "'dnom' Denominators lookup 8 subtable" nineinferior
Substitution2: "'numr' Numerators lookup 6 subtable" ninesuperior
EndChar

StartChar: less
Encoding: 60 60 31
Width: 588
VWidth: 1177
Flags: W
LayerCount: 2
Fore
SplineSet
486.64557021 55.9978368596 m 1
 87.6455702103 248.99783686 l 1
 80.4103593257 252.497575458 l 1
 82.2719378531 260.316205273 l 1
 102.271937853 344.316205273 l 1
 103.482527213 349.400680585 l 1
 108.348160059 351.309353632 l 1
 600.348160059 544.309353632 l 1
 613.038412287 549.28744038 l 1
 613.976303284 535.688020916 l 1
 619.976303284 448.688020916 l 1
 620.48526445 441.308084016 l 1
 613.577334699 438.661762669 l 1
 233.74835229 293.155137567 l 1
 540.18179878 152.083642384 l 1
 550.140456431 147.499016454 l 1
 544.66185586 138.002775465 l 1
 499.66185586 60.0027754651 l 1
 495.015559643 51.9491953546 l 1
 486.64557021 55.9978368596 l 1
EndSplineSet
EndChar

StartChar: equal
Encoding: 61 61 32
Width: 588
VWidth: 1177
Flags: W
LayerCount: 2
Fore
SplineSet
148 473 m 1
 621 473 l 1
 633.660491974 473 l 1
 630.728062147 460.683794727 l 1
 610.728062147 376.683794727 l 1
 608.898587212 369 l 1
 601 369 l 1
 128 369 l 1
 115.339508026 369 l 1
 118.271937853 381.316205273 l 1
 138.271937853 465.316205273 l 1
 140.101412788 473 l 1
 148 473 l 1
94 249 m 1
 567 249 l 1
 579.660491974 249 l 1
 576.728062147 236.683794727 l 1
 556.728062147 152.683794727 l 1
 554.898587212 145 l 1
 547 145 l 1
 74 145 l 1
 61.3395080262 145 l 1
 64.2719378531 157.316205273 l 1
 84.2719378531 241.316205273 l 1
 86.1014127881 249 l 1
 94 249 l 1
EndSplineSet
EndChar

StartChar: greater
Encoding: 62 62 33
Width: 588
VWidth: 1177
Flags: W
LayerCount: 2
Fore
SplineSet
194.35442979 544.00216314 m 1
 593.35442979 351.00216314 l 1
 600.589640674 347.502424542 l 1
 598.728062147 339.683794727 l 1
 578.728062147 255.683794727 l 1
 577.517472787 250.599319415 l 1
 572.651839941 248.690646368 l 1
 80.651839941 55.690646368 l 1
 67.9615877133 50.7125596201 l 1
 67.0236967158 64.3119790838 l 1
 61.0236967158 151.311979084 l 1
 60.5140207661 158.702280355 l 1
 67.4352027877 161.343030602 l 1
 446.325045263 305.906985462 l 1
 140.784813479 447.931802682 l 1
 130.87974235 452.535994767 l 1
 136.33814414 461.997224535 l 1
 181.33814414 539.997224535 l 1
 185.984440357 548.050804645 l 1
 194.35442979 544.00216314 l 1
EndSplineSet
EndChar

StartChar: question
Encoding: 63 63 34
Width: 588
VWidth: 1177
Flags: W
LayerCount: 2
Fore
SplineSet
256.161300899 250.788854382 m 1
 260.156666592 272.763365695 l 2
 266.548899993 308.98602163 266.548899993 308.98602163 288.38195609 339.339294742 c 0
 298.9298863 354.003490399 298.9298863 354.003490399 311.139436152 367.755301495 c 0
 323.348986005 381.507112592 323.348986005 381.507112592 337.205919685 394.33760674 c 0
 350.878435548 406.99734365 350.878435548 406.99734365 365.306255507 419.147086811 c 0
 379.734075466 431.296829972 379.734075466 431.296829972 394.915684563 442.936063613 c 0
 409.704404342 454.27408211 409.704404342 454.27408211 423.24425615 465.844502255 c 0
 436.784107957 477.4149224 436.784107957 477.4149224 449.074681718 489.21387321 c 0
 473.203668086 512.377700123 473.203668086 512.377700123 489.056705798 537.358244397 c 0
 496.559962346 549.181557745 496.559962346 549.181557745 500.279981173 562.258207727 c 0
 504 575.334857709 504 575.334857709 504 590 c 0
 504 618.720994249 504 618.720994249 485.095242533 636.766444559 c 0
 465.993422547 655 465.993422547 655 420 655 c 0
 387.080969583 655 387.080969583 655 356.136968788 648.230999826 c 0
 340.714452986 644.857324494 340.714452986 644.857324494 323.684377283 639.018530154 c 0
 306.65430158 633.179735814 306.65430158 633.179735814 288.083660601 624.871817481 c 2
 276.02315524 619.476328241 l 1
 274.105850857 632.548858126 l 1
 263.105850857 707.548858126 l 1
 262.086627578 714.498107756 l 1
 268.277785875 717.8147997 l 2
 278.085929125 723.069162156 278.085929125 723.069162156 289.656143431 727.812767154 c 0
 301.226357737 732.556372151 301.226357737 732.556372151 314.397590045 736.753170902 c 0
 327.568822353 740.949969652 327.568822353 740.949969652 342.57464375 744.701425001 c 0
 387.768943744 756 387.768943744 756 435 756 c 0
 452.073990372 756 452.073990372 756 468.785440392 754.056806652 c 0
 485.496890412 752.113613304 485.496890412 752.113613304 501.816205273 748.228062147 c 0
 518.371205779 744.28639536 518.371205779 744.28639536 533.315234539 737.938467111 c 0
 548.259263299 731.590538863 548.259263299 731.590538863 561.508422083 722.846094066 c 0
 588.649295474 704.933117628 588.649295474 704.933117628 604.345691005 675.164091621 c 0
 612.239481045 660.19311051 612.239481045 660.19311051 616.119740523 642.12880614 c 0
 620 624.06450177 620 624.06450177 620 603 c 0
 620 556.607877934 620 556.607877934 601.917494077 520.974704498 c 0
 596.027407719 509.367769616 596.027407719 509.367769616 589.032275526 498.442831761 c 0
 582.037143332 487.517893905 582.037143332 487.517893905 573.953085082 477.296590515 c 0
 565.869026832 467.075287125 565.869026832 467.075287125 556.700778916 457.56106759 c 0
 543.150298425 443.499248212 543.150298425 443.499248212 528.202494139 430.467828183 c 0
 513.254689852 417.436408153 513.254689852 417.436408153 496.919095029 405.439955705 c 0
 490.586354887 400.789349663 490.586354887 400.789349663 484.392773516 396.07984398 c 0
 478.199192145 391.370338297 478.199192145 391.370338297 472.147276931 386.603951286 c 0
 466.095361716 381.837564274 466.095361716 381.837564274 460.182505224 377.012348487 c 0
 454.269648733 372.187132699 454.269648733 372.187132699 448.498238991 367.30514406 c 0
 442.72682925 362.423155421 442.72682925 362.423155421 437.094378183 357.482408871 c 0
 409.290821919 333.093324429 409.290821919 333.093324429 387.863183388 305.821784481 c 0
 367.42821319 279.813640592 367.42821319 279.813640592 361.856222548 247.310361849 c 2
 360.431589088 239 l 1
 352 239 l 1
 266 239 l 1
 254.01787283 239 l 1
 256.161300899 250.788854382 l 1
261 -24 m 0
 226.096467025 -24 226.096467025 -24 204.225242452 -3.85545105159 c 0
 182 16.6151669967 182 16.6151669967 182 57 c 0
 182 72.074345179 182 72.074345179 184.988288957 85.1824619962 c 0
 187.976577914 98.2905788134 187.976577914 98.2905788134 194.148357062 109.563822159 c 0
 200.320136209 120.837065504 200.320136209 120.837065504 209.577748163 129.716815745 c 0
 236.97936579 156 236.97936579 156 274 156 c 0
 280.801510412 156 280.801510412 156 287.228743837 155.189840728 c 0
 293.655977262 154.379681457 293.655977262 154.379681457 299.722807312 152.742563752 c 0
 305.789637362 151.105446047 305.789637362 151.105446047 311.406163897 148.660282975 c 0
 317.022690432 146.215119903 317.022690432 146.215119903 322.22324088 142.91685784 c 0
 327.423791328 139.618595776 327.423791328 139.618595776 332.098011732 135.514402251 c 0
 344.161027289 124.922486152 344.161027289 124.922486152 350.080513644 109.328920167 c 0
 356 93.7353541822 356 93.7353541822 356 74 c 0
 355.170975776 28.4178046095 355.170975776 28.4178046095 326.134871703 2.01812339843 c 0
 296.795285743 -24 296.795285743 -24 261 -24 c 0
EndSplineSet
EndChar

StartChar: at
Encoding: 64 64 35
Width: 588
VWidth: 1177
Flags: W
LayerCount: 2
Fore
SplineSet
553.939192986 64.8085496998 m 2
 524.893875224 52.3605563733 524.893875224 52.3605563733 493.274655277 46.6587298255 c 0
 461.894426245 41 461.894426245 41 432 41 c 0
 395.42700505 41 395.42700505 41 362.929972201 51.4829138224 c 0
 330.017679868 62.0997823167 330.017679868 62.0997823167 303.992086265 84.4074339763 c 0
 277.689012202 106.95292603 277.689012202 106.95292603 262.773310262 142.64406996 c 0
 248 177.994490943 248 177.994490943 248 229 c 0
 248 256.752706782 248 256.752706782 252.119761061 283.531112642 c 0
 256.239522122 310.309518502 256.239522122 310.309518502 264.475758528 336.047757271 c 0
 281.069863626 387.904335703 281.069863626 387.904335703 314.817787204 428.401843997 c 0
 348.806325531 469.188089989 348.806325531 469.188089989 401.430225765 492.634382173 c 0
 453.873056889 516 453.873056889 516 527 516 c 0
 535.293863659 516 535.293863659 516 544.08722022 515.482743732 c 0
 546.366622919 515.34866122 546.366622919 515.34866122 548.924960174 515.164389145 c 0
 551.483297429 514.98011707 551.483297429 514.98011707 554.157632241 514.763279112 c 0
 556.63070881 526.890727476 556.63070881 526.890727476 557.815354405 538.4943811 c 0
 559 550.098034725 559 550.098034725 559 562 c 0
 559 603.46822602 559 603.46822602 538.218022111 629.219807317 c 0
 518.219971876 654 518.219971876 654 466 654 c 0
 405.620499352 654 405.620499352 654 354.401843997 611.317787204 c 0
 328.167469168 589.45580818 328.167469168 589.45580818 305.508992788 561.193608435 c 0
 282.850516408 532.93140869 282.850516408 532.93140869 263.76476418 498.18555207 c 0
 250.976220289 474.903843962 250.976220289 474.903843962 240.042692444 450.031738939 c 0
 229.109164599 425.159633916 229.109164599 425.159633916 220.014832524 398.644641763 c 0
 210.920500449 372.12964961 210.920500449 372.12964961 203.684538922 344.008071856 c 0
 192.833159177 301.835664212 192.833159177 301.835664212 187.416579589 261.088225475 c 0
 182 220.340786738 182 220.340786738 182 181 c 0
 182 170.602228163 182 170.602228163 182.41183396 160.445007992 c 0
 182.82366792 150.287787822 182.82366792 150.287787822 183.645517051 140.387252057 c 0
 184.467366181 130.486716291 184.467366181 130.486716291 185.699632213 120.825140792 c 0
 186.931898244 111.163565293 186.931898244 111.163565293 188.57140605 101.756686005 c 0
 190.210913855 92.3498067163 190.210913855 92.3498067163 192.259421503 83.1802962932 c 0
 197.335474321 60.4589170119 197.335474321 60.4589170119 205.136830596 40.8955620101 c 0
 212.938186872 21.3322070083 212.938186872 21.3322070083 223.431579539 4.87665941617 c 0
 244.201459794 -27.6942891652 244.201459794 -27.6942891652 276.254928807 -47.4920200264 c 0
 307.839277336 -67 307.839277336 -67 353 -67 c 0
 362.641779007 -67 362.641779007 -67 372.805261328 -66.2740394532 c 0
 382.968743649 -65.5480789064 382.968743649 -65.5480789064 393.648867953 -64.0916983196 c 0
 404.276838234 -62.6424296448 404.276838234 -62.6424296448 415.695383079 -60.2129629188 c 0
 427.113927923 -57.7834961929 427.113927923 -57.7834961929 439.303700745 -54.3703598029 c 2
 453.618351088 -50.3622577069 l 1
 451.935731472 -65.1319187753 l 1
 442.935731472 -144.131918775 l 1
 442.162084143 -150.922823112 l 1
 435.553911228 -152.668378222 l 2
 381.298485925 -167 381.298485925 -167 336 -167 c 0
 322.390363367 -167 322.390363367 -167 309.470810722 -165.92468551 c 0
 296.551258078 -164.849371019 296.551258078 -164.849371019 284.262198002 -162.683089514 c 0
 271.973137926 -160.516808008 271.973137926 -160.516808008 260.395026146 -157.264438701 c 0
 248.816914366 -154.012069394 248.816914366 -154.012069394 237.892426934 -149.644816164 c 0
 226.967939502 -145.277562934 226.967939502 -145.277562934 216.775264672 -139.813448592 c 0
 166.091832162 -112.642948689 166.091832162 -112.642948689 133.707335724 -64.5885346207 c 0
 101.703007866 -17.0982416702 101.703007866 -17.0982416702 86.2804122596 46.648486837 c 0
 71 109.807524176 71 109.807524176 71 181 c 0
 71 245.924856717 71 245.924856717 83.6696211183 313.834025911 c 0
 96.3306944272 381.697378847 96.3306944272 381.697378847 120.13978915 445.01943928 c 0
 143.968058037 508.392494831 143.968058037 508.392494831 178.452124848 565.189781342 c 0
 213.17031091 622.372676033 213.17031091 622.372676033 258.182744008 664.316079601 c 0
 273.210005451 678.318755037 273.210005451 678.318755037 289.167876921 690.457832896 c 0
 305.125748391 702.596910756 305.125748391 702.596910756 322.027786509 712.876405032 c 0
 338.929824628 723.155899308 338.929824628 723.155899308 356.737841118 731.54621477 c 0
 410.762201606 757 410.762201606 757 473 757 c 0
 505.367526227 757 505.367526227 757 532.433529908 751.100076984 c 0
 559.499533589 745.200153968 559.499533589 745.200153968 581.578583084 733.066298664 c 0
 603.657632579 720.93244336 603.657632579 720.93244336 619.961972096 702.657249615 c 0
 643.986512777 675.728643577 643.986512777 675.728643577 655.993256389 641.16051475 c 0
 668 606.592385922 668 606.592385922 668 565 c 0
 668 543.885748989 668 543.885748989 665.434349126 522.336835682 c 0
 662.868698252 500.787922375 662.868698252 500.787922375 657.731255681 478.696919318 c 2
 559.722135703 71.6590434917 l 1
 558.548259545 66.7838639397 l 1
 553.939192986 64.8085496998 l 2
530.049660344 415.141696017 m 1
 521.847384114 417.25809785 521.847384114 417.25809785 515.390219886 418.129048925 c 0
 508.933055659 419 508.933055659 419 502 419 c 0
 466.645697722 419 466.645697722 419 439.945242493 403.80836168 c 0
 433.146317922 399.940008045 433.146317922 399.940008045 426.927802346 395.476488065 c 0
 420.709286769 391.012968086 420.709286769 391.012968086 415.047796015 385.935063108 c 0
 409.386305261 380.857158131 409.386305261 380.857158131 404.281673142 375.165144654 c 0
 399.177041023 369.473131177 399.177041023 369.473131177 394.606792284 363.145094462 c 0
 376.234344065 337.706320005 376.234344065 337.706320005 367.701425001 303.57464375 c 0
 364.804794307 291.98812097 364.804794307 291.98812097 362.872484712 279.968668612 c 0
 360.940175117 267.949216255 360.940175117 267.949216255 359.970087559 255.448850872 c 0
 359 242.948485489 359 242.948485489 359 230 c 0
 359 206.898444894 359 206.898444894 363.916528905 189.522532593 c 0
 368.833057809 172.146620291 368.833057809 172.146620291 378.322801445 160.229267818 c 0
 387.596112297 148.583714656 387.596112297 148.583714656 401.005173902 142.791857328 c 0
 414.414235508 137 414.414235508 137 433 137 c 0
 441.215386461 137 441.215386461 137 449.940374265 138.377629653 c 0
 456.320841823 139.385071899 456.320841823 139.385071899 463.691665631 141.177974988 c 1
 530.049660344 415.141696017 l 1
EndSplineSet
Substitution2: "'case' Case-Sensitive Forms lookup 17 subtable" At
EndChar

StartChar: A
Encoding: 65 65 36
Width: 628
VWidth: 1177
Flags: W
LayerCount: 2
Fore
SplineSet
477.053659746 0 m 1,0,-1
 477.109378181 10.052734375 l 1,1,-1
 478.110246368 191 l 1,2,-1
 199.588234597 191 l 1,3,-1
 107.352556151 5.7373046875 l 1,4,-1
 104.522460938 0 l 1,5,-1
 98.1806640625 0 l 1,6,-1
 1.1806640625 0 l 1,7,-1
 -15 0 l 1,8,-1
 -7.763671875 14.0830078125 l 2,9,10
 31.2763671875 90.0654296875 31.2763671875 90.0654296875 78.3056640625 178.188476562 c 0,11,12
 126.484615863 266.309570312 126.484615863 266.309570312 180.39736098 359.290039062 c 128,-1,13
 234.358601773 452.354492188 234.358601773 452.354492188 292.548252699 545.8984375 c 128,-1,14
 350.774017426 639.501953125 350.774017426 639.501953125 409.009068559 724.34375 c 2,15,-1
 412.120014521 729 l 1,16,-1
 417.940527348 729 l 1,17,-1
 537.180664062 729 l 1,18,-1
 545.796875 729 l 1,19,-1
 547.0703125 720.477539062 l 2,20,21
 560.119140625 635.51171875 560.119140625 635.51171875 568.641601562 541.840820312 c 128,-1,22
 577.15234375 448.310546875 577.15234375 448.310546875 583.161132812 355.264648438 c 128,-1,23
 589.16796875 262.233398438 589.16796875 262.233398438 592.672851562 174.0546875 c 128,-1,24
 596.174804688 85.9443359375 596.174804688 85.9443359375 598.176757812 9.9794921875 c 2,25,-1
 598.440429688 0 l 1,26,-1
 588.180664062 0 l 1,27,-1
 487.180664062 0 l 1,28,-1
 477.053659746 0 l 1,0,-1
450.684394402 593.159179688 m 128,-1,30
 449.417315914 603.818359375 449.417315914 603.818359375 448.152301072 613.986328125 c 1,31,32
 427.311542681 580.934570312 427.311542681 580.934570312 405.401815795 544.7421875 c 128,-1,33
 383.492088908 508.548828125 383.492088908 508.548828125 359.562052836 467.655273438 c 0,34,35
 346.342338187 445.064453125 346.342338187 445.064453125 333.079286976 422.046875 c 128,-1,36
 319.816235766 399.029296875 319.816235766 399.029296875 306.568661899 375.686523438 c 128,-1,37
 293.320056208 352.342773438 293.320056208 352.342773438 280.086927861 328.6796875 c 128,-1,38
 266.853799514 305.016601562 266.853799514 305.016601562 253.616543876 281 c 1,39,-1
 474.777458488 281 l 1,40,41
 472.426965983 381.235351562 472.426965983 381.235351562 463.418120479 474.0859375 c 0,42,43
 462.147946522 487.172851562 462.147946522 487.172851562 460.870549805 499.836914062 c 128,-1,44
 459.594184911 512.501953125 459.594184911 512.501953125 458.319883663 524.647460938 c 128,-1,45
 457.046614237 536.79296875 457.046614237 536.79296875 455.771281166 548.471679688 c 128,-1,46
 454.496979918 560.149414062 454.496979918 560.149414062 453.223710493 571.32421875 c 128,-1,29
 451.95147289 582.5 451.95147289 582.5 450.684394402 593.159179688 c 128,-1,30
EndSplineSet
EndChar

StartChar: B
Encoding: 66 66 37
Width: 628
VWidth: 1177
Flags: W
LayerCount: 2
Fore
SplineSet
400.842840443 10.6904296875 m 128,-1,1
 330.871904607 -6 330.871904607 -6 240.593558529 -6 c 0,2,3
 230.413506984 -6 230.413506984 -6 219.193029994 -5.7470703125 c 128,-1,4
 207.972553004 -5.4951171875 207.972553004 -5.4951171875 195.69821906 -4.990234375 c 0,5,6
 171.2421875 -3.9814453125 171.2421875 -3.9814453125 147.540039062 -1.9638671875 c 0,7,8
 135.61328125 -0.94921875 135.61328125 -0.94921875 124.057617188 0.4482421875 c 128,-1,9
 112.501953125 1.8447265625 112.501953125 1.8447265625 101.317382812 3.6240234375 c 0,10,11
 78.599609375 7.140625 78.599609375 7.140625 61.9052734375 12.2177734375 c 2,12,-1
 53 14.92578125 l 1,13,-1
 55.16015625 23.7578125 l 1,14,-1
 226.068930028 710.748046875 l 1,15,-1
 227.53606422 716.420898438 l 1,16,-1
 233.66909842 717.905273438 l 2,17,18
 254.330893893 722.90625 254.330893893 722.90625 279.767074649 726.390625 c 0,19,20
 304.986284856 729.94140625 304.986284856 729.94140625 331.794546039 731.967773438 c 0,21,22
 337.120656434 732.37109375 337.120656434 732.37109375 342.361011801 732.733398438 c 128,-1,23
 347.602400362 733.095703125 347.602400362 733.095703125 352.761133475 733.41796875 c 128,-1,24
 357.920899781 733.740234375 357.920899781 733.740234375 362.994911061 734.022460938 c 128,-1,25
 368.068922341 734.3046875 368.068922341 734.3046875 373.061311366 734.546875 c 128,-1,26
 378.053700391 734.7890625 378.053700391 734.7890625 382.962400776 734.990234375 c 0,27,28
 407.525533368 736 407.525533368 736 427.857740245 736 c 0,29,30
 531.212178108 736 531.212178108 736 593.404296875 701.091796875 c 0,31,32
 657.888671875 664.68359375 657.888671875 664.68359375 657.888671875 582.147460938 c 0,33,34
 657.888671875 512.092773438 657.888671875 512.092773438 622.794921875 459.048828125 c 0,35,36
 617.725585938 451.38671875 617.725585938 451.38671875 611.690429688 444.171875 c 128,-1,37
 605.65625 436.95703125 605.65625 436.95703125 598.720703125 430.254882812 c 128,-1,38
 591.784179688 423.552734375 591.784179688 423.552734375 583.95703125 417.310546875 c 128,-1,39
 576.12890625 411.067382812 576.12890625 411.067382812 567.39453125 405.287109375 c 128,-1,40
 558.66015625 399.505859375 558.66015625 399.505859375 549.112304688 394.200195312 c 128,-1,41
 539.564453125 388.893554688 539.564453125 388.893554688 528.600265969 384.001953125 c 1,42,43
 544.455078125 376.614257812 544.455078125 376.614257812 557.50390625 366.451171875 c 128,-1,44
 570.552734375 356.287109375 570.552734375 356.287109375 582.509765625 342.578125 c 0,45,46
 615.888671875 304.309570312 615.888671875 304.309570312 615.888671875 253.018554688 c 0,47,48
 615.888671875 129.313476562 615.888671875 129.313476562 520.379148528 61.15234375 c 0,49,0
 470.813776279 27.3798828125 470.813776279 27.3798828125 400.842840443 10.6904296875 c 128,-1,1
347.450520977 330 m 2,50,-1
 251.031908347 330 l 1,51,-1
 189.06098663 98.134765625 l 1,52,53
 195.08036959 97.56640625 195.08036959 97.56640625 203.931734818 96.8837890625 c 0,54,55
 212.000972874 96.26171875 212.000972874 96.26171875 221.805975326 95.8427734375 c 128,-1,56
 231.610977779 95.4248046875 231.610977779 95.4248046875 243.220968564 95.212890625 c 128,-1,57
 254.831992543 95 254.831992543 95 268.101291436 95 c 0,58,59
 288.233058853 95 288.233058853 95 308.637589246 91.751953125 c 128,-1,60
 329.04211964 88.50390625 329.04211964 88.50390625 349.731811326 82 c 0,61,62
 390.247445274 89.4921875 390.247445274 89.4921875 423.046160011 108.404296875 c 0,63,64
 439.162939068 117.696289062 439.162939068 117.696289062 452.240064046 130.229492188 c 128,-1,65
 465.318222217 142.762695312 465.318222217 142.762695312 475.511705273 158.701171875 c 0,66,67
 495.569082787 190.0625 495.569082787 190.0625 495.569082787 241.305664062 c 0,68,69
 495.569082787 291.100585938 495.569082787 291.100585938 456.587740582 309.645507812 c 0,70,71
 413.801148215 330 413.801148215 330 347.450520977 330 c 2,50,-1
330.78924916 631.731445312 m 1,72,-1
 276.275915188 430 l 1,73,-1
 344.276551795 430 l 2,74,75
 380.345322671 430 380.345322671 430 416.958586307 436.040039062 c 0,76,77
 434.815262533 438.986328125 434.815262533 438.986328125 450.658245421 444.381835938 c 128,-1,78
 466.501228309 449.776367188 466.501228309 449.776367188 480.439003133 457.625976562 c 0,79,80
 507.931238144 473.107421875 507.931238144 473.107421875 524.613173823 497.86328125 c 0,81,82
 540.888671875 522.274414062 540.888671875 522.274414062 540.888671875 560.59765625 c 0,83,84
 540.888671875 564.051757812 540.888671875 564.051757812 540.629882812 567.278320312 c 128,-1,85
 540.370117188 570.504882812 540.370117188 570.504882812 539.859375 573.4609375 c 128,-1,86
 539.34765625 576.416015625 539.34765625 576.416015625 538.599609375 579.142578125 c 128,-1,87
 537.850443731 581.869140625 537.850443731 581.869140625 536.801752741 584.372070312 c 128,-1,88
 535.753061752 586.875 535.753061752 586.875 534.481201054 589.143554688 c 128,-1,89
 533.208307164 591.411132812 533.208307164 591.411132812 531.687446931 593.499023438 c 0,90,91
 526.793211249 600.219726562 526.793211249 600.219726562 520.277895605 605.775390625 c 128,-1,92
 513.761546768 611.33203125 513.761546768 611.33203125 505.466039424 615.81640625 c 0,93,94
 488.485510941 624.99609375 488.485510941 624.99609375 464.845019781 629.43359375 c 0,95,96
 440.520554793 634 440.520554793 634 414.103873791 634 c 0,97,98
 403.204719854 634 403.204719854 634 393.241638858 633.947265625 c 128,-1,99
 383.278557862 633.89453125 383.278557862 633.89453125 374.272213671 633.7890625 c 128,-1,100
 365.264836286 633.68359375 365.264836286 633.68359375 357.201797389 633.525390625 c 0,101,102
 340.971367091 633.208007812 340.971367091 633.208007812 330.78924916 631.731445312 c 1,72,-1
EndSplineSet
EndChar

StartChar: C
Encoding: 67 67 38
Width: 628
VWidth: 1177
Flags: W
LayerCount: 2
Fore
SplineSet
420.475835885 -9.8837890625 m 128,-1,1
 385.340720398 -15 385.340720398 -15 345.442028586 -15 c 0,2,3
 230.797386913 -15 230.797386913 -15 167.501953125 54.5556640625 c 0,4,5
 105 123.577148438 105 123.577148438 105 241.264648438 c 0,6,7
 105 333.291015625 105 333.291015625 132.409179688 423.797851562 c 0,8,9
 159.883789062 514.5234375 159.883789062 514.5234375 211.858398438 585.524414062 c 0,10,11
 266.263693216 656.830078125 266.263693216 656.830078125 345.781473379 701.23046875 c 0,12,13
 425.957508187 746 425.957508187 746 525.048562441 746 c 0,14,15
 602.111328125 746 602.111328125 746 647.041992188 726.146484375 c 0,16,17
 691.370117188 710.571289062 691.370117188 710.571289062 712.4765625 696.3046875 c 2,18,-1
 718.92578125 691.9453125 l 1,19,-1
 714.584960938 686.16796875 l 1,20,-1
 668.584960938 619.254882812 l 1,21,-1
 662.348632812 608.81640625 l 1,22,-1
 653.310546875 616.950195312 l 2,23,24
 644.215820312 625.135742188 644.215820312 625.135742188 630.482421875 632.713867188 c 128,-1,25
 616.748046875 640.29296875 616.748046875 640.29296875 598.52133639 647 c 0,26,27
 560.142408044 640 560.142408044 640 517.652999283 640 c 0,28,29
 483.175106694 640 483.175106694 640 452.641583239 631.852539062 c 128,-1,30
 422.107028038 623.705078125 422.107028038 623.705078125 395.128905064 607.356445312 c 0,31,32
 367.799988079 590.795898438 367.799988079 590.795898438 344.682662726 568.984375 c 128,-1,33
 321.566369119 547.173828125 321.566369119 547.173828125 302.580159123 519.994140625 c 128,-1,34
 283.471171224 492.63671875 283.471171224 492.63671875 268.733695755 461.943359375 c 128,-1,35
 253.997252034 431.249023438 253.997252034 431.249023438 243.631288996 397.169921875 c 0,36,37
 223 328.967773438 223 328.967773438 223 256.954101562 c 0,38,39
 223 178.237304688 223 178.237304688 260.299163274 134.048828125 c 0,40,41
 296.745629316 91 296.745629316 91 367.628718062 91 c 0,42,43
 426.134968687 91 426.134968687 91 470.467077756 104.987304688 c 0,44,45
 515.254187293 119.1171875 515.254187293 119.1171875 536.391589976 131.502929688 c 2,46,-1
 550.439858387 139.734375 l 1,47,-1
 552.440415999 124.2109375 l 1,48,-1
 563.005506226 42.2109375 l 1,49,-1
 563.690586295 36.8935546875 l 1,50,-1
 559.393359655 33.4072265625 l 2,51,52
 550.824700052 26.4560546875 550.824700052 26.4560546875 530.396107622 17.8623046875 c 0,53,54
 510.651563513 9.5556640625 510.651563513 9.5556640625 482.943995345 2.3564453125 c 128,-1,0
 455.414919424 -4.7958984375 455.414919424 -4.7958984375 420.475835885 -9.8837890625 c 128,-1,1
EndSplineSet
EndChar

StartChar: D
Encoding: 68 68 39
Width: 628
VWidth: 1177
Flags: W
LayerCount: 2
Fore
SplineSet
586.99609375 667.470703125 m 0,0,1
 657.951171875 598.911132812 657.951171875 598.911132812 657.951171875 474.157226562 c 0,2,3
 657.951171875 428.243164062 657.951171875 428.243164062 651.732421875 383.770507812 c 128,-1,4
 645.513671875 339.296875 645.513671875 339.296875 633.077148438 296.30859375 c 0,5,6
 608.052734375 209.8125 608.052734375 209.8125 554.873046875 142.6171875 c 0,7,8
 527.643029596 108.903320312 527.643029596 108.903320312 491.849207153 81.9130859375 c 128,-1,9
 456.05538471 54.923828125 456.05538471 54.923828125 412.810489641 34.7470703125 c 0,10,11
 391.048282924 24.5927734375 391.048282924 24.5927734375 367.2098014 16.98828125 c 128,-1,12
 343.37235131 9.3828125 343.37235131 9.3828125 317.542172494 4.341796875 c 128,-1,13
 291.711993678 -0.8359375 291.711993678 -0.8359375 263.921060563 -3.41796875 c 128,-1,14
 236.130127447 -6 236.130127447 -6 206.308302582 -6 c 0,15,16
 201.231588924 -6 201.231588924 -6 196.145592369 -5.9443359375 c 128,-1,17
 191.059595813 -5.8896484375 191.059595813 -5.8896484375 185.965347793 -5.7783203125 c 128,-1,18
 180.872131206 -5.66796875 180.872131206 -5.66796875 175.770663154 -5.501953125 c 128,-1,19
 170.668163669 -5.3359375 170.668163669 -5.3359375 165.558444153 -5.1142578125 c 128,-1,20
 160.53125 -4.8935546875 160.53125 -4.8935546875 155.686523438 -4.6162109375 c 128,-1,21
 150.840820312 -4.33984375 150.840820312 -4.33984375 145.98828125 -4.0078125 c 128,-1,22
 141.134765625 -3.67578125 141.134765625 -3.67578125 136.274414062 -3.2890625 c 128,-1,23
 131.4140625 -2.9013671875 131.4140625 -2.9013671875 126.545898438 -2.458984375 c 0,24,25
 87.109375 1.03125 87.109375 1.03125 51.2041015625 11.01953125 c 2,26,-1
 42 13.580078125 l 1,27,-1
 44.2255859375 22.64453125 l 1,28,-1
 216.103822616 711.001953125 l 1,29,-1
 217.625186421 716.869140625 l 1,30,-1
 224.001505769 718.225585938 l 2,31,32
 307.555837339 736 307.555837339 736 383.747799529 736 c 0,33,34
 514.842944978 736 514.842944978 736 586.99609375 667.470703125 c 0,0,1
318.425079217 630.088867188 m 1,35,-1
 180.091336359 82 l 1,36,37
 187.133961482 86.1689453125 187.133961482 86.1689453125 195.924865688 90.1494140625 c 128,-1,38
 204.616752318 94.0849609375 204.616752318 94.0849609375 212.502058274 96.0419921875 c 128,-1,39
 220.38736423 98 220.38736423 98 227.432052219 98 c 0,40,41
 294.647452246 98 294.647452246 98 351.563992893 123.973632812 c 128,-1,42
 408.623902738 150.01171875 408.623902738 150.01171875 450.474300272 197.990234375 c 0,43,44
 471.495938033 222.08984375 471.495938033 222.08984375 487.949358649 250.950195312 c 128,-1,45
 504.402779264 279.810546875 504.402779264 279.810546875 516.278699836 313.505859375 c 128,-1,46
 528.156683274 347.206054688 528.156683274 347.206054688 534.110115056 384.415039062 c 128,-1,47
 539.951171875 421.625 539.951171875 421.625 539.951171875 462.377929688 c 0,48,49
 539.951171875 545.606445312 539.951171875 545.606445312 499.255928156 589.6640625 c 0,50,51
 459.116678114 633 459.116678114 633 370.017362265 633 c 0,52,53
 341.659140951 633 341.659140951 633 318.425079217 630.088867188 c 1,35,-1
EndSplineSet
EndChar

StartChar: E
Encoding: 69 69 40
Width: 628
VWidth: 1177
Flags: W
LayerCount: 2
Fore
SplineSet
84 0 m 1,0,-1
 86.98046875 12.013671875 l 1,1,-1
 266.173490162 721.346679688 l 1,2,-1
 268.121172846 729 l 1,3,-1
 276.420442295 729 l 1,4,-1
 700.701171875 729 l 1,5,-1
 713.43359375 729 l 1,6,-1
 710.416992188 719.055664062 l 1,7,-1
 690.416992188 653.133789062 l 1,8,-1
 688.555664062 647 l 1,9,-1
 680.701171875 647 l 1,10,-1
 365.891343521 647 l 1,11,-1
 314.050248232 433 l 1,12,-1
 588.444973091 433 l 1,13,-1
 601.397460938 433 l 1,14,-1
 598.422851562 420.657226562 l 1,15,-1
 577.610216088 337.657226562 l 1,16,-1
 575.665621696 330 l 1,17,-1
 567.362234524 330 l 1,18,-1
 287.891387405 330 l 1,19,-1
 227.601755231 82 l 1,20,-1
 569.47050838 82 l 1,21,-1
 582.892224466 82 l 1,22,-1
 579.712313361 72.251953125 l 1,23,-1
 558.629574794 7.630859375 l 1,24,-1
 556.667480082 0 l 1,25,-1
 548.387769813 0 l 1,26,-1
 96.701171875 0 l 1,27,-1
 84 0 l 1,0,-1
EndSplineSet
EndChar

StartChar: F
Encoding: 70 70 41
Width: 628
VWidth: 1177
Flags: W
LayerCount: 2
Fore
SplineSet
84 0 m 1,0,-1
 86.98046875 12.013671875 l 1,1,-1
 266.122460822 721.346679688 l 1,2,-1
 268.068544931 729 l 1,3,-1
 276.361002696 729 l 1,4,-1
 706.701171875 729 l 1,5,-1
 719.43359375 729 l 1,6,-1
 716.416992188 719.055664062 l 1,7,-1
 696.416992188 653.133789062 l 1,8,-1
 694.555664062 647 l 1,9,-1
 686.701171875 647 l 1,10,-1
 365.757441449 647 l 1,11,-1
 312.908709132 429 l 1,12,-1
 593.395795799 429 l 1,13,-1
 606.470703125 429 l 1,14,-1
 603.41015625 416.602539062 l 1,15,-1
 582.556559887 335.602539062 l 1,16,-1
 580.579618208 328 l 1,17,-1
 572.330361042 328 l 1,18,-1
 285.745818454 328 l 1,19,-1
 203.432617188 7.6962890625 l 1,20,-1
 201.611328125 -0 l 1,21,-1
 193.701171875 0 l 1,22,-1
 96.701171875 0 l 1,23,-1
 84 0 l 1,0,-1
EndSplineSet
EndChar

StartChar: G
Encoding: 71 71 42
Width: 628
VWidth: 1177
Flags: W
LayerCount: 2
Fore
SplineSet
396.083384336 -11.4365234375 m 128,-1,1
 362.697349876 -15 362.697349876 -15 328.250342635 -15 c 0,2,3
 273.860766182 -14.611328125 273.860766182 -14.611328125 228.888743653 3.302734375 c 0,4,5
 184.90234375 21.2392578125 184.90234375 21.2392578125 155.375 55.11328125 c 0,6,7
 126.11328125 88.681640625 126.11328125 88.681640625 110.002929688 136.232421875 c 0,8,9
 94 183.465820312 94 183.465820312 94 241.485351562 c 0,10,11
 94 333.415039062 94 333.415039062 121.409179688 423.828125 c 0,12,13
 148.890625 514.481445312 148.890625 514.481445312 201.385742188 585.421875 c 0,14,15
 256.387257291 656.616210938 256.387257291 656.616210938 335.438510713 700.956054688 c 0,16,17
 375.296789065 723.3125 375.296789065 723.3125 420.391748071 734.502929688 c 0,18,19
 465.486707077 746 465.486707077 746 515.493959732 746 c 0,20,21
 528.847547052 746 528.847547052 746 540.992431203 745.376953125 c 128,-1,22
 553.137315353 744.75390625 553.137315353 744.75390625 564.246020634 743.484375 c 128,-1,23
 575.354725914 742.215820312 575.354725914 742.215820312 584.99609375 740.298828125 c 0,24,25
 612.983398438 734.59765625 612.983398438 734.59765625 633.911132812 725.703125 c 0,26,27
 654.693359375 718.635742188 654.693359375 718.635742188 669.407226562 711.067382812 c 128,-1,28
 684.311523438 703.400390625 684.311523438 703.400390625 694.071289062 695.590820312 c 2,29,-1
 699.581054688 691.182617188 l 1,30,-1
 695.584960938 685.829101562 l 1,31,-1
 649.584960938 618.526367188 l 1,32,-1
 643.348632812 608.087890625 l 1,33,-1
 634.310546875 616.22265625 l 2,34,35
 628.131835938 621.783203125 628.131835938 621.783203125 620.536132812 627.0390625 c 128,-1,36
 612.940429688 632.294921875 612.940429688 632.294921875 603.752929688 637.321289062 c 128,-1,37
 594.564453125 642.34765625 594.564453125 642.34765625 583.977539062 647 c 0,38,39
 567.865931663 644.013671875 567.865931663 644.013671875 548.8541672 642.506835938 c 128,-1,40
 529.842402737 641 529.842402737 641 508.088844931 641 c 0,41,42
 439.318800004 641 439.318800004 641 384.839345624 608.328125 c 0,43,44
 329.587147679 575.19140625 329.587147679 575.19140625 291.657628999 521.420898438 c 0,45,46
 253.394425598 467.176757812 253.394425598 467.176757812 232.665682787 398.15625 c 128,-1,47
 212 328.9609375 212 328.9609375 212 256.916015625 c 0,48,49
 212 217.217773438 212 217.217773438 221.336931545 186.291992188 c 128,-1,50
 230.789610175 155.366210938 230.789610175 155.366210938 249.407771299 132.946289062 c 0,51,52
 285.90337545 89 285.90337545 89 356.812928294 89 c 0,53,54
 386.41995746 89 386.41995746 89 408.644599578 93.296875 c 0,55,56
 411.208703224 93.79296875 411.208703224 93.79296875 413.754211437 94.3056640625 c 128,-1,57
 416.29971965 94.818359375 416.29971965 94.818359375 418.674769723 95.3154296875 c 128,-1,58
 421.050852876 95.8134765625 421.050852876 95.8134765625 423.351521216 96.3134765625 c 128,-1,59
 425.653222636 96.814453125 425.653222636 96.814453125 427.762771244 97.291015625 c 128,-1,60
 429.873352931 97.7685546875 429.873352931 97.7685546875 431.850667346 98.234375 c 128,-1,61
 433.826948682 98.69921875 433.826948682 98.69921875 435.591448693 99.1337890625 c 128,-1,62
 437.355948704 99.568359375 437.355948704 99.568359375 438.930362063 99.9765625 c 2,63,-1
 507.321266765 370.326171875 l 1,64,-1
 509.262423393 378 l 1,65,-1
 517.609706817 378 l 1,66,-1
 618 378 l 1,67,-1
 630.680664062 378 l 1,68,-1
 627.724609375 365.66796875 l 1,69,-1
 543.765216934 23.66796875 l 1,70,-1
 542.547216048 18.8671875 l 1,71,-1
 537.77438815 16.8623046875 l 2,72,73
 527.443591832 12.521484375 527.443591832 12.521484375 505.955535492 7.3134765625 c 0,74,75
 503.327380908 6.67578125 503.327380908 6.67578125 500.592819123 6.0400390625 c 128,-1,76
 497.858257338 5.4033203125 497.858257338 5.4033203125 495.020387589 4.7685546875 c 128,-1,77
 492.183550921 4.1337890625 492.183550921 4.1337890625 489.241340129 3.5 c 128,-1,78
 486.299129338 2.8662109375 486.299129338 2.8662109375 483.251544424 2.232421875 c 128,-1,79
 480.203959511 1.599609375 480.203959511 1.599609375 477.053066634 0.9677734375 c 128,-1,80
 473.902173757 0.3359375 473.902173757 0.3359375 470.643840599 -0.2958984375 c 128,-1,81
 467.38447436 -0.927734375 467.38447436 -0.927734375 464.023866318 -1.55859375 c 128,-1,82
 460.663258276 -2.189453125 460.663258276 -2.189453125 457.193143793 -2.8203125 c 0,83,0
 429.285530621 -7.8935546875 429.285530621 -7.8935546875 396.083384336 -11.4365234375 c 128,-1,1
EndSplineSet
EndChar

StartChar: H
Encoding: 72 72 43
Width: 628
VWidth: 1177
Flags: W
LayerCount: 2
Fore
SplineSet
607.80859375 729 m 1,0,-1
 615.684570312 729 l 1,1,-1
 712.684570312 729 l 1,2,-1
 725.385742188 729 l 1,3,-1
 722.405273438 716.986328125 l 1,4,-1
 543.619139524 7.6533203125 l 1,5,-1
 541.684203232 -0 l 1,6,-1
 533.439247429 0 l 1,7,-1
 432.904375778 0 l 1,8,-1
 419.634926318 0 l 1,9,-1
 422.718347522 12.32421875 l 1,10,-1
 504.461224274 339 l 1,11,-1
 244.264450488 339 l 1,12,-1
 160.404296875 7.6484375 l 1,13,-1
 158.553710938 0 l 1,14,-1
 150.684570312 0 l 1,15,-1
 54.6845703125 0 l 1,16,-1
 42 0 l 1,17,-1
 44.9609375 12.001953125 l 1,18,-1
 222.698910546 721.333984375 l 1,19,-1
 224.625665288 729 l 1,20,-1
 232.881870721 729 l 1,21,-1
 333.416742372 729 l 1,22,-1
 346.671874122 729 l 1,23,-1
 343.604816015 716.686523438 l 1,24,-1
 270.223482136 422 l 1,25,-1
 530.427414777 422 l 1,26,-1
 605.962890625 721.34375 l 1,27,-1
 607.80859375 729 l 1,0,-1
EndSplineSet
EndChar

StartChar: I
Encoding: 73 73 44
Width: 628
VWidth: 1177
Flags: W
LayerCount: 2
Fore
SplineSet
649.732421875 647 m 1,0,-1
 514.946489299 647 l 1,1,-1
 374.986231415 82 l 1,2,-1
 511.911946785 82 l 1,3,-1
 525.395699599 82 l 1,4,-1
 522.200845534 72.251953125 l 1,5,-1
 501.019035484 7.630859375 l 1,6,-1
 499.047720544 0 l 1,7,-1
 490.730136734 0 l 1,8,-1
 96.732421875 0 l 1,9,-1
 84 0 l 1,10,-1
 87.0166015625 9.9443359375 l 1,11,-1
 107.016601562 75.8662109375 l 1,12,-1
 108.877929688 82 l 1,13,-1
 116.732421875 82 l 1,14,-1
 251.489452651 82 l 1,15,-1
 389.405996831 647 l 1,16,-1
 254.552954671 647 l 1,17,-1
 241.068167589 647 l 1,18,-1
 244.263021653 656.748046875 l 1,19,-1
 265.444831704 721.369140625 l 1,20,-1
 267.416146643 729 l 1,21,-1
 275.734764721 729 l 1,22,-1
 669.732421875 729 l 1,23,-1
 682.463867188 729 l 1,24,-1
 679.447265625 719.055664062 l 1,25,-1
 659.447265625 653.133789062 l 1,26,-1
 657.5859375 647 l 1,27,-1
 649.732421875 647 l 1,0,-1
EndSplineSet
EndChar

StartChar: J
Encoding: 74 74 45
Width: 628
VWidth: 1177
Flags: W
LayerCount: 2
Fore
SplineSet
698.0546875 729 m 1,0,-1
 695.118164062 717.012695312 l 1,1,-1
 577.047440743 235.259765625 l 2,2,3
 572.40709514 218.481445312 572.40709514 218.481445312 567.37498519 202.435546875 c 128,-1,4
 562.343906198 186.388671875 562.343906198 186.388671875 556.897350806 171.00390625 c 128,-1,5
 551.450795414 155.619140625 551.450795414 155.619140625 545.566082528 140.823242188 c 0,6,7
 527.463476788 95.3173828125 527.463476788 95.3173828125 494.480011587 60.861328125 c 0,8,9
 477.842398315 43.4814453125 477.842398315 43.4814453125 456.675782992 29.708984375 c 128,-1,10
 435.509167669 15.9375 435.509167669 15.9375 409.973348911 5.8134765625 c 0,11,12
 358.886247011 -15 358.886247011 -15 281.757125577 -15 c 0,13,14
 241.481688715 -15 241.481688715 -15 208.627093365 -7.73828125 c 0,15,16
 177.310546875 -0.5498046875 177.310546875 -0.5498046875 152.544921875 9.76953125 c 0,17,18
 127.553710938 20.1826171875 127.553710938 20.1826171875 110.172851562 32.2958984375 c 0,19,20
 101.379882812 38.4248046875 101.379882812 38.4248046875 94.7802734375 44.2138671875 c 128,-1,21
 88.181640625 50.00390625 88.181640625 50.00390625 83.58203125 55.7529296875 c 2,22,-1
 79 61.4814453125 l 1,23,-1
 83.087890625 67.572265625 l 1,24,-1
 134.087890625 143.572265625 l 1,25,-1
 140.86328125 153.669921875 l 1,26,-1
 149.461914062 145.071289062 l 2,27,28
 150.528320312 144.004882812 150.528320312 144.004882812 151.701171875 142.880859375 c 128,-1,29
 152.873046875 141.756835938 152.873046875 141.756835938 154.159179688 140.568359375 c 128,-1,30
 155.4453125 139.380859375 155.4453125 139.380859375 156.833007812 138.138671875 c 128,-1,31
 158.221679688 136.897460938 158.221679688 136.897460938 159.724609375 135.592773438 c 128,-1,32
 161.227539062 134.287109375 161.227539062 134.287109375 162.828125 132.932617188 c 128,-1,33
 164.4296875 131.578125 164.4296875 131.578125 166.146484375 130.16015625 c 128,-1,34
 167.86328125 128.743164062 167.86328125 128.743164062 169.674804688 127.279296875 c 0,35,36
 181.876953125 117.423828125 181.876953125 117.423828125 198.46484375 108.892578125 c 0,37,38
 216.087111313 100.293945312 216.087111313 100.293945312 237.372286899 94.052734375 c 0,39,40
 258.017237064 88 258.017237064 88 283.868529219 88 c 0,41,42
 354.260334831 88 354.260334831 88 392.833658698 126.850585938 c 0,43,44
 412.421876084 146.580078125 412.421876084 146.580078125 428.134719303 179.001953125 c 128,-1,45
 443.846531564 211.424804688 443.846531564 211.424804688 455.186047512 256.33984375 c 2,46,-1
 554.452947468 647 l 1,47,-1
 307.093969285 647 l 1,48,-1
 293.968832678 647 l 1,49,-1
 296.783350229 656.564453125 l 1,50,-1
 315.78598301 721.14453125 l 1,51,-1
 317.605625309 729 l 1,52,-1
 326.096602067 729 l 1,53,-1
 685.390625 729 l 1,54,-1
 698.0546875 729 l 1,0,-1
EndSplineSet
EndChar

StartChar: K
Encoding: 75 75 46
Width: 628
VWidth: 1177
Flags: W
LayerCount: 2
Fore
SplineSet
748.6796875 729 m 1,0,-1
 732.978515625 712.625976562 l 2,1,2
 690.865234375 668.708984375 690.865234375 668.708984375 648.739257812 627.708007812 c 0,3,4
 605.665685674 586.767578125 605.665685674 586.767578125 559.58252686 545.345703125 c 128,-1,5
 513.587207747 504.002929688 513.587207747 504.002929688 466.020987925 460.7109375 c 0,6,7
 421.813104601 420.4765625 421.813104601 420.4765625 370.400322961 377.766601562 c 1,8,9
 382.974678388 364.17578125 382.974678388 364.17578125 394.849380377 350.033203125 c 128,-1,10
 406.724082367 335.891601562 406.724082367 335.891601562 420.123722433 318.610351562 c 0,11,12
 435.20355214 299.16015625 435.20355214 299.16015625 450.124044714 277.412109375 c 128,-1,13
 465.044537288 255.6640625 465.044537288 255.6640625 479.816928039 231.607421875 c 0,14,15
 509.273869841 183.635742188 509.273869841 183.635742188 538.187431162 128.35546875 c 128,-1,16
 567.194960537 72.8955078125 567.194960537 72.8955078125 590.393834293 13.03515625 c 2,17,-1
 595.445638529 0 l 1,18,-1
 580.555787711 0 l 1,19,-1
 470.73573284 0 l 1,20,-1
 463.384775484 0 l 1,21,-1
 460.894622082 6.61328125 l 2,22,23
 437.531304233 68.6630859375 437.531304233 68.6630859375 412.127245409 120.834960938 c 128,-1,24
 386.722165193 173.0078125 386.722165193 173.0078125 359.346820042 215.231445312 c 0,25,26
 310.685668124 290.287109375 310.685668124 290.287109375 255.034110184 341.9296875 c 1,27,-1
 172.399414062 7.69921875 l 1,28,-1
 170.579101562 -0 l 1,29,-1
 162.66796875 0 l 1,30,-1
 65.66796875 0 l 1,31,-1
 53 0 l 1,32,-1
 55.94140625 11.9892578125 l 1,33,-1
 232.555317703 721.321289062 l 1,34,-1
 234.471448869 729 l 1,35,-1
 242.728380822 729 l 1,36,-1
 344.181193417 729 l 1,37,-1
 357.4654162 729 l 1,38,-1
 354.348128184 716.653320312 l 1,39,-1
 281.683245709 428.825195312 l 1,40,41
 303.906690221 447.924804688 303.906690221 447.924804688 325.057673259 466.486328125 c 128,-1,42
 346.209677689 485.048828125 346.209677689 485.048828125 366.352546943 503.12890625 c 128,-1,43
 386.494394804 521.209960938 386.494394804 521.209960938 405.632214448 538.811523438 c 128,-1,44
 424.7690127 556.412109375 424.7690127 556.412109375 442.99166522 573.615234375 c 0,45,46
 463.731027331 593.1953125 463.731027331 593.1953125 483.65429733 612.493164062 c 128,-1,47
 503.576545938 631.791015625 503.576545938 631.791015625 522.679638258 650.803710938 c 128,-1,48
 541.781709186 669.815429688 541.781709186 669.815429688 560.064623827 688.541992188 c 128,-1,49
 578.346517076 707.268554688 578.346517076 707.268554688 595.812318213 725.711914062 c 2,50,-1
 598.926542054 729 l 1,51,-1
 603.56570397 729 l 1,52,-1
 725.66796875 729 l 1,53,-1
 748.6796875 729 l 1,0,-1
EndSplineSet
EndChar

StartChar: L
Encoding: 76 76 47
Width: 628
VWidth: 1177
Flags: W
LayerCount: 2
Fore
SplineSet
541.266601562 82 m 1,0,-1
 538.426757812 72.34375 l 1,1,-1
 519.426757812 7.7431640625 l 1,2,-1
 517.6328125 0 l 1,3,-1
 509.684570312 0 l 1,4,-1
 76.6845703125 0 l 1,5,-1
 64 0 l 1,6,-1
 66.9609375 12.001953125 l 1,7,-1
 247.296404349 721.333984375 l 1,8,-1
 249.305610876 729 l 1,9,-1
 257.915124832 729 l 1,10,-1
 363.844246869 729 l 1,11,-1
 377.711397862 729 l 1,12,-1
 374.460834436 716.65625 l 1,13,-1
 207.351160359 82 l 1,14,-1
 528.684570312 82 l 1,15,-1
 541.266601562 82 l 1,0,-1
EndSplineSet
EndChar

StartChar: M
Encoding: 77 77 48
Width: 628
VWidth: 1177
Flags: W
LayerCount: 2
Fore
SplineSet
594.180664062 729 m 1,0,-1
 600.07421875 729 l 1,1,-1
 690.07421875 729 l 1,2,-1
 701.064453125 729 l 1,3,-1
 700.029296875 718.353515625 l 2,4,5
 693.00390625 646.081054688 693.00390625 646.081054688 679.961914062 562.133789062 c 128,-1,6
 666.946289062 478.353515625 666.946289062 478.353515625 650.930664062 387.291992188 c 128,-1,7
 634.912109375 296.208984375 634.912109375 296.208984375 615.893554688 200.272460938 c 128,-1,8
 596.884765625 104.389648438 596.884765625 104.389648438 576.676555901 8.01953125 c 2,9,-1
 574.979302113 -0 l 1,10,-1
 566.408119333 0 l 1,11,-1
 466.885003925 0 l 1,12,-1
 453.869655712 0 l 1,13,-1
 456.651351341 12.13671875 l 2,14,15
 471.335307708 76.216796875 471.335307708 76.216796875 489.682835995 151.272460938 c 128,-1,16
 507.999672531 226.208007812 507.999672531 226.208007812 526.319578243 305.649414062 c 128,-1,17
 544.648691479 385.130859375 544.648691479 385.130859375 562.977804715 466.111328125 c 0,18,19
 573.752655162 513.717773438 573.752655162 513.717773438 583.322265625 559.71484375 c 1,20,-1
 420.501584863 282.112304688 l 1,21,-1
 417.500954749 277 l 1,22,-1
 411.361581645 277 l 1,23,-1
 323.36219539 277 l 1,24,-1
 313.351569524 277 l 1,25,-1
 312.897331621 286.545898438 l 2,26,27
 310.809269547 330.380859375 310.809269547 330.380859375 307.155928212 375.224609375 c 128,-1,28
 303.494402409 420.15625 303.494402409 420.15625 299.311116853 463.583984375 c 128,-1,29
 295.124762122 507.04296875 295.124762122 507.04296875 290.939430449 546.4921875 c 0,30,31
 290.056531101 554.81640625 290.056531101 554.81640625 289.123501894 563.258789062 c 1,32,33
 274.805800412 509.040039062 274.805800412 509.040039062 260.178112254 454.51953125 c 0,34,35
 238.158827581 372.44921875 238.158827581 372.44921875 215.61471398 293.374023438 c 128,-1,36
 193.102315188 214.416015625 193.102315188 214.416015625 173.210991865 141.96484375 c 128,-1,37
 153.294092083 69.41796875 153.294092083 69.41796875 135.717773438 7.35546875 c 2,38,-1
 133.701171875 -0 l 1,39,-1
 126.07421875 0 l 1,40,-1
 34.07421875 0 l 1,41,-1
 21 0 l 1,42,-1
 24.4228515625 12.2783203125 l 2,43,44
 75.46875 195.377929688 75.46875 195.377929688 131.025390625 369.24609375 c 0,45,46
 188.770686172 543.169921875 188.770686172 543.169921875 259.042517495 722.421875 c 2,47,-1
 261.552079605 729 l 1,48,-1
 268.886384852 729 l 1,49,-1
 362.123829812 729 l 1,50,-1
 371.754901034 729 l 1,51,-1
 372.563117123 719.838867188 l 2,52,53
 380.950149402 624.767578125 380.950149402 624.767578125 387.241958199 537.184570312 c 0,54,55
 389.79448876 501.657226562 389.79448876 501.657226562 392.575161331 464.487304688 c 128,-1,56
 395.35685696 427.317382812 395.35685696 427.317382812 398.242904539 390.147460938 c 1,57,-1
 591.326171875 723.84375 l 1,58,-1
 594.180664062 729 l 1,0,-1
EndSplineSet
EndChar

StartChar: N
Encoding: 78 78 49
Width: 628
VWidth: 1177
Flags: W
LayerCount: 2
Fore
SplineSet
427.009959482 0 m 1,0,-1
 425.574661211 8.388671875 l 2,1,2
 408.839062916 106.243164062 408.839062916 106.243164062 392.630320365 186.09765625 c 128,-1,3
 376.437946148 265.875976562 376.437946148 265.875976562 358.685465115 336.15625 c 0,4,5
 349.802574962 371.318359375 349.802574962 371.318359375 340.660860532 404.852539062 c 128,-1,6
 331.520169122 438.387695312 331.520169122 438.387695312 322.119630414 470.29296875 c 0,7,8
 315.479201993 492.829101562 315.479201993 492.829101562 308.687366484 516.010742188 c 128,-1,9
 301.895530976 539.192382812 301.895530976 539.192382812 295.265332764 561.943359375 c 1,10,-1
 157.4296875 7.6826171875 l 1,11,-1
 155.599609375 0 l 1,12,-1
 147.701171875 0 l 1,13,-1
 59.701171875 0 l 1,14,-1
 47 0 l 1,15,-1
 49.98046875 12.013671875 l 1,16,-1
 228.786368033 721.346679688 l 1,17,-1
 230.721923505 729 l 1,18,-1
 238.969517702 729 l 1,19,-1
 338.48898724 729 l 1,20,-1
 346.233255172 729 l 1,21,-1
 348.504361488 721.93359375 l 2,22,23
 376.8082797 633.873046875 376.8082797 633.873046875 397.265627895 566.275390625 c 128,-1,24
 417.737298381 498.630859375 417.737298381 498.630859375 434.543485116 435.461914062 c 128,-1,25
 451.37217831 372.20703125 451.37217831 372.20703125 465.56352372 304.975585938 c 0,26,27
 475.676084949 257.06640625 475.676084949 257.06640625 486.75130881 197.578125 c 1,28,-1
 616.973632812 721.317382812 l 1,29,-1
 618.803710938 729 l 1,30,-1
 626.701171875 729 l 1,31,-1
 714.701171875 729 l 1,32,-1
 727.403320312 729 l 1,33,-1
 724.421875 716.986328125 l 1,34,-1
 545.615929259 7.6533203125 l 1,35,-1
 543.680373786 -0 l 1,36,-1
 535.43277959 0 l 1,37,-1
 435.913310051 0 l 1,38,-1
 427.009959482 0 l 1,0,-1
EndSplineSet
EndChar

StartChar: O
Encoding: 79 79 50
Width: 628
VWidth: 1177
Flags: W
LayerCount: 2
Fore
SplineSet
532.01689181 610.18359375 m 0,0,1
 505.998826916 642 505.998826916 642 459.303405573 642 c 0,2,3
 401.935900614 642 401.935900614 642 356.688174221 603.134765625 c 0,4,5
 333.308315596 583.052734375 333.308315596 583.052734375 313.714656298 557.62890625 c 128,-1,6
 294.11995997 532.205078125 294.11995997 532.205078125 278.315611092 501.356445312 c 0,7,8
 246.433137215 439.125976562 246.433137215 439.125976562 229.162426833 365.873046875 c 128,-1,9
 212 292.555664062 212 292.555664062 212 228.913085938 c 0,10,11
 212 151.197265625 212 151.197265625 239.847991849 119.084960938 c 0,12,13
 266.923828125 88 266.923828125 88 314.882352941 88 c 0,14,15
 372.181413869 88 372.181413869 88 416.349591235 126.791015625 c 0,16,17
 462.214350934 167.0703125 462.214350934 167.0703125 494.305267995 228.698242188 c 0,18,19
 526.669961179 290.849609375 526.669961179 290.849609375 542.872529871 364.008789062 c 0,20,21
 559 437.383789062 559 437.383789062 559 501.086914062 c 0,22,23
 559 577.036132812 559 577.036132812 532.01689181 610.18359375 c 0,0,1
403.941518116 738.828125 m 128,-1,25
 435.790807009 746 435.790807009 746 470.984520124 746 c 0,26,27
 486.63746251 746 486.63746251 746 501.395447344 744.356445312 c 128,-1,28
 516.153432179 742.712890625 516.153432179 742.712890625 529.991570724 739.431640625 c 128,-1,29
 543.828672238 736.150390625 543.828672238 736.150390625 556.731409032 731.216796875 c 0,30,31
 568.8984375 726.283203125 568.8984375 726.283203125 580.119140625 719.72265625 c 128,-1,32
 591.33984375 713.336914062 591.33984375 713.336914062 601.64453125 705.330078125 c 128,-1,33
 611.94921875 697.32421875 611.94921875 697.32421875 621.262695312 687.744140625 c 0,34,35
 649.424804688 658.77734375 649.424804688 658.77734375 663.211914062 614.1953125 c 128,-1,36
 677 569.61328125 677 569.61328125 677 509.716796875 c 0,37,38
 677 487.897460938 677 487.897460938 674.97265625 463.23046875 c 128,-1,39
 672.9453125 438.5625 672.9453125 438.5625 668.899414062 410.990234375 c 128,-1,40
 664.842773438 383.34375 664.842773438 383.34375 658.2578125 354.989257812 c 128,-1,41
 651.672851562 326.635742188 651.672851562 326.635742188 642.564453125 297.573242188 c 0,42,43
 624.334960938 239.405273438 624.334960938 239.405273438 596.491210938 183.71484375 c 0,44,45
 568.391601562 127.512695312 568.391601562 127.512695312 526.717664595 83.6806640625 c 0,46,47
 484.040737471 39.541015625 484.040737471 39.541015625 428.735886707 12.4345703125 c 0,48,49
 372.763188129 -15 372.763188129 -15 302.139318885 -15 c 0,50,51
 206.723632812 -15 206.723632812 -15 150.26953125 42.564453125 c 128,-1,52
 94 99.94140625 94 99.94140625 94 220.745117188 c 0,53,54
 94 235.329101562 94 235.329101562 94.9619140625 251.143554688 c 128,-1,55
 95.923828125 266.958007812 95.923828125 266.958007812 97.8359375 283.934570312 c 128,-1,56
 99.748046875 300.912109375 99.748046875 300.912109375 102.615234375 319.1484375 c 0,57,58
 106.918945312 346.525390625 106.918945312 346.525390625 113.495117188 374.734375 c 128,-1,59
 120.0703125 402.942382812 120.0703125 402.942382812 128.913085938 431.984375 c 0,60,61
 146.66796875 490.296875 146.66796875 490.296875 175.571289062 546.116210938 c 0,62,63
 181.376953125 557.328125 181.376953125 557.328125 187.592773438 568.048828125 c 128,-1,64
 193.80859375 578.76953125 193.80859375 578.76953125 200.443359375 589.01171875 c 128,-1,65
 207.078125 599.252929688 207.078125 599.252929688 214.131702907 609.000976562 c 0,66,67
 221.612842855 618.749023438 221.612842855 618.749023438 229.539906032 628.013671875 c 128,-1,68
 237.46696921 637.279296875 237.46696921 637.279296875 245.830622339 646.046875 c 0,69,70
 287.977626741 690.233398438 287.977626741 690.233398438 343.823807566 717.858398438 c 0,71,24
 372.091192192 731.840820312 372.091192192 731.840820312 403.941518116 738.828125 c 128,-1,25
EndSplineSet
EndChar

StartChar: P
Encoding: 80 80 51
Width: 628
VWidth: 1177
Flags: W
LayerCount: 2
Fore
SplineSet
423.169359825 735.748046875 m 128,-1,1
 435.419221028 736 435.419221028 736 446.62728703 736 c 0,2,3
 472.904250163 736 472.904250163 736 496.786115812 733.0625 c 128,-1,4
 520.669012941 730.124023438 520.669012941 730.124023438 542.240362499 724.22265625 c 0,5,6
 563.58984375 718.447265625 563.58984375 718.447265625 581.756835938 709.686523438 c 128,-1,7
 599.922851562 700.92578125 599.922851562 700.92578125 615.686523438 689.225585938 c 0,8,9
 647.61328125 665.526367188 647.61328125 665.526367188 663.62890625 630.38671875 c 128,-1,10
 679.64453125 595.24609375 679.64453125 595.24609375 679.64453125 549.774414062 c 0,11,12
 679.64453125 485.020507812 679.64453125 485.020507812 655.256835938 432.19921875 c 0,13,14
 647.131835938 414.602539062 647.131835938 414.602539062 636.67578125 398.604492188 c 128,-1,15
 626.219726562 382.606445312 626.219726562 382.606445312 613.461914062 368.250976562 c 128,-1,16
 600.704101562 353.895507812 600.704101562 353.895507812 585.673828125 341.211914062 c 0,17,18
 539.643094857 303.26953125 539.643094857 303.26953125 474.334913474 282.591796875 c 0,19,20
 441.767982876 272.280273438 441.767982876 272.280273438 405.783757721 267.139648438 c 128,-1,21
 369.798501085 262 369.798501085 262 330.441335028 262 c 2,22,-1
 248.966761371 262 l 1,23,-1
 181.362304688 7.6416015625 l 1,24,-1
 179.5078125 -0 l 1,25,-1
 171.64453125 0 l 1,26,-1
 76.64453125 0 l 1,27,-1
 64 0 l 1,28,-1
 66.9130859375 11.9736328125 l 1,29,-1
 239.888702391 710.696289062 l 1,30,-1
 241.344121232 716.358398438 l 1,31,-1
 247.445327785 717.857421875 l 2,32,33
 263.985115963 721.920898438 263.985115963 721.920898438 290.050625614 724.922851562 c 0,34,35
 315.453924849 727.928710938 315.453924849 727.928710938 342.961444096 730.934570312 c 0,36,37
 349.92187382 731.694335938 349.92187382 731.694335938 356.816288799 732.328125 c 128,-1,38
 363.711735258 732.961914062 363.711735258 732.961914062 370.544261412 733.469726562 c 128,-1,39
 377.375756086 733.9765625 377.375756086 733.9765625 384.145361937 734.357421875 c 128,-1,40
 390.913936307 734.73828125 390.913936307 734.73828125 397.617527412 734.9921875 c 0,41,0
 410.919498621 735.49609375 410.919498621 735.49609375 423.169359825 735.748046875 c 128,-1,1
480.179281408 628.940429688 m 0,42,43
 455.994160522 634 455.994160522 634 430.783748121 634 c 0,44,45
 425.139487384 634 425.139487384 634 419.601469129 633.942382812 c 128,-1,46
 414.062419393 633.885742188 414.062419393 633.885742188 408.63476954 633.771484375 c 128,-1,47
 403.207119687 633.657226562 403.207119687 633.657226562 397.884680835 633.485351562 c 128,-1,48
 392.562241982 633.313476562 392.562241982 633.313476562 387.350171533 633.0859375 c 128,-1,49
 382.138101083 632.857421875 382.138101083 632.857421875 377.032273114 632.572265625 c 0,50,51
 357.750810039 631.494140625 357.750810039 631.494140625 345.325597168 630.145507812 c 1,52,-1
 274.190583018 365 l 1,53,-1
 344.172402083 365 l 2,54,55
 451.044086093 365 451.044086093 365 507.715682106 411.237304688 c 0,56,57
 563.64453125 457.051757812 563.64453125 457.051757812 563.64453125 540.4765625 c 0,58,59
 563.64453125 549.078125 563.64453125 549.078125 562.42578125 556.747070312 c 128,-1,60
 561.20703125 564.415039062 561.20703125 564.415039062 558.816252491 570.991210938 c 128,-1,61
 556.336573614 577.568359375 556.336573614 577.568359375 552.640779349 583.33203125 c 0,62,63
 541.196504336 601.178710938 541.196504336 601.178710938 522.625731255 612.479492188 c 0,64,65
 503.641334535 624.033203125 503.641334535 624.033203125 480.179281408 628.940429688 c 0,42,43
EndSplineSet
EndChar

StartChar: Q
Encoding: 81 81 52
Width: 628
VWidth: 1177
Flags: W
LayerCount: 2
Fore
SplineSet
403.941518116 738.828125 m 128,-1,1
 435.790807009 746 435.790807009 746 470.984520124 746 c 0,2,3
 486.63746251 746 486.63746251 746 501.395447344 744.356445312 c 128,-1,4
 516.153432179 742.712890625 516.153432179 742.712890625 529.991570724 739.431640625 c 128,-1,5
 543.828672238 736.150390625 543.828672238 736.150390625 556.731409032 731.216796875 c 0,6,7
 568.8984375 726.283203125 568.8984375 726.283203125 580.119140625 719.72265625 c 128,-1,8
 591.33984375 713.340820312 591.33984375 713.340820312 601.64453125 705.33984375 c 128,-1,9
 611.94921875 697.338867188 611.94921875 697.338867188 621.262695312 687.765625 c 0,10,11
 649.424804688 658.818359375 649.424804688 658.818359375 663.211914062 614.265625 c 128,-1,12
 677 569.713867188 677 569.713867188 677 509.856445312 c 0,13,14
 677 469.3359375 677 469.3359375 669.915039062 416.66015625 c 0,15,16
 668.139648438 403.458984375 668.139648438 403.458984375 665.794921875 390.108398438 c 128,-1,17
 663.44921875 376.7578125 663.44921875 376.7578125 660.536132812 363.265625 c 128,-1,18
 657.623046875 349.7734375 657.623046875 349.7734375 654.142578125 336.139648438 c 128,-1,19
 650.663085938 322.505859375 650.663085938 322.505859375 646.615234375 308.721679688 c 0,20,21
 630.416992188 253.567382812 630.416992188 253.567382812 605.62109375 199.90625 c 0,22,23
 593.125 172.86328125 593.125 172.86328125 577.923828125 148.381835938 c 128,-1,24
 562.723632812 123.901367188 562.723632812 123.901367188 544.072374468 102.012695312 c 0,25,26
 505.885790562 58.033203125 505.885790562 58.033203125 455.681057106 27.037109375 c 0,27,28
 432.292902235 12.5986328125 432.292902235 12.5986328125 406.20639331 3.0283203125 c 0,29,30
 380.119884385 -6.8095703125 380.119884385 -6.8095703125 352.051609665 -11.533203125 c 1,31,32
 352.513088356 -43.2666015625 352.513088356 -43.2666015625 393.726765069 -64.1982421875 c 0,33,34
 416.301887819 -75.6640625 416.301887819 -75.6640625 446.643333978 -83.9326171875 c 128,-1,35
 476.984780137 -92.201171875 476.984780137 -92.201171875 514.902773075 -97.0927734375 c 2,36,-1
 530.156458616 -99.060546875 l 1,37,-1
 522.784206898 -111.788085938 l 1,38,-1
 478.183587703 -188.788085938 l 1,39,-1
 474.477239745 -195.1875 l 1,40,-1
 466.873730166 -193.823242188 l 2,41,42
 421.887335526 -185.75390625 421.887335526 -185.75390625 377.970119606 -174.658203125 c 0,43,44
 355.445811363 -168.967773438 355.445811363 -168.967773438 335.686227143 -160.900390625 c 128,-1,45
 315.927679954 -152.833007812 315.927679954 -152.833007812 298.971189895 -142.362304688 c 0,46,47
 290.370056719 -137.05078125 290.370056719 -137.05078125 282.620325803 -130.948242188 c 128,-1,48
 274.870594887 -124.844726562 274.870594887 -124.844726562 268.00026606 -117.975585938 c 128,-1,49
 261.129937234 -111.106445312 261.129937234 -111.106445312 255.141084559 -103.469726562 c 128,-1,50
 249.151194853 -95.833984375 249.151194853 -95.833984375 244.070781129 -87.4609375 c 0,51,52
 224.037420787 -54.4462890625 224.037420787 -54.4462890625 223.559349603 -3.478515625 c 1,53,54
 165.241210938 14.6484375 165.241210938 14.6484375 130.563476562 67.712890625 c 0,55,56
 94 123.662109375 94 123.662109375 94 220.953125 c 0,57,58
 94 235.53125 94 235.53125 94.9619140625 251.338867188 c 128,-1,59
 95.923828125 267.147460938 95.923828125 267.147460938 97.8359375 284.1171875 c 128,-1,60
 99.748046875 301.086914062 99.748046875 301.086914062 102.615234375 319.31640625 c 0,61,62
 106.918945312 346.682617188 106.918945312 346.682617188 113.495117188 374.879882812 c 128,-1,63
 120.0703125 403.077148438 120.0703125 403.077148438 128.913085938 432.107421875 c 0,64,65
 146.66796875 490.396484375 146.66796875 490.396484375 175.571289062 546.194335938 c 0,66,67
 181.376953125 557.400390625 181.376953125 557.400390625 187.592773438 568.1171875 c 128,-1,68
 193.80859375 578.833984375 193.80859375 578.833984375 200.443359375 589.071289062 c 128,-1,69
 207.078125 599.309570312 207.078125 599.309570312 214.131702907 609.053710938 c 0,70,71
 221.612842855 618.796875 221.612842855 618.796875 229.539906032 628.05859375 c 128,-1,72
 237.46696921 637.3203125 237.46696921 637.3203125 245.830622339 646.083984375 c 0,73,74
 287.977626741 690.252929688 287.977626741 690.252929688 343.823807566 717.866210938 c 0,75,0
 372.091192192 731.84375 372.091192192 731.84375 403.941518116 738.828125 c 128,-1,1
532.01689181 609.03515625 m 0,76,77
 505.998826916 642 505.998826916 642 459.303405573 642 c 0,78,79
 401.935900614 642 401.935900614 642 356.688174221 601.732421875 c 0,80,81
 333.308315596 580.924804688 333.308315596 580.924804688 313.714656298 554.583007812 c 128,-1,82
 294.11995997 528.241210938 294.11995997 528.241210938 278.315611092 496.278320312 c 0,83,84
 246.433137215 431.801757812 246.433137215 431.801757812 229.162426833 355.904296875 c 128,-1,85
 212 279.940429688 212 279.940429688 212 214 c 0,86,87
 212 133.479492188 212 133.479492188 239.847991849 100.20703125 c 0,88,89
 266.923828125 68 266.923828125 68 314.882352941 68 c 0,90,91
 372.181413869 68 372.181413869 68 416.349591235 108.19140625 c 0,92,93
 462.214350934 149.924804688 462.214350934 149.924804688 494.305267995 213.778320312 c 0,94,95
 526.669961179 278.172851562 526.669961179 278.172851562 542.872529871 353.973632812 c 0,96,97
 559 429.99609375 559 429.99609375 559 496 c 0,98,99
 559 574.690429688 559 574.690429688 532.01689181 609.03515625 c 0,76,77
EndSplineSet
EndChar

StartChar: R
Encoding: 82 82 53
Width: 628
VWidth: 1177
Flags: W
LayerCount: 2
Fore
SplineSet
607.80078125 687.301757812 m 0,0,1
 664.661132812 638.153320312 664.661132812 638.153320312 664.661132812 556.868164062 c 0,2,3
 664.661132812 456.046875 664.661132812 456.046875 609.411132812 390.081054688 c 0,4,5
 583.791992188 359.491210938 583.791992188 359.491210938 549.90234375 337.002929688 c 0,6,7
 514.38337465 314.513671875 514.38337465 314.513671875 471.569699844 300.838867188 c 1,8,9
 484.730038483 274.883789062 484.730038483 274.883789062 496.671464102 250.844726562 c 0,10,11
 511.147733395 221.70703125 511.147733395 221.70703125 523.994312883 187.685546875 c 128,-1,12
 536.808897194 153.747070312 536.808897194 153.747070312 548.829101562 111.038085938 c 0,13,14
 560.377929688 68.5107421875 560.377929688 68.5107421875 573.418945312 11.8642578125 c 2,15,-1
 576.150390625 0 l 1,16,-1
 563.661132812 0 l 1,17,-1
 460.111298183 0 l 1,18,-1
 451.529366116 0 l 1,19,-1
 449.767567193 7.9482421875 l 2,20,21
 436.090145214 69.669921875 436.090145214 69.669921875 423.485077705 113.896484375 c 128,-1,22
 410.92748691 157.959960938 410.92748691 157.959960938 398.410148112 190.036132812 c 128,-1,23
 385.928932899 222.020507812 385.928932899 222.020507812 373.506547528 245.528320312 c 0,24,25
 362.496078341 266.364257812 362.496078341 266.364257812 351.999596185 287 c 1,26,-1
 242.241690743 287 l 1,27,-1
 170.376953125 7.630859375 l 1,28,-1
 168.515625 0 l 1,29,-1
 160.661132812 0 l 1,30,-1
 65.6611328125 0 l 1,31,-1
 53 0 l 1,32,-1
 55.93359375 11.986328125 l 1,33,-1
 230.000955407 710.747070312 l 1,34,-1
 231.467573022 716.419921875 l 1,35,-1
 237.5920691 717.904296875 l 2,36,37
 258.216572828 722.90234375 258.216572828 722.90234375 283.080953517 726.385742188 c 0,38,39
 307.733753199 729.935546875 307.733753199 729.935546875 332.919117758 731.963867188 c 128,-1,40
 357.96824479 733.981445312 357.96824479 733.981445312 382.500288482 734.990234375 c 128,-1,41
 407.03852479 736 407.03852479 736 426.291364331 736 c 0,42,43
 551.459960938 736 551.459960938 736 607.80078125 687.301757812 c 0,0,1
513.852873978 611.620117188 m 0,44,45
 477.976991999 634 477.976991999 634 418.893253801 634 c 0,46,47
 390.674540073 634 390.674540073 634 364.568540108 632.573242188 c 0,48,49
 345.603657157 631.537109375 345.603657157 631.537109375 333.449618429 630.206054688 c 1,50,-1
 267.395060125 377 l 1,51,-1
 316.376579312 377 l 2,52,53
 340.736261892 377 340.736261892 377 363.61797373 378.883789062 c 128,-1,54
 386.50071767 380.767578125 386.50071767 380.767578125 407.909619278 384.526367188 c 0,55,56
 428.907744101 388.212890625 428.907744101 388.212890625 447.229627211 394.727539062 c 128,-1,57
 465.551510321 401.2421875 465.551510321 401.2421875 481.297265656 410.575195312 c 0,58,59
 512.237633607 428.9140625 512.237633607 428.9140625 529.978443024 460.331054688 c 0,60,61
 547.661132812 491.948242188 547.661132812 491.948242188 547.661132812 540.6328125 c 0,62,63
 547.661132812 590.423828125 547.661132812 590.423828125 513.852873978 611.620117188 c 0,44,45
EndSplineSet
EndChar

StartChar: S
Encoding: 83 83 54
Width: 628
VWidth: 1177
Flags: W
LayerCount: 2
Fore
SplineSet
236.578620219 93.2314453125 m 128,-1,1
 264.501257829 89 264.501257829 89 298.927330646 89 c 0,2,3
 307.058427442 89 307.058427442 89 315.153468443 89.4375 c 128,-1,4
 323.247479279 89.875 323.247479279 89.875 331.313675645 90.7509765625 c 128,-1,5
 339.380902176 91.6259765625 339.380902176 91.6259765625 347.418253906 92.94140625 c 128,-1,6
 355.456635802 94.255859375 355.456635802 94.255859375 363.469263558 96.009765625 c 128,-1,7
 371.393297076 97.744140625 371.393297076 97.744140625 378.852725925 99.9326171875 c 128,-1,8
 386.313184939 102.122070312 386.313184939 102.122070312 393.291526469 104.758789062 c 128,-1,9
 400.269867999 107.395507812 400.269867999 107.395507812 406.775363536 110.471679688 c 128,-1,10
 413.280859072 113.546875 413.280859072 113.546875 419.346473912 117.075195312 c 0,11,12
 442.886787214 130.765625 442.886787214 130.765625 456.873345076 154.264648438 c 128,-1,13
 470.874325256 177.788085938 470.874325256 177.788085938 470.874325256 213.127929688 c 0,14,15
 470.874325256 224.701171875 470.874325256 224.701171875 468.510095286 234.587890625 c 128,-1,16
 466.146895483 244.474609375 466.146895483 244.474609375 461.487456637 252.827148438 c 0,17,18
 458.252736766 258.625976562 458.252736766 258.625976562 454.270116696 264.0703125 c 128,-1,19
 450.287496626 269.515625 450.287496626 269.515625 445.507528409 274.658203125 c 128,-1,20
 440.728590358 279.80078125 440.728590358 279.80078125 435.162605816 284.616210938 c 0,21,22
 418.094822752 299.383789062 418.094822752 299.383789062 394.856347961 311.922851562 c 0,23,24
 370.832887009 324.885742188 370.832887009 324.885742188 342.585747246 338.350585938 c 0,25,26
 333.633608495 342.629882812 333.633608495 342.629882812 324.859688387 347.18359375 c 128,-1,27
 316.086798444 351.737304688 316.086798444 351.737304688 307.491096979 356.56640625 c 128,-1,28
 298.896425679 361.39453125 298.896425679 361.39453125 290.482033352 366.497070312 c 0,29,30
 264.445628889 382.283203125 264.445628889 382.283203125 245.016706353 403.20703125 c 0,31,32
 235.15699174 413.82421875 235.15699174 413.82421875 227.184540441 426.5546875 c 128,-1,33
 219.211058976 439.284179688 219.211058976 439.284179688 213.111448672 454.06640625 c 0,34,35
 200.822603659 483.8515625 200.822603659 483.8515625 200.822603659 525.388671875 c 0,36,37
 200.822603659 549.309570312 200.822603659 549.309570312 205.441866048 571.2578125 c 128,-1,38
 210.062158602 593.205078125 210.062158602 593.205078125 219.259476757 613.053710938 c 128,-1,39
 228.456794912 632.901367188 228.456794912 632.901367188 242.2630738 650.633789062 c 128,-1,40
 256.069352688 668.366210938 256.069352688 668.366210938 274.390847243 683.81640625 c 0,41,42
 311.259442612 714.90625 311.259442612 714.90625 366.272344058 730.213867188 c 0,43,44
 421.286275669 746 421.286275669 746 494.08189508 746 c 0,45,46
 525.591569185 746 525.591569185 746 556.560406368 740.849609375 c 0,47,48
 571.704101562 738.30078125 571.704101562 738.30078125 584.869140625 735.233398438 c 128,-1,49
 598.034179688 732.165039062 598.034179688 732.165039062 609.858398438 728.56640625 c 0,50,51
 633.333984375 721.421875 633.333984375 721.421875 651.79296875 713.73046875 c 0,52,53
 670.6875 705.858398438 670.6875 705.858398438 680.494140625 699.3203125 c 2,54,-1
 688.368164062 694.071289062 l 1,55,-1
 683.560546875 685.919921875 l 1,56,-1
 637.560546875 607.919921875 l 1,57,-1
 631.583984375 597.78515625 l 1,58,-1
 622.544921875 605.317382812 l 2,59,60
 614.637695312 611.907226562 614.637695312 611.907226562 601.290039062 618.170898438 c 128,-1,61
 587.942382812 624.434570312 587.942382812 624.434570312 569.584960938 629.91796875 c 0,62,63
 530.515760581 641 530.515760581 641 476.148772943 641 c 0,64,65
 442.635426817 641 442.635426817 641 414.358412252 634.500976562 c 0,66,67
 400.504745748 631.317382812 400.504745748 631.317382812 388.657841762 626.376953125 c 128,-1,68
 376.810937777 621.4375 376.810937777 621.4375 366.867779754 614.749023438 c 0,69,70
 347.266819568 601.564453125 347.266819568 601.564453125 335.749568563 580.829101562 c 128,-1,71
 324.244679545 560.1171875 324.244679545 560.1171875 324.244679545 531.41796875 c 0,72,73
 324.244679545 507.305664062 324.244679545 507.305664062 332.291302765 490.770507812 c 0,74,75
 335.032573331 485.13671875 335.032573331 485.13671875 338.344555619 480.029296875 c 128,-1,76
 341.655507742 474.921875 341.655507742 474.921875 345.5248096 470.344726562 c 128,-1,77
 349.393081292 465.768554688 349.393081292 465.768554688 353.856788681 461.665039062 c 128,-1,78
 358.396728321 457.4921875 358.396728321 457.4921875 363.664995015 453.545898438 c 128,-1,79
 368.933261709 449.600585938 368.933261709 449.600585938 375.025660855 445.831054688 c 128,-1,80
 381.119090165 442.061523438 381.119090165 442.061523438 387.952178351 438.537109375 c 0,81,82
 395.092255875 434.854492188 395.092255875 434.854492188 402.783471975 430.998046875 c 128,-1,83
 410.474688076 427.141601562 410.474688076 427.141601562 418.69437911 423.122070312 c 128,-1,84
 426.914070145 419.103515625 426.914070145 419.103515625 435.62618032 414.938476562 c 0,85,86
 468.665650287 399.26171875 468.665650287 399.26171875 497.472169951 383.079101562 c 0,87,88
 512.324066887 374.735351562 512.324066887 374.735351562 525.175382297 365.080078125 c 128,-1,89
 538.027727873 355.424804688 538.027727873 355.424804688 548.838285301 344.46875 c 128,-1,90
 559.813669219 333.34375 559.813669219 333.34375 568.381835938 320.171875 c 0,91,92
 576.50390625 307.000976562 576.50390625 307.000976562 582.31640625 291.884765625 c 0,93,94
 593.947265625 261.637695312 593.947265625 261.637695312 593.947265625 220.12890625 c 0,95,96
 593.947265625 161.712890625 593.947265625 161.712890625 572.493164062 117.565429688 c 0,97,98
 561.403214685 95.4921875 561.403214685 95.4921875 545.450070761 77 c 128,-1,99
 529.495896672 58.5078125 529.495896672 58.5078125 509.028567248 43.759765625 c 0,100,101
 468.345268796 14.447265625 468.345268796 14.447265625 411.468797845 -0.1328125 c 0,102,103
 355.22484855 -15 355.22484855 -15 287.323545733 -15 c 0,104,105
 200.057190645 -15 200.057190645 -15 145.594726562 4.078125 c 0,106,107
 92.1630859375 23.087890625 92.1630859375 23.087890625 70.947265625 39 c 2,108,-1
 64 44.2099609375 l 1,109,-1
 68.1845703125 51.8193359375 l 1,110,-1
 112.184570312 131.819335938 l 1,111,-1
 117.372070312 141.250976562 l 1,112,-1
 126.396484375 135.384765625 l 2,113,114
 145.616210938 122.892578125 145.616210938 122.892578125 187.433541825 105.747070312 c 0,115,0
 208.657012773 97.462890625 208.657012773 97.462890625 236.578620219 93.2314453125 c 128,-1,1
EndSplineSet
EndChar

StartChar: T
Encoding: 84 84 55
Width: 628
VWidth: 1177
Flags: W
LayerCount: 2
Fore
SplineSet
739.463867188 729 m 1,0,-1
 736.447265625 719.055664062 l 1,1,-1
 716.447265625 653.133789062 l 1,2,-1
 714.5859375 647 l 1,3,-1
 706.732421875 647 l 1,4,-1
 508.694348015 647 l 1,5,-1
 344.278963953 7.65625 l 1,6,-1
 342.310403918 -0 l 1,7,-1
 333.911214432 0 l 1,8,-1
 233.732421875 0 l 1,9,-1
 221.015625 0 l 1,10,-1
 224.014648438 12.3583984375 l 1,11,-1
 383.275200851 647 l 1,12,-1
 191.732421875 647 l 1,13,-1
 179 647 l 1,14,-1
 182.016601562 656.748046875 l 1,15,-1
 202.016601562 721.369140625 l 1,16,-1
 203.877929688 729 l 1,17,-1
 211.732421875 729 l 1,18,-1
 726.732421875 729 l 1,19,-1
 739.463867188 729 l 1,0,-1
EndSplineSet
EndChar

StartChar: U
Encoding: 85 85 56
Width: 628
VWidth: 1177
Flags: W
LayerCount: 2
Fore
SplineSet
327.822512533 -13.9150390625 m 128,-1,1
 311.08437679 -15 311.08437679 -15 293.047441639 -15 c 0,2,3
 239.998541174 -15 239.998541174 -15 202.633789062 2.50390625 c 0,4,5
 166.705078125 19.4677734375 166.705078125 19.4677734375 142.329101562 47.8232421875 c 128,-1,6
 118.015625 76.1064453125 118.015625 76.1064453125 106.42578125 113.525390625 c 0,7,8
 95 150.41015625 95 150.41015625 95 190.76171875 c 0,9,10
 95 226.012695312 95 226.012695312 105.286132812 266.043945312 c 2,11,-1
 217.398813497 721.327148438 l 1,12,-1
 219.335167888 729 l 1,13,-1
 227.656341887 729 l 1,14,-1
 328.907076987 729 l 1,15,-1
 342.289551771 729 l 1,16,-1
 339.16151545 717.036132812 l 1,17,-1
 221.054197397 265.205078125 l 2,18,19
 212 227.53515625 212 227.53515625 212 194.671875 c 0,20,21
 212 171.6484375 212 171.6484375 217.308175632 151.982421875 c 0,22,23
 218.076537534 149.219726562 218.076537534 149.219726562 218.961286694 146.556640625 c 128,-1,24
 219.84706583 143.893554688 219.84706583 143.893554688 220.844082346 141.340820312 c 128,-1,25
 221.842128838 138.787109375 221.842128838 138.787109375 222.956562588 136.330078125 c 128,-1,26
 224.070996338 133.873046875 224.070996338 133.873046875 225.295637492 131.522460938 c 128,-1,27
 226.520278647 129.170898438 226.520278647 129.170898438 227.862337035 126.912109375 c 128,-1,28
 229.204395424 124.653320312 229.204395424 124.653320312 230.654601265 122.497070312 c 128,-1,29
 232.104807107 120.340820312 232.104807107 120.340820312 233.672430182 118.2734375 c 0,30,31
 238.960325629 111.297851562 238.960325629 111.297851562 246.067158232 105.81640625 c 128,-1,32
 253.17502081 100.3359375 253.17502081 100.3359375 262.334595062 96.2333984375 c 0,33,34
 280.714512134 88 280.714512134 88 307.813173841 88 c 0,35,36
 323.962163462 88 323.962163462 88 338.476581583 89.83984375 c 128,-1,37
 352.989969729 91.6796875 352.989969729 91.6796875 365.884236012 95.326171875 c 0,38,39
 378.418010787 98.87109375 378.418010787 98.87109375 389.729204358 105.064453125 c 128,-1,40
 401.04039793 111.2578125 401.04039793 111.2578125 411.282476684 120.223632812 c 0,41,42
 418.089586347 126.182617188 418.089586347 126.182617188 424.475435932 133.704101562 c 128,-1,43
 430.861285517 141.2265625 430.861285517 141.2265625 436.929902574 150.51171875 c 128,-1,44
 442.998519632 159.797851562 442.998519632 159.797851562 448.567598455 170.654296875 c 128,-1,45
 454.161396697 181.560546875 454.161396697 181.560546875 459.525510348 194.78125 c 128,-1,46
 464.890653976 208.001953125 464.890653976 208.001953125 470.042592625 223.629882812 c 128,-1,47
 475.194531274 239.258789062 475.194531274 239.258789062 480.034387274 257.05078125 c 2,48,-1
 602.28125 721.353515625 l 1,49,-1
 604.1328125 729 l 1,50,-1
 612 729 l 1,51,-1
 708 729 l 1,52,-1
 720.663085938 729 l 1,53,-1
 717.727539062 717.01171875 l 1,54,-1
 600.733398438 239.190429688 l 2,55,56
 585.746977277 179.913085938 585.746977277 179.913085938 563.186388679 133.321289062 c 0,57,58
 540.261188668 85.9755859375 540.261188668 85.9755859375 505.174035125 53.09375 c 0,59,60
 469.731539951 19.87890625 469.731539951 19.87890625 417.364483426 2.5849609375 c 0,61,62
 404.308510952 -1.845703125 404.308510952 -1.845703125 389.983608366 -5.1552734375 c 128,-1,63
 375.658705781 -8.4638671875 375.658705781 -8.4638671875 360.110192017 -10.6474609375 c 128,-1,0
 344.561678252 -12.8310546875 344.561678252 -12.8310546875 327.822512533 -13.9150390625 c 128,-1,1
EndSplineSet
EndChar

StartChar: V
Encoding: 86 86 57
Width: 628
VWidth: 1177
Flags: W
LayerCount: 2
Fore
SplineSet
281.00705868 729 m 1,0,-1
 281.057669835 719.047851562 l 2,1,2
 282.114306788 509.232421875 282.114306788 509.232421875 291.091072933 349.530273438 c 0,3,4
 298.731291455 213.540039062 298.731291455 213.540039062 306.032725108 110.197265625 c 1,5,6
 384.215596648 247.418945312 384.215596648 247.418945312 463.686470419 388.6953125 c 0,7,8
 507.763621318 467.051757812 507.763621318 467.051757812 551.189024496 550.6640625 c 128,-1,9
 594.613394794 634.276367188 594.613394794 634.276367188 637.38498449 723.141601562 c 2,10,-1
 640.203715915 729 l 1,11,-1
 647 729 l 1,12,-1
 751 729 l 1,13,-1
 766.801757812 729 l 1,14,-1
 760.037109375 715.102539062 l 2,15,16
 741.986328125 678.01953125 741.986328125 678.01953125 702.432617188 601.525390625 c 128,-1,17
 662.872070312 525.017578125 662.872070312 525.017578125 607.176322721 426.668945312 c 0,18,19
 550.531079492 328.279296875 550.531079492 328.279296875 483.849334521 218.236328125 c 128,-1,20
 417.130405846 108.1328125 417.130405846 108.1328125 349.341412767 4.8310546875 c 2,21,-1
 346.256198123 0 l 1,22,-1
 340.28718057 0 l 1,23,-1
 217 0 l 1,24,-1
 208.068359375 0 l 1,25,-1
 207.063476562 8.875 l 2,26,27
 195.041015625 112.165039062 195.041015625 112.165039062 186.528320312 222.240234375 c 128,-1,28
 178.022460938 332.213867188 178.022460938 332.213867188 172.017578125 430.53125 c 128,-1,29
 166.012695312 528.844726562 166.012695312 528.844726562 163.006835938 605.319335938 c 128,-1,30
 160 681.85546875 160 681.85546875 160 719 c 2,31,-1
 160 729 l 1,32,-1
 170 729 l 1,33,-1
 271 729 l 1,34,-1
 281.00705868 729 l 1,0,-1
EndSplineSet
EndChar

StartChar: W
Encoding: 87 87 58
Width: 628
VWidth: 1177
Flags: W
LayerCount: 2
Fore
SplineSet
398.480446898 9.2333984375 m 1,0,-1
 371.850206986 339.771484375 l 1,1,-1
 179.741210938 5.1845703125 l 1,2,-1
 176.892578125 0 l 1,3,-1
 170.9765625 0 l 1,4,-1
 79.9765625 0 l 1,5,-1
 69 0 l 1,6,-1
 70.0205078125 10.6337890625 l 2,7,8
 77.0458984375 83.8779296875 77.0458984375 83.8779296875 90.0869140625 168.794921875 c 128,-1,9
 103.107421875 253.583007812 103.107421875 253.583007812 119.62890625 344.67578125 c 128,-1,10
 136.145507812 435.741210938 136.145507812 435.741210938 155.161132812 530.689453125 c 128,-1,11
 174.16015625 625.553710938 174.16015625 625.553710938 193.356206475 720.903320312 c 2,12,-1
 195.000907112 729 l 1,13,-1
 203.638653926 729 l 1,14,-1
 303.138951155 729 l 1,15,-1
 316.289396482 729 l 1,16,-1
 313.347755294 716.762695312 l 2,17,18
 298.69069054 655.788085938 298.69069054 655.788085938 280.888442665 580.303710938 c 128,-1,19
 263.087217614 504.818359375 263.087217614 504.818359375 244.236575365 423.831054688 c 128,-1,20
 225.380818998 342.814453125 225.380818998 342.814453125 206.000354032 260.798828125 c 0,21,22
 195.220814224 215.177734375 195.220814224 215.177734375 185.584960938 171.665039062 c 1,23,24
 189.697565817 179.032226562 189.697565817 179.032226562 193.959672505 186.356445312 c 0,25,26
 217.552125793 226.90234375 217.552125793 226.90234375 243.758916661 270.940429688 c 128,-1,27
 269.896155511 314.860351562 269.896155511 314.860351562 295.511754234 359.78125 c 128,-1,28
 321.220429921 404.8671875 321.220429921 404.8671875 346.413602424 446.9609375 c 2,29,-1
 349.429909748 452 l 1,30,-1
 355.507528644 452 l 1,31,-1
 442.439367275 452 l 1,32,-1
 452.402693707 452 l 1,33,-1
 452.899786064 442.499023438 l 2,34,35
 454.985323749 402.692382812 454.985323749 402.692382812 459.15639912 357.885742188 c 2,36,-1
 467.535371519 267.885742188 l 2,37,38
 471.725880541 222.869140625 471.725880541 222.869140625 475.393726613 181.850585938 c 0,39,40
 475.699550923 178.431640625 475.699550923 178.431640625 476.062653365 174.516601562 c 128,-1,41
 476.425755806 170.602539062 476.425755806 170.602539062 476.758173534 167.119140625 c 128,-1,42
 477.090591263 163.635742188 477.090591263 163.635742188 477.376981921 160.719726562 c 1,43,44
 481.151201666 173.625976562 481.151201666 173.625976562 484.970425657 186.701171875 c 128,-1,45
 488.789649648 199.77734375 488.789649648 199.77734375 492.652855061 213.022460938 c 128,-1,46
 496.516060475 226.266601562 496.516060475 226.266601562 500.423247311 239.680664062 c 128,-1,47
 504.330434147 253.094726562 504.330434147 253.094726562 508.282625229 266.676757812 c 0,48,49
 531.836211214 347.63671875 531.836211214 347.63671875 554.343448473 427.595703125 c 128,-1,50
 576.851708555 507.55859375 576.851708555 507.55859375 597.264202714 582.516601562 c 128,-1,51
 617.694084877 657.538085938 617.694084877 657.538085938 635.311523438 721.567382812 c 2,52,-1
 637.286132812 729 l 1,53,-1
 644.9765625 729 l 1,54,-1
 737.9765625 729 l 1,55,-1
 751.194335938 729 l 1,56,-1
 747.599609375 716.623046875 l 2,57,58
 695.572265625 537.486328125 695.572265625 537.486328125 641.541992188 365.154296875 c 0,59,60
 585.381036049 192.640625 585.381036049 192.640625 511.973996248 6.55859375 c 2,61,-1
 509.455804104 -0 l 1,62,-1
 502.139545612 0 l 1,63,-1
 408.923477682 0 l 1,64,-1
 399.225062609 0 l 1,65,-1
 398.480446898 9.2333984375 l 1,0,-1
EndSplineSet
EndChar

StartChar: X
Encoding: 88 88 59
Width: 628
VWidth: 1177
Flags: W
LayerCount: 2
Fore
SplineSet
483.39556417 0 m 1,0,-1
 481.724509586 8.0390625 l 2,1,2
 466.217001224 82.625 466.217001224 82.625 443.467917926 158.219726562 c 0,3,4
 423.262979698 225.361328125 423.262979698 225.361328125 398.885481118 292.779296875 c 1,5,-1
 155.899322429 3.712890625 l 1,6,-1
 152.778531548 -0 l 1,7,-1
 147.81511365 0 l 1,8,-1
 32.1748046875 0 l 1,9,-1
 11 0 l 1,10,-1
 24.4521484375 15.916015625 l 1,11,-1
 349.129475564 390.234375 l 1,12,-1
 222.255214676 715.932617188 l 1,13,-1
 217.164894091 729 l 1,14,-1
 232.021645474 729 l 1,15,-1
 342.217847614 729 l 1,16,-1
 349.613736218 729 l 1,17,-1
 352.039100374 722.279296875 l 1,18,-1
 441.572499391 474.203125 l 1,19,20
 491.484849056 533.280273438 491.484849056 533.280273438 538.767775044 592.5859375 c 0,21,22
 591.576551639 658.822265625 591.576551639 658.822265625 637.127509754 724.546875 c 2,23,-1
 640.213783104 729 l 1,24,-1
 645.777196906 729 l 1,25,-1
 757.174804688 729 l 1,26,-1
 776.21875 729 l 1,27,-1
 765.407226562 713.741210938 l 2,28,29
 705.180664062 628.744140625 705.180664062 628.744140625 631.485923897 541.819335938 c 0,30,31
 558.433630657 457.859375 558.433630657 457.859375 488.225988051 380.580078125 c 1,32,33
 490.054401967 376.051757812 490.054401967 376.051757812 491.852359238 371.5546875 c 128,-1,34
 493.65133173 367.057617188 493.65133173 367.057617188 495.433045457 362.557617188 c 128,-1,35
 497.213743962 358.05859375 497.213743962 358.05859375 498.984290252 353.541015625 c 128,-1,36
 500.754836543 349.0234375 500.754836543 349.0234375 502.517261061 344.48046875 c 128,-1,37
 504.279685579 339.9375 504.279685579 339.9375 506.051247091 335.326171875 c 128,-1,38
 507.822808603 330.71484375 507.822808603 330.71484375 509.595385336 326.055664062 c 128,-1,39
 511.367962069 321.397460938 511.367962069 321.397460938 513.168965004 316.618164062 c 128,-1,40
 514.96996794 311.83984375 514.96996794 311.83984375 516.782138311 306.991210938 c 128,-1,41
 518.593293461 302.142578125 518.593293461 302.142578125 520.453179243 297.125976562 c 0,42,43
 538.183007462 249.280273438 538.183007462 249.280273438 554.347364133 200.4609375 c 128,-1,44
 570.526949126 151.59765625 570.526949126 151.59765625 584.100460537 103.208984375 c 128,-1,45
 597.68818505 54.771484375 597.68818505 54.771484375 607.101318767 11.68359375 c 2,46,-1
 609.654600831 0 l 1,47,-1
 596.916616712 0 l 1,48,-1
 491.918348635 0 l 1,49,-1
 483.39556417 0 l 1,0,-1
EndSplineSet
EndChar

StartChar: Y
Encoding: 89 89 60
Width: 628
VWidth: 1177
Flags: W
LayerCount: 2
Fore
SplineSet
782.512695312 729 m 1,0,-1
 773.095703125 714.158203125 l 2,1,2
 749.341796875 676.721679688 749.341796875 676.721679688 723.861328125 639.395507812 c 128,-1,3
 698.379882812 602.0703125 698.379882812 602.0703125 671.1796875 564.865234375 c 0,4,5
 642.918975452 527.66015625 642.918975452 527.66015625 612.337987874 490.56640625 c 0,6,7
 567.058096848 435.64453125 567.058096848 435.64453125 518.94311494 380.546875 c 128,-1,8
 470.828133033 325.448242188 470.828133033 325.448242188 420.65755537 271.036132812 c 1,9,-1
 351.471426418 7.650390625 l 1,10,-1
 349.515977718 0 l 1,11,-1
 341.19551253 0 l 1,12,-1
 242.586914062 0 l 1,13,-1
 229.905273438 0 l 1,14,-1
 232.862304688 12.0029296875 l 1,15,-1
 297.388918913 272.881835938 l 1,16,17
 282.640625 310.875976562 282.640625 310.875976562 269.571289062 348.212890625 c 128,-1,18
 256.501953125 385.549804688 256.501953125 385.549804688 244.8515625 422.291015625 c 128,-1,19
 233.202148438 459.032226562 233.202148438 459.032226562 222.946289062 495.255859375 c 0,20,21
 191.784179688 605.326171875 191.784179688 605.326171875 174.694335938 717.84375 c 2,22,-1
 173 729 l 1,23,-1
 184.586914062 729 l 1,24,-1
 281.586914062 729 l 1,25,-1
 290.49609375 729 l 1,26,-1
 291.520507812 720.150390625 l 2,27,28
 302.986829603 625.794921875 302.986829603 625.794921875 329.77874816 524.42578125 c 0,29,30
 353.75003005 433.732421875 353.75003005 433.732421875 378.993282794 356.470703125 c 1,31,32
 385.281898437 364.311523438 385.281898437 364.311523438 391.576708743 372.186523438 c 128,-1,33
 397.872551493 380.061523438 397.872551493 380.061523438 404.197302671 387.99609375 c 128,-1,34
 410.521021405 395.930664062 410.521021405 395.930664062 416.900492109 403.958007812 c 128,-1,35
 423.279962813 411.984375 423.279962813 411.984375 429.712088154 420.1015625 c 128,-1,36
 436.144213496 428.21875 436.144213496 428.21875 442.678550781 436.487304688 c 0,37,38
 481.678085716 485.837890625 481.678085716 485.837890625 518.036629218 535.6796875 c 128,-1,39
 554.45092469 585.59765625 554.45092469 585.59765625 588.21906651 634.006835938 c 128,-1,40
 622.020246534 682.46484375 622.020246534 682.46484375 650.526021924 724.407226562 c 2,41,-1
 653.647099758 729 l 1,42,-1
 659.419493463 729 l 1,43,-1
 764.586914062 729 l 1,44,-1
 782.512695312 729 l 1,0,-1
EndSplineSet
EndChar

StartChar: Z
Encoding: 90 90 61
Width: 628
VWidth: 1177
Flags: W
LayerCount: 2
Fore
SplineSet
696.775390625 633.098632812 m 1,0,-1
 694.930664062 631.141601562 l 2,1,2
 646.03125 579.248046875 646.03125 579.248046875 580.73011957 507.801757812 c 0,3,4
 513.205118887 436.372070312 513.205118887 436.372070312 443.052104901 359.435546875 c 128,-1,5
 372.94411918 282.548828125 372.94411918 282.548828125 307.55489099 206.172851562 c 0,6,7
 279.142055578 172.986328125 279.142055578 172.986328125 253.502551962 141.532226562 c 128,-1,8
 227.863048345 110.078125 227.863048345 110.078125 206.294509261 82 c 1,9,-1
 560.89823881 82 l 1,10,-1
 574.083333589 82 l 1,11,-1
 571.107374599 72.34375 l 1,12,-1
 551.196694374 7.7431640625 l 1,13,-1
 549.315740928 0 l 1,14,-1
 540.987558584 0 l 1,15,-1
 54.6533203125 0 l 1,16,-1
 42 0 l 1,17,-1
 44.923828125 12.310546875 l 1,18,-1
 63.923828125 92.310546875 l 1,19,-1
 64.4150390625 94.3798828125 l 1,20,-1
 65.7060546875 96.0703125 l 2,21,22
 120.8046875 168.19921875 120.8046875 168.19921875 182.849110209 243.309570312 c 0,23,24
 246.842462174 318.391601562 246.842462174 318.391601562 311.886814787 391.473632812 c 128,-1,25
 376.925027182 464.548828125 376.925027182 464.548828125 441.445414525 534.126953125 c 0,26,27
 469.078442251 563.92578125 469.078442251 563.92578125 496.173177533 592.315429688 c 128,-1,28
 523.266889445 620.704101562 523.266889445 620.704101562 549.15507189 647 c 1,29,-1
 226.608397135 647 l 1,30,-1
 213.265703427 647 l 1,31,-1
 216.426892326 656.748046875 l 1,32,-1
 237.385503089 721.369140625 l 1,33,-1
 239.336045673 729 l 1,34,-1
 247.567007898 729 l 1,35,-1
 706.653320312 729 l 1,36,-1
 719.270507812 729 l 1,37,-1
 716.388671875 716.715820312 l 1,38,-1
 697.388671875 635.715820312 l 1,39,-1
 696.775390625 633.098632812 l 1,0,-1
EndSplineSet
EndChar

StartChar: bracketleft
Encoding: 91 91 62
Width: 588
VWidth: 1177
Flags: W
LayerCount: 2
Fore
SplineSet
360 833 m 1
 644 833 l 1
 656.807764064 833 l 1
 653.701425001 820.57464375 l 1
 634.701425001 744.57464375 l 1
 632.807764064 737 l 1
 625 737 l 1
 442.871572307 737 l 1
 238.703942249 -108 l 1
 418 -108 l 1
 430.972043529 -108 l 1
 427.670745373 -120.544932993 l 1
 407.670745373 -196.544932993 l 1
 405.708885634 -204 l 1
 398 -204 l 1
 115 -204 l 1
 102.304870777 -204 l 1
 105.278126288 -191.657955694 l 1
 350.278126288 825.342044306 l 1
 352.122963206 833 l 1
 360 833 l 1
EndSplineSet
Substitution2: "'case' Case-Sensitive Forms lookup 17 subtable" Bracketleft
EndChar

StartChar: backslash
Encoding: 92 92 63
Width: 588
VWidth: 1177
Flags: W
LayerCount: 2
Fore
SplineSet
258 833 m 1
 356 833 l 1
 365.235207123 833 l 1
 365.968432665 823.793945965 l 1
 446.968432665 -193.206054035 l 1
 447.828127477 -204 l 1
 437 -204 l 1
 338 -204 l 1
 328.755735921 -204 l 1
 328.03079628 -194.784204816 l 1
 248.03079628 822.215795184 l 1
 247.18248125 833 l 1
 258 833 l 1
EndSplineSet
Substitution2: "'case' Case-Sensitive Forms lookup 17 subtable" Backslash
EndChar

StartChar: bracketright
Encoding: 93 93 64
Width: 588
VWidth: 1177
Flags: W
LayerCount: 2
Fore
SplineSet
312 -204 m 1
 29 -204 l 1
 16.354934637 -204 l 1
 19.2691971251 -191.695336161 l 1
 37.2691971251 -115.695336161 l 1
 39.0917767422 -108 l 1
 47 -108 l 1
 231.128427693 -108 l 1
 435.296057751 737 l 1
 256 737 l 1
 243.354934637 737 l 1
 246.269197125 749.304663839 l 1
 264.269197125 825.304663839 l 1
 266.091776742 833 l 1
 274 833 l 1
 557 833 l 1
 569.695129223 833 l 1
 566.721873712 820.657955694 l 1
 321.721873712 -196.342044306 l 1
 319.877036794 -204 l 1
 312 -204 l 1
EndSplineSet
Substitution2: "'case' Case-Sensitive Forms lookup 17 subtable" Bracketright
EndChar

StartChar: asciicircum
Encoding: 94 94 65
Width: 588
VWidth: 1177
Flags: W
LayerCount: 2
Fore
SplineSet
431.090280894 607.142427262 m 1
 207.800889571 328.743313825 l 1
 202.350972253 321.94831053 l 1
 194.87258881 326.414567309 l 1
 122.87258881 369.414567309 l 1
 113.007926534 375.305962835 l 1
 120.204329726 384.263188084 l 1
 402.204329726 735.263188084 l 1
 405.206554684 739 l 1
 410 739 l 1
 494 739 l 1
 501.322745985 739 l 1
 503.533422254 732.018917047 l 1
 617.533422254 372.018917047 l 1
 620.220510941 363.533373824 l 1
 612.103646773 359.880784948 l 1
 532.103646773 323.880784948 l 1
 521.845044431 319.264413894 l 1
 518.462708644 329.993328488 l 1
 431.090280894 607.142427262 l 1
EndSplineSet
EndChar

StartChar: underscore
Encoding: 95 95 66
Width: 588
VWidth: 1177
Flags: W
LayerCount: 2
Fore
SplineSet
-12 -102 m 1
 515 -102 l 1
 527.732169681 -102 l 1
 524.715203388 -114.369561802 l 1
 504.715203388 -196.369561802 l 1
 502.8541209 -204 l 1
 495 -204 l 1
 -32 -204 l 1
 -44.732169681 -204 l 1
 -41.7152033878 -191.630438198 l 1
 -21.7152033878 -109.630438198 l 1
 -19.8541209005 -102 l 1
 -12 -102 l 1
EndSplineSet
EndChar

StartChar: grave
Encoding: 96 96 67
Width: 588
VWidth: 1177
Flags: W
LayerCount: 2
Fore
SplineSet
385.835755127 820.212965604 m 1
 519.835755127 651.212965604 l 1
 525.730321805 643.7787733 l 1
 518.616216371 637.501621446 l 1
 467.616216371 592.501621446 l 1
 460.57185548 586.286008896 l 1
 453.928932188 592.928932188 l 1
 299.928932188 746.928932188 l 1
 292.239225784 754.618638592 l 1
 300.545401276 761.637941824 l 1
 371.545401276 821.637941824 l 1
 379.425671354 828.297324989 l 1
 385.835755127 820.212965604 l 1
EndSplineSet
EndChar

StartChar: a
Encoding: 97 97 68
Width: 628
VWidth: 1177
Flags: W
LayerCount: 2
Fore
SplineSet
463.399662455 -6.896484375 m 1,0,-1
 459.97475302 -0.4716796875 l 2,1,2
 453.238438293 12.1630859375 453.238438293 12.1630859375 448.199479108 26.337890625 c 2,3,-1
 443.59371005 41.1123046875 l 1,4,5
 418.640500928 24.11328125 418.640500928 24.11328125 385.197390127 8.5341796875 c 0,6,7
 369.615041452 1.3154296875 369.615041452 1.3154296875 352.13123804 -3.4814453125 c 128,-1,8
 334.648475951 -8.2783203125 334.648475951 -8.2783203125 315.523548408 -10.638671875 c 128,-1,9
 296.397579542 -13 296.397579542 -13 275.443048508 -13 c 0,10,11
 224.410960731 -13 224.410960731 -13 187.267578125 1.8017578125 c 0,12,13
 151.393554688 16.0888671875 151.393554688 16.0888671875 128.560546875 44.87109375 c 0,14,15
 84 101.041992188 84 101.041992188 84 186.36328125 c 0,16,17
 84 256.54296875 84 256.54296875 108.063476562 322.768554688 c 0,18,19
 132.223632812 389.2578125 132.223632812 389.2578125 181.052734375 441.850585938 c 0,20,21
 231.705424274 494.549804688 231.705424274 494.549804688 310.565812372 526.278320312 c 128,-1,22
 389.408497988 558 389.408497988 558 492.971136504 558 c 0,23,24
 508.18798101 558 508.18798101 558 528.040039062 556.985351562 c 0,25,26
 537.616210938 556.467773438 537.616210938 556.467773438 547.309570312 555.3046875 c 128,-1,27
 557.00390625 554.141601562 557.00390625 554.141601562 566.811523438 552.334960938 c 0,28,29
 573.329101562 551.133789062 573.329101562 551.133789062 579.734375 549.704101562 c 128,-1,30
 586.139648438 548.274414062 586.139648438 548.274414062 592.438476562 546.614257812 c 128,-1,31
 598.737304688 544.953125 598.737304688 544.953125 604.921875 543.063476562 c 0,32,33
 623.72265625 537.525390625 623.72265625 537.525390625 638.471679688 530.416992188 c 2,34,-1
 645.594726562 526.983398438 l 1,35,-1
 643.71875 519.5234375 l 1,36,-1
 563.723632812 201.430664062 l 2,37,38
 562.534179688 196.654296875 562.534179688 196.654296875 561.424804688 192.010742188 c 128,-1,39
 560.314453125 187.368164062 560.314453125 187.368164062 559.286132812 182.866210938 c 128,-1,40
 558.256835938 178.364257812 558.256835938 178.364257812 557.307617188 173.998046875 c 128,-1,41
 556.358398438 169.631835938 556.358398438 169.631835938 555.489257812 165.40625 c 128,-1,42
 554.620117188 161.180664062 554.620117188 161.180664062 553.831054688 157.091796875 c 0,43,44
 550 137.240234375 550 137.240234375 550 114.030273438 c 128,-1,45
 550 90.826171875 550 90.826171875 554.329101562 68.5712890625 c 128,-1,46
 558.693359375 46.1318359375 558.693359375 46.1318359375 568.454101562 18.8466796875 c 2,47,-1
 572.4140625 7.7744140625 l 1,48,-1
 560.381835938 6.095703125 l 1,49,-1
 470.985696276 -5.904296875 l 1,50,-1
 463.399662455 -6.896484375 l 1,0,-1
271.606816718 89.1533203125 m 128,-1,52
 283.462272456 87 283.462272456 87 297.835645802 87 c 0,53,54
 309.249580834 87 309.249580834 87 319.930424884 88.0615234375 c 128,-1,55
 330.612310256 89.1220703125 330.612310256 89.1220703125 340.548608776 91.240234375 c 128,-1,56
 350.484907296 93.3583984375 350.484907296 93.3583984375 359.692280123 96.505859375 c 128,-1,57
 368.89965295 99.65234375 368.89965295 99.65234375 377.463488522 103.848632812 c 0,58,59
 410.717078644 120.142578125 410.717078644 120.142578125 433.501213167 142.118164062 c 1,60,61
 434.690403369 158.345703125 434.690403369 158.345703125 437.620684656 177.4609375 c 0,62,63
 440.89876763 198.84765625 440.89876763 198.84765625 446.376123553 218.34375 c 2,64,-1
 513.007221164 453.649414062 l 2,65,66
 510.218559727 454.055664062 510.218559727 454.055664062 507.298691664 454.41796875 c 128,-1,67
 504.378823602 454.780273438 504.378823602 454.780273438 500.751897617 455.171875 c 0,68,69
 492.285946353 456.084960938 492.285946353 456.084960938 485.718325857 456.541992188 c 128,-1,70
 479.151746684 457 479.151746684 457 474.843795838 457 c 0,71,72
 413.290186341 457 413.290186341 457 363.226528413 435.637695312 c 0,73,74
 354.817849881 432.049804688 354.817849881 432.049804688 346.807997835 428.0625 c 128,-1,75
 338.797104468 424.07421875 338.797104468 424.07421875 331.179830974 419.68359375 c 128,-1,76
 323.561516158 415.29296875 323.561516158 415.29296875 316.335779894 410.5 c 128,-1,77
 309.11004363 405.708007812 309.11004363 405.708007812 302.269596661 400.506835938 c 128,-1,78
 295.42810837 395.306640625 295.42810837 395.306640625 288.973992018 389.702148438 c 128,-1,79
 282.519875667 384.09765625 282.519875667 384.09765625 276.44271803 378.081054688 c 0,80,81
 264.268617632 366.029296875 264.268617632 366.029296875 253.994930649 352.829101562 c 128,-1,82
 243.720202342 339.627929688 243.720202342 339.627929688 235.31985439 325.237304688 c 128,-1,83
 226.919506438 310.845703125 226.919506438 310.845703125 220.390414872 295.251953125 c 0,84,85
 201 248.469726562 201 248.469726562 201 197.051757812 c 0,86,87
 201 192.109375 201 192.109375 201.193359375 187.318359375 c 128,-1,88
 201.385742188 182.52734375 201.385742188 182.52734375 201.76953125 177.911132812 c 128,-1,89
 202.15234375 173.293945312 202.15234375 173.293945312 202.7265625 168.828125 c 128,-1,90
 203.30078125 164.361328125 203.30078125 164.361328125 204.065603312 160.067382812 c 128,-1,91
 204.876793477 155.7734375 204.876793477 155.7734375 205.888958868 151.630859375 c 0,92,93
 210.792546138 131.564453125 210.792546138 131.564453125 221.402580263 117.403320312 c 0,94,95
 223.926745806 114.03515625 223.926745806 114.03515625 226.953870077 111.006835938 c 128,-1,96
 229.980994349 107.978515625 229.980994349 107.978515625 233.577721983 105.236328125 c 128,-1,97
 237.17549094 102.494140625 237.17549094 102.494140625 241.369937643 100.055664062 c 128,-1,98
 245.564384346 97.6162109375 245.564384346 97.6162109375 250.354467472 95.4853515625 c 0,99,51
 259.750319657 91.3056640625 259.750319657 91.3056640625 271.606816718 89.1533203125 c 128,-1,52
EndSplineSet
Substitution2: "'case' Case-Sensitive Forms lookup 18 subtable" A
Substitution2: "'ordn' Ordinals in Latin lookup 7 subtable" ordfeminine
EndChar

